<svg xmlns="http://www.w3.org/2000/svg" width="32" height="32" viewBox="0 0 8.467 8.467"><path d="m.53 0 1.058 1.058L.529 2.117l.53.529 1.058-1.058 1.058 1.058.53-.53-1.06-1.058L3.706 0h-1.06l-.528.53-.53-.53H.53zm4.233 8.467L5.82 7.409 4.763 6.35l.529-.529L6.35 6.88l1.06-1.059.529.53L6.88 7.409l1.059 1.058h-1.06l-.529-.53-.529.53h-.53Zm.529-7.144-.53.53 1.06 1.058-1.06 1.058.53.53.53-.53.528-.53.53.53.529.53.529-.53L6.879 2.91l1.059-1.059-.53-.529-.529.53-.529.528-.529-.529-.53-.529zM1.058 3.969l-.529.53 1.059 1.057L.529 6.615l.53.529.529-.53.529-.528.529.529.53.529.528-.53-1.058-1.058 1.058-1.058-.529-.53-.53.53-.528.53-.53-.53Z" style="fill:#000;stroke:none;stroke-width:.264594px;stroke-linecap:butt;stroke-linejoin:miter;stroke-opacity:1"/></svg>