<svg xmlns="http://www.w3.org/2000/svg" width="32" height="32"><path d="M16 22.996a6.998 6.998 0 1 0 13.996 0 6.998 6.998 0 0 0-7-6.996A6.997 6.997 0 0 0 16 22.996ZM2 9a7.001 7.001 0 0 0 14 0A7.001 7.001 0 0 0 2 9Zm7 21c1.102 0 2 .895 2 2H6.996c0-1.105.895-2.004 2.004-2.004ZM22.996 2.004C24.106 2.004 25 1.105 25 0h-4c0 1.105.895 2.004 2 2.004Zm7 6.996c0 1.105.899 2 2.004 2V6.996A2.003 2.003 0 0 0 29.996 9ZM2.004 22.996C2.004 24.106 1.105 25 0 25v-4c1.105 0 2.004.895 2.004 2ZM32 30c-1.105 0-2 .895-2.004 2H32ZM0 2.004A2.006 2.006 0 0 0 2.004 0H0Zm0 0" style="stroke:none;fill-rule:nonzero;fill:#000;fill-opacity:1"/></svg>