<svg xmlns="http://www.w3.org/2000/svg" width="32" height="32"><path d="M16 22.996a7.001 7.001 0 0 1-14 0A6.998 6.998 0 0 1 9 16a7 7 0 0 1 7 6.996ZM29.996 9c0 3.863-3.133 7-7 7A7 7 0 0 1 16 9a6.998 6.998 0 1 1 13.996 0Zm-7 21A2.003 2.003 0 0 0 21 32h4a2.003 2.003 0 0 0-2.004-2.004ZM9 2.004A2.005 2.005 0 0 1 7 0h3.996c0 1.105-.894 2-1.996 2.004ZM2.004 9c0 1.105-.899 2-2.004 2V6.996c1.105 0 2.004.895 2.004 2.004Zm27.992 13.996c0 1.11.899 2.004 2.004 2.004v-4a2.002 2.002 0 0 0-2.004 2ZM0 30c1.105 0 2 .895 2.004 2H0ZM32 2.004A2.006 2.006 0 0 1 29.996 0H32Zm0 0" style="stroke:none;fill-rule:nonzero;fill:#000;fill-opacity:1"/></svg>