<svg xmlns="http://www.w3.org/2000/svg" width="32" height="32" viewBox="0 0 8.467 8.467"><circle cx="-2.381" cy="2.381" r="1.852" style="fill:#000;stroke-width:0" transform="scale(-1 1)"/><path d="M0 .53A.53.53 0 0 0 .53 0H0Zm7.937 1.851a.53.53 0 0 0 .53.53v-1.06a.53.53 0 0 0-.53.53zM6.085.53a.53.53 0 0 0 .53-.53H5.556a.53.53 0 0 0 .53.53z" style="fill:#000;stroke-width:0"/><g transform="matrix(1 0 0 -1 0 8.467)"><circle cx="-6.085" cy="6.085" r="1.852" style="fill:#000;stroke-width:0" transform="scale(-1 1)"/><path d="M8.467 7.938a.53.53 0 0 0-.53.529h.53zM.53 6.085a.53.53 0 0 1-.53.53V5.556a.53.53 0 0 1 .53.53zm1.851 1.853a.53.53 0 0 1 .53.529h-1.06a.53.53 0 0 1 .53-.53z" style="fill:#000;stroke-width:0"/></g></svg>