<svg xmlns="http://www.w3.org/2000/svg" width="32" height="32"><path d="M2 9a7 7 0 0 0 14 0A7 7 0 0 0 2 9ZM0 2a2 2 0 0 0 2-2H0Zm30 7c0 1.105.899 2 2 2V7a2 2 0 0 0-2 2Zm-7-7c1.106 0 2-.895 2-2h-4a2 2 0 0 0 2 2Zm0 0" style="stroke:none;fill-rule:nonzero;fill:#000;fill-opacity:1"/><path d="M16 9a7 7 0 1 1 14 0 7 7 0 0 1-7 7 7 7 0 0 1-7-7Zm16-7a2 2 0 0 1-2-2h2ZM2 9c0-1.106-.895-2-2-2v4a2 2 0 0 0 2-2Zm7-7c1 0 2-.895 2-2H7a2 2 0 0 0 2 2Zm0 0" style="stroke:none;fill-rule:nonzero;fill:#000;fill-opacity:1"/></svg>