<svg xmlns="http://www.w3.org/2000/svg" width="32" height="32"><path d="M9 2.004a6.996 6.996 0 1 0 .004 13.992 7 7 0 0 0 6.996-7 6.994 6.994 0 0 0-7-6.992ZM9 4a5 5 0 1 1 0 10A5 5 0 0 1 9 4Zm0 26c1.102 0 2 .895 2 2H6.996c0-1.105.895-2.004 2.004-2.004ZM22.996 2.004C24.106 2.004 25 1.105 25 0h-4c0 1.105.895 2.004 2 2.004Zm7 6.996c0 1.105.899 2 2.004 2V6.996A2.003 2.003 0 0 0 29.996 9ZM2.004 22.996C2.004 24.106 1.105 25 0 25v-4c1.105 0 2.004.895 2.004 2ZM32 30c-1.105 0-2 .895-2.004 2H32ZM0 2.004A2.006 2.006 0 0 0 2.004 0H0ZM22.996 16A6.997 6.997 0 0 0 16 22.996a6.998 6.998 0 1 0 13.996 0 6.998 6.998 0 0 0-7-6.996Zm0 2a4.999 4.999 0 1 1 0 9.996 5 5 0 1 1 0-10Zm0 0" style="stroke:none;fill-rule:nonzero;fill:#000;fill-opacity:1"/></svg>