<svg xmlns="http://www.w3.org/2000/svg" width="32" height="32"><path d="M23 2a7 7 0 1 1 0 14 7 7 0 0 1-7-7 7 7 0 0 1 7-7Zm0 2a5 5 0 0 0 0 10 5 5 0 1 0 0-10Zm0 26a2 2 0 0 0-2 2h4a2 2 0 0 0-2-2ZM9 2a2 2 0 0 1-2-2h4c0 1.105-.894 2-2 2ZM2 9c0 1.105-.899 2-2 2V7a2 2 0 0 1 2 2Zm28 14a2 2 0 0 0 2 2v-4a2 2 0 0 0-2 2ZM0 30a2 2 0 0 1 2 2H0ZM32 2a2 2 0 0 1-2-2h2ZM9 16a7 7 0 0 1 7 7c0 3.867-3.137 7-7 7a7 7 0 0 1-7-7 7 7 0 0 1 7-7Zm0 2a5 5 0 1 0 0 10 5 5 0 1 0 0-10Zm0 0" style="stroke:none;fill-rule:nonzero;fill:#000;fill-opacity:1"/></svg>