<svg xmlns="http://www.w3.org/2000/svg" width="32" height="32"><path d="M9 2a7 7 0 1 0 0 14 7 7 0 0 0 7-7 7 7 0 0 0-7-7Zm0 2a5 5 0 0 1 0 10A5 5 0 1 1 9 4Zm0 26a2 2 0 0 1 2 2H7a2 2 0 0 1 2-2ZM23 2a2 2 0 0 0 2-2h-4c0 1.105.894 2 2 2zm7 7c0 1.105.899 2 2 2V7a2 2 0 0 0-2 2ZM2 23a2 2 0 0 1-2 2v-4a2 2 0 0 1 2 2zm30 7a2 2 0 0 0-2 2h2zM0 2a2 2 0 0 0 2-2H0Zm23 14a7 7 0 0 0-7 7c0 3.867 3.137 7 7 7a7 7 0 0 0 7-7 7 7 0 0 0-7-7zm0 2a5 5 0 1 1 0 10 5 5 0 1 1 0-10zm0 0" style="fill:#000;fill-opacity:1;fill-rule:nonzero;stroke:none"/></svg>