<svg xmlns="http://www.w3.org/2000/svg" width="32" height="32"><path d="M12 2a4 4 0 0 0-3.771 2.691A4 4 0 0 0 2 7.94a4 4 0 0 0 .547 2.059A4 4 0 0 0 2 12a4 4 0 0 0 .549 2A4 4 0 0 0 2 16a4 4 0 0 0 .547 2A4 4 0 0 0 2 20a4 4 0 0 0 2.744 3.791 4 4 0 0 0 3.262 6.203 4 4 0 0 0 2.023-.53 4 4 0 0 0 1.971.532 4 4 0 0 0 2-.549 4 4 0 0 0 2 .55 4 4 0 0 0 2-.548 4 4 0 0 0 2 .547 4 4 0 0 0 3.799-2.764 4 4 0 0 0 2.2.764A4 4 0 0 0 30 24a4 4 0 0 0-.57-1.941A4 4 0 0 0 30 20a4 4 0 0 0-.543-2A4 4 0 0 0 30 16a4 4 0 0 0-.57-1.941A4 4 0 0 0 30 12a4 4 0 0 0-2.68-3.775A4 4 0 0 0 28 6a4 4 0 0 0-6-3.455A4 4 0 0 0 20 2a4 4 0 0 0-2 .543 4 4 0 0 0-4.016 0A4 4 0 0 0 12 2zM9.771 9.305A4 4 0 0 0 14 9.46a4 4 0 0 0 4 0 4 4 0 0 0 4 0 4 4 0 0 0 .691.305 4 4 0 0 0-.132 4.27 4 4 0 0 0 .033 3.876 4 4 0 0 0-.033 4.123 4 4 0 0 0-.258.693A4 4 0 0 0 20 22a4 4 0 0 0-2 .543A4 4 0 0 0 16 22a4 4 0 0 0-1.988.543A4 4 0 0 0 12 22a4 4 0 0 0-1.969.53 4 4 0 0 0-.707-.32A4 4 0 0 0 10 20a4 4 0 0 0-.54-2 4 4 0 0 0 .54-2 4 4 0 0 0-.547-2A4 4 0 0 0 10 12a4 4 0 0 0-.543-2.01 4 4 0 0 0 .314-.685z" style="stroke:none;fill-rule:nonzero;fill:#7b7b9d;fill-opacity:1"/><path d="M25.846 9.943A2 2 0 0 0 24 12h-4v4h4a2 2 0 1 0 4.04 0A2 2 0 0 0 26 14.012v-.02A2 2 0 0 0 28 12a2 2 0 0 0-2.15-2.057z" style="stroke:none;fill-rule:nonzero;fill:#fff;fill-opacity:1"/><path d="M20.031 4a1.968 2 0 1 0 0 4C21.12 8 22 7.103 22 6a2 2 0 1 0 4 0 2 2 0 0 0-4 0c0-1.104-.88-2-1.969-2zM20 8v4h4V8h-4z" style="fill:#b9b9cb;fill-opacity:1;fill-rule:nonzero;stroke:none;stroke-width:1"/><path d="M6.07 14a2 2 0 0 0-.218 0A2 2 0 0 0 4 16a2 2 0 0 0 2 2v.018A2 2 0 0 0 4 20a2 2 0 1 0 4 0h4v-4H8a2 2 0 0 0-1.926-2zm19.776 4A2 1.968 0 0 0 24 20h-4v4h4a2 2 0 0 0 2 2 2 2 0 0 0 2-2 2 2 0 0 0-2-2v-.014a2 1.967 0 0 0 2-1.96A2 1.968 0 0 0 25.85 18z" style="fill:#fff;fill-opacity:1;fill-rule:nonzero;stroke:none;stroke-width:1"/><path d="M12 8h8v16h-8Zm0 0" style="stroke:none;fill-rule:nonzero;fill:#fff;fill-opacity:1"/><path d="M12 4a2 2 0 1 0 0 4v4h4V8a2 2 0 0 0 2-2 2 2 0 0 0-4 0 2 2 0 0 0-2-2zm4 8v4h4v-4h-4zm0 4h-4v4h4v-4zm-4 0v-4H8v4h4zm8-10v6h4V6h-4zm0 10v4h4v-4h-4zm-4 4v4a2 2 0 0 0 0 4 2 2 0 0 0 2-2h.016A2 2 0 0 0 20 28a2 2 0 1 0 0-4v-4h-4z" style="stroke:none;fill-rule:nonzero;fill:#b9b9cb;fill-opacity:1"/><path d="M6 8h6v4H6Zm0 0" style="stroke:none;fill-rule:nonzero;fill:#fff;fill-opacity:1"/><path d="M8 8a2 2 0 1 1-4 0 2 2 0 0 1 4 0Zm0 0" style="fill:#fff;fill-opacity:1;fill-rule:nonzero;stroke:none;stroke-width:1"/><path d="M8 11.97a2 1.968 0 1 1-4 0 2 1.967 0 1 1 4 0zm0 0" style="fill:#fff;fill-opacity:1;fill-rule:nonzero;stroke:none;stroke-width:1"/><path d="M8 20v4a2 2 0 0 0 0 4 2 2 0 0 0 2-2 2 2 0 0 0 2 2 2 2 0 0 0 0-4v-4H8z" style="fill:#b9b9cb;fill-opacity:1;fill-rule:nonzero;stroke:none;stroke-width:1"/></svg>