<svg xmlns="http://www.w3.org/2000/svg" width="32" height="32"><path d="M16 6a4 4 0 0 0-3.768 2.682A4 4 0 0 0 10 8c-2.207 0-4 1.793-4 4 0 .733.198 1.419.543 2A4 4 0 0 0 6 16a4 4 0 0 0 2.682 3.768A4 4 0 0 0 8 22c0 2.207 1.793 4 4 4 .733 0 1.419-.198 2-.543A4 4 0 0 0 16 26a4 4 0 0 0 3.768-2.682A4 4 0 0 0 22 24c2.207 0 4-1.793 4-4 0-.732-.199-1.417-.543-2A4 4 0 0 0 26 16a4 4 0 0 0-2.682-3.768A4 4 0 0 0 24 10c0-2.207-1.793-4-4-4-.729 0-1.411.196-2 .537A4 4 0 0 0 16 6zm-2.225 7.322A4 4 0 0 0 16 14a4 4 0 0 0 2-.543c.217.126.445.234.686.318A4 4 0 0 0 18 16a4 4 0 0 0 .543 2 4 4 0 0 0-.318.684A4 4 0 0 0 16 18a4 4 0 0 0-2 .543 4 4 0 0 0-.69-.32A4 4 0 0 0 14 16a4 4 0 0 0-.543-2c.127-.218.234-.447.318-.688z" style="stroke:none;fill-rule:nonzero;fill:#7b7b9d;fill-opacity:1"/><path d="M24 16a2 2 0 0 1-2 2 2 2 0 1 1 0-4 2 2 0 0 1 2 2Zm0 0" style="stroke:none;fill-rule:nonzero;fill:#fff;fill-opacity:1"/><path d="M24 20a2 2 0 1 1-4 0 2 2 0 1 1 4 0Zm0 0" style="stroke:none;fill-rule:nonzero;fill:#fff;fill-opacity:1"/><path d="M19.816 8A2 2 0 0 0 18 10a2 2 0 0 0-4 0 2 2 0 0 0 2 2v4h4v-4a2 2 0 0 0 2-2 2 2 0 0 0-2.184-2zM16 16h-4v4a2 2 0 0 0 0 4 2 2 0 0 0 2-2 2 2 0 0 0 2 2 2 2 0 0 0 0-4v-4z" style="stroke:none;fill-rule:nonzero;fill:#b9b9cb;fill-opacity:1"/><path d="M10 12h6v4h-6Zm0 0" style="stroke:none;fill-rule:nonzero;fill:#fff;fill-opacity:1"/><path d="M12 12a2 2 0 1 1-4 0 2 2 0 1 1 4 0Zm0 0" style="stroke:none;fill-rule:nonzero;fill:#fff;fill-opacity:1"/><path d="M12 16a2 2 0 0 1-2 2 2 2 0 1 1 0-4 2 2 0 0 1 2 2Zm4 0h6v4h-6Zm0 0" style="stroke:none;fill-rule:nonzero;fill:#fff;fill-opacity:1"/></svg>