<svg xmlns="http://www.w3.org/2000/svg" width="32" height="32"><path d="M29.996 24A3.996 3.996 0 0 1 26 27.996 3.998 3.998 0 1 1 29.996 24Zm0 0" style="stroke:none;fill-rule:nonzero;fill:#7b7b9d;fill-opacity:1"/><path d="M29.996 20A4 4 0 0 1 26 24a4 4 0 0 1 0-8 4 4 0 0 1 3.996 4Zm0 0" style="stroke:none;fill-rule:nonzero;fill:#7b7b9d;fill-opacity:1"/><path d="M29.996 16A3.996 3.996 0 0 1 26 19.996 3.998 3.998 0 1 1 29.996 16Zm0 0" style="stroke:none;fill-rule:nonzero;fill:#7b7b9d;fill-opacity:1"/><path d="M29.996 12A4 4 0 0 1 26 16a4 4 0 0 1 0-8 4 4 0 0 1 3.996 4Zm0 0" style="stroke:none;fill-rule:nonzero;fill:#7b7b9d;fill-opacity:1"/><path d="M27.996 12A1.998 1.998 0 1 1 24 12a1.999 1.999 0 1 1 3.996 0Zm0 0" style="stroke:none;fill-rule:nonzero;fill:#fff;fill-opacity:1"/><path d="M27.996 16a1.997 1.997 0 1 1-3.994-.002 1.997 1.997 0 0 1 3.994.002Zm0 0" style="stroke:none;fill-rule:nonzero;fill:#fff;fill-opacity:1"/><path d="M27.996 20A1.998 1.998 0 1 1 24 20a1.999 1.999 0 1 1 3.996 0Zm0 0" style="stroke:none;fill-rule:nonzero;fill:#fff;fill-opacity:1"/><path d="M27.996 24A2 2 0 0 1 26 26a1.999 1.999 0 1 1 1.996-2Zm0 0" style="stroke:none;fill-rule:nonzero;fill:#fff;fill-opacity:1"/><path d="M27.996 5.996A3.998 3.998 0 1 1 20 6.001a3.998 3.998 0 0 1 7.997-.005Zm0 0" style="stroke:none;fill-rule:nonzero;fill:#7b7b9d;fill-opacity:1"/><path d="M24 5.996a4 4 0 0 1-8 0A4 4 0 0 1 20 2a4 4 0 0 1 4 3.996Zm0 0" style="stroke:none;fill-rule:nonzero;fill:#7b7b9d;fill-opacity:1"/><path d="M19.996 5.996A3.998 3.998 0 1 1 12 6.001a3.998 3.998 0 0 1 7.997-.005Zm0 0" style="stroke:none;fill-rule:nonzero;fill:#7b7b9d;fill-opacity:1"/><path d="M16 5.996a4 4 0 0 1-8 0A4 4 0 0 1 12 2a4 4 0 0 1 4 3.996Zm0 0" style="stroke:none;fill-rule:nonzero;fill:#7b7b9d;fill-opacity:1"/><path d="M14 5.996c0 1.106-.895 2-2 2A1.999 1.999 0 1 1 12 4c1.105 0 2 .895 2 1.996Zm0 0" style="stroke:none;fill-rule:nonzero;fill:#b9b9cb;fill-opacity:1"/><path d="M17.996 5.996A1.998 1.998 0 1 1 14 6a1.998 1.998 0 0 1 3.996-.004Zm0 0" style="stroke:none;fill-rule:nonzero;fill:#b9b9cb;fill-opacity:1"/><path d="M22 5.996c0 1.106-.895 2-2 2A1.999 1.999 0 1 1 20 4c1.105 0 2 .895 2 1.996Zm0 0" style="stroke:none;fill-rule:nonzero;fill:#b9b9cb;fill-opacity:1"/><path d="M20 22a4 4 0 0 1 4 4 4 4 0 0 1-4 3.996A4 4 0 0 1 16 26a4 4 0 0 1 4-4Zm0 0" style="stroke:none;fill-rule:nonzero;fill:#7b7b9d;fill-opacity:1"/><path d="M16 22a3.997 3.997 0 0 1 3.996 4A3.996 3.996 0 0 1 16 29.996 3.998 3.998 0 1 1 16 22Zm0 0" style="stroke:none;fill-rule:nonzero;fill:#7b7b9d;fill-opacity:1"/><path d="M12 22a4 4 0 0 1 4 4 4 4 0 0 1-4 3.996A4 4 0 0 1 8 26a4 4 0 0 1 4-4Zm0 0" style="stroke:none;fill-rule:nonzero;fill:#7b7b9d;fill-opacity:1"/><path d="M8 22a3.998 3.998 0 1 1 .005 7.995A3.998 3.998 0 0 1 8 22Zm0 0" style="stroke:none;fill-rule:nonzero;fill:#7b7b9d;fill-opacity:1"/><path d="M8 24a1.999 1.999 0 1 1 .002 3.998A1.999 1.999 0 0 1 8 24Zm0 0" style="stroke:none;fill-rule:nonzero;fill:#b9b9cb;fill-opacity:1"/><path d="M12 24a1.999 1.999 0 1 1 0 3.996A1.998 1.998 0 1 1 12 24Zm0 0" style="stroke:none;fill-rule:nonzero;fill:#b9b9cb;fill-opacity:1"/><path d="M16 24a1.998 1.998 0 1 1-.004 3.996A1.998 1.998 0 0 1 16 24Zm0 0" style="stroke:none;fill-rule:nonzero;fill:#b9b9cb;fill-opacity:1"/><path d="M20 24a1.999 1.999 0 1 1 0 3.996A1.998 1.998 0 1 1 20 24Zm0 0" style="stroke:none;fill-rule:nonzero;fill:#b9b9cb;fill-opacity:1"/><path d="M9.996 20a4 4 0 0 1-4 4A4 4 0 0 1 2 20a4 4 0 0 1 3.996-4 4 4 0 0 1 4 4Zm0 0" style="stroke:none;fill-rule:nonzero;fill:#7b7b9d;fill-opacity:1"/><path d="M9.996 16a3.997 3.997 0 0 1-4 3.996A3.996 3.996 0 0 1 2 16a3.998 3.998 0 1 1 7.996 0Zm0 0" style="stroke:none;fill-rule:nonzero;fill:#7b7b9d;fill-opacity:1"/><path d="M9.996 12a4 4 0 0 1-4 4A4 4 0 0 1 2 12a4 4 0 0 1 3.996-4 4 4 0 0 1 4 4Zm0 0" style="stroke:none;fill-rule:nonzero;fill:#7b7b9d;fill-opacity:1"/><path d="M9.996 8a3.998 3.998 0 1 1-7.995.005A3.998 3.998 0 0 1 9.996 8Zm0 0" style="stroke:none;fill-rule:nonzero;fill:#7b7b9d;fill-opacity:1"/><path d="M8 20h4v6H8Zm0 0" style="stroke:none;fill-rule:nonzero;fill:#b9b9cb;fill-opacity:1"/><path d="M12 8h8v16h-8Zm0 0" style="stroke:none;fill-rule:nonzero;fill:#fff;fill-opacity:1"/><path d="M12 16h4v3.996h-4Zm4 4h3.996v6.004H16Zm4-4h4v3.996h-4ZM8 12h4v4H8Zm4-6.004h4V12h-4ZM16 12h3.996v4H16Zm4-6.004h4V12h-4Zm0 0" style="stroke:none;fill-rule:nonzero;fill:#b9b9cb;fill-opacity:1"/><path d="M5.996 8h6v4h-6Zm0 0" style="stroke:none;fill-rule:nonzero;fill:#fff;fill-opacity:1"/><path d="M7.996 8a1.999 1.999 0 1 1-3.998.002A1.999 1.999 0 0 1 7.996 8Zm0 0" style="stroke:none;fill-rule:nonzero;fill:#fff;fill-opacity:1"/><path d="M7.996 12A1.999 1.999 0 1 1 4 12a1.998 1.998 0 1 1 3.996 0Zm0 0" style="stroke:none;fill-rule:nonzero;fill:#fff;fill-opacity:1"/><path d="M7.996 16A1.998 1.998 0 1 1 4 15.996 1.998 1.998 0 0 1 7.996 16Zm0 0" style="stroke:none;fill-rule:nonzero;fill:#fff;fill-opacity:1"/><path d="M7.996 20A1.999 1.999 0 1 1 4 20a1.998 1.998 0 1 1 3.996 0Zm0 0" style="stroke:none;fill-rule:nonzero;fill:#fff;fill-opacity:1"/><path d="M5.996 16h6v3.996h-6ZM20 20h6v4h-6Zm0 0" style="stroke:none;fill-rule:nonzero;fill:#fff;fill-opacity:1"/><path d="M20 8h4v4h-4Zm0 0" style="stroke:none;fill-rule:nonzero;fill:#b9b9cb;fill-opacity:1"/><path d="M26 5.996a1.999 1.999 0 1 1-4.002.002A1.999 1.999 0 0 1 26 5.996Zm0 0" style="stroke:none;fill-rule:nonzero;fill:#b9b9cb;fill-opacity:1"/><path d="M20 12h6v4h-6Zm0 0" style="stroke:none;fill-rule:nonzero;fill:#fff;fill-opacity:1"/></svg>