<svg xmlns="http://www.w3.org/2000/svg" width="32" height="32"><path d="M12 2a4 4 0 0 0-3.75 2.75A4 4 0 0 0 2 8a4 4 0 0 0 .5 2 4 4 0 0 0-.5 2 4 4 0 0 0 .5 2 4 4 0 0 0-.5 2 4 4 0 0 0 .5 2 4 4 0 0 0-.5 2 4 4 0 0 0 2.75 3.75A4 4 0 0 0 8 30a4 4 0 0 0 2-.5 4 4 0 0 0 2 .5 4 4 0 0 0 2-.5 4 4 0 0 0 2 .5 4 4 0 0 0 2-.5 4 4 0 0 0 2 .5 4 4 0 0 0 3.75-2.75A4 4 0 0 0 26 28a4 4 0 0 0 4-4 4 4 0 0 0-.5-2 4 4 0 0 0 .5-2 4 4 0 0 0-.5-2 4 4 0 0 0 .5-2 4 4 0 0 0-.5-2 4 4 0 0 0 .5-2 4 4 0 0 0-2.75-3.75A4 4 0 0 0 28 6a4 4 0 0 0-6-3.5 4 4 0 0 0-2-.5 4 4 0 0 0-2 .5 4 4 0 0 0-4 0 4 4 0 0 0-2-.5zm-2 7.25a4 4 0 0 0 4 .25 4 4 0 0 0 4 0 4 4 0 0 0 4 0 4 4 0 0 0 .75.25 4 4 0 0 0 0 4.25 4 4 0 0 0 0 4 4 4 0 0 0 0 4 4 4 0 0 0-.25.75A4 4 0 0 0 20 22a4 4 0 0 0-2 .5 4 4 0 0 0-2-.5 4 4 0 0 0-2 .5 4 4 0 0 0-2-.5 4 4 0 0 0-2 .5 4 4 0 0 0-.75-.25A4 4 0 0 0 10 20a4 4 0 0 0-.5-2 4 4 0 0 0 .5-2 4 4 0 0 0-.5-2 4 4 0 0 0 .5-2 4 4 0 0 0-.5-2 4 4 0 0 0 .25-.75z" style="stroke:none;fill-rule:nonzero;fill:#7b7b9d;fill-opacity:1"/><path d="M26 10a2 2 0 0 0-2 2h-4v4h4a2 2 0 1 0 4 0 2 2 0 0 0-2-2 2 2 0 0 0 2-2 2 2 0 0 0-2.25-2z" style="stroke:none;fill-rule:nonzero;fill:#fff;fill-opacity:1"/><path d="M20 4a2 2 0 1 0 0 4c1 0 2-1 2-2a2 2 0 1 0 4 0 2 2 0 0 0-4 0c0-1-1-2-2-2zm0 4v4h4V8h-4z" style="fill:#b9b9cb;fill-opacity:1;fill-rule:nonzero;stroke:none;stroke-width:1"/><path d="M6 14a2 2 0 0 0-.25 0A2 2 0 0 0 4 16a2 2 0 0 0 2 2 2 2 0 0 0-2 2 2 2 0 1 0 4 0h4v-4H8a2 2 0 0 0-2-2zm20 4a2 2 0 0 0-2 2h-4v4h4a2 2 0 0 0 2 2 2 2 0 0 0 2-2 2 2 0 0 0-2-2 2 2 0 0 0 2-2 2 2 0 0 0-2.15-2z" style="fill:#fff;fill-opacity:1;fill-rule:nonzero;stroke:none;stroke-width:1"/><path d="M12 8h8v16h-8Zm0 0" style="stroke:none;fill-rule:nonzero;fill:#fff;fill-opacity:1"/><path d="M12 4a2 2 0 1 0 0 4v4h4V8a2 2 0 0 0 2-2 2 2 0 0 0-4 0 2 2 0 0 0-2-2zm4 8v4h4v-4h-4zm0 4h-4v4h4v-4zm-4 0v-4H8v4h4zm8-10v6h4V6h-4zm0 10v4h4v-4h-4zm-4 4v4a2 2 0 0 0 0 4 2 2 0 0 0 2-2 2 2 0 0 0 2 2 2 2 0 1 0 0-4v-4h-4z" style="stroke:none;fill-rule:nonzero;fill:#b9b9cb;fill-opacity:1"/><path d="M6 8h6v4H6Zm0 0" style="stroke:none;fill-rule:nonzero;fill:#fff;fill-opacity:1"/><path d="M8 8a2 2 0 1 1-4 0 2 2 0 0 1 4 0Zm0 0" style="fill:#fff;fill-opacity:1;fill-rule:nonzero;stroke:none;stroke-width:1"/><path d="M8 12a2 2 0 1 1-4 0 2 2 0 1 1 4 0zm0 0" style="fill:#fff;fill-opacity:1;fill-rule:nonzero;stroke:none;stroke-width:1"/><path d="M8 20v4a2 2 0 0 0 0 4 2 2 0 0 0 2-2 2 2 0 0 0 2 2 2 2 0 0 0 0-4v-4H8z" style="fill:#b9b9cb;fill-opacity:1;fill-rule:nonzero;stroke:none;stroke-width:1"/></svg>