<svg xmlns="http://www.w3.org/2000/svg" width="32" height="32"><path d="M12 2a4 4 0 0 0-3.75 2.75A4 4 0 0 0 2 8a4 4 0 0 0 .5 2A4 4 0 0 0 2 12a4 4 0 0 0 .5 2A4 4 0 0 0 2 16a4 4 0 0 0 .5 2A4 4 0 0 0 2 20a4 4 0 0 0 2.75 3.75 4 4 0 0 0 3.25 6.25 4 4 0 0 0 2-.5 4 4 0 0 0 2 .5 4 4 0 0 0 2-.5 4 4 0 0 0 2 .5 4 4 0 0 0 2-.5 4 4 0 0 0 2 .5 4 4 0 0 0 3.75-2.75 4 4 0 0 0 2.25.75A4 4 0 0 0 30 24a4 4 0 0 0-.5-2A4 4 0 0 0 30 20a4 4 0 0 0-.5-2A4 4 0 0 0 30 16a4 4 0 0 0-.5-2A4 4 0 0 0 30 12a4 4 0 0 0-2.75-3.75A4 4 0 0 0 28 6a4 4 0 0 0-6-3.5A4 4 0 0 0 20 2a4 4 0 0 0-2 .5 4 4 0 0 0-4 0A4 4 0 0 0 12 2zM10 9.25A4 4 0 0 0 14 9.5a4 4 0 0 0 4 0 4 4 0 0 0 4 0 4 4 0 0 0 .75.25 4 4 0 0 0-0 4.25 4 4 0 0 0 0 4 4 4 0 0 0-0 4 4 4 0 0 0-.25.75A4 4 0 0 0 20 22a4 4 0 0 0-2 .5A4 4 0 0 0 16 22a4 4 0 0 0-2 .5A4 4 0 0 0 12 22a4 4 0 0 0-2 .5 4 4 0 0 0-.75-.25A4 4 0 0 0 10 20a4 4 0 0 0-.5-2 4 4 0 0 0 .5-2 4 4 0 0 0-.5-2A4 4 0 0 0 10 12a4 4 0 0 0-.5-2 4 4 0 0 0 .25-.75z" style="stroke:none;fill-rule:nonzero;fill:#7b7b9d;fill-opacity:1"/><path d="M26 10A2 2 0 0 0 24 12h-4v4h4a2 2 0 1 0 4 0A2 2 0 0 0 26 14v-0A2 2 0 0 0 28 12a2 2 0 0 0-2.25-2z" style="stroke:none;fill-rule:nonzero;fill:#fff;fill-opacity:1"/><path d="M20 4a2 2 0 1 0 0 4C21 8 22 7 22 6a2 2 0 1 0 4 0 2 2 0 0 0-4 0c0-1-1-2-2-2zM20 8v4h4V8h-4z" style="fill:#b9b9cb;fill-opacity:1;fill-rule:nonzero;stroke:none;stroke-width:1"/><path d="M6 14a2 2 0 0 0-.25 0A2 2 0 0 0 4 16a2 2 0 0 0 2 2v0A2 2 0 0 0 4 20a2 2 0 1 0 4 0h4v-4H8a2 2 0 0 0-2-2zm20 4A2 2 0 0 0 24 20h-4v4h4a2 2 0 0 0 2 2 2 2 0 0 0 2-2 2 2 0 0 0-2-2v-0a2 2 0 0 0 2-2A2 2 0 0 0 25.85 18z" style="fill:#fff;fill-opacity:1;fill-rule:nonzero;stroke:none;stroke-width:1"/><path d="M12 8h8v16h-8Zm0 0" style="stroke:none;fill-rule:nonzero;fill:#fff;fill-opacity:1"/><path d="M12 4a2 2 0 1 0 0 4v4h4V8a2 2 0 0 0 2-2 2 2 0 0 0-4 0 2 2 0 0 0-2-2zm4 8v4h4v-4h-4zm0 4h-4v4h4v-4zm-4 0v-4H8v4h4zm8-10v6h4V6h-4zm0 10v4h4v-4h-4zm-4 4v4a2 2 0 0 0 0 4 2 2 0 0 0 2-2h0A2 2 0 0 0 20 28a2 2 0 1 0 0-4v-4h-4z" style="stroke:none;fill-rule:nonzero;fill:#b9b9cb;fill-opacity:1"/><path d="M6 8h6v4H6Zm0 0" style="stroke:none;fill-rule:nonzero;fill:#fff;fill-opacity:1"/><path d="M8 8a2 2 0 1 1-4 0 2 2 0 0 1 4 0Zm0 0" style="fill:#fff;fill-opacity:1;fill-rule:nonzero;stroke:none;stroke-width:1"/><path d="M8 12a2 2 0 1 1-4 0 2 2 0 1 1 4 0zm0 0" style="fill:#fff;fill-opacity:1;fill-rule:nonzero;stroke:none;stroke-width:1"/><path d="M8 20v4a2 2 0 0 0 0 4 2 2 0 0 0 2-2 2 2 0 0 0 2 2 2 2 0 0 0 0-4v-4H8z" style="fill:#b9b9cb;fill-opacity:1;fill-rule:nonzero;stroke:none;stroke-width:1"/></svg>