<svg xmlns="http://www.w3.org/2000/svg" width="32" height="32"><path d="M24 16a2 2 0 0 1-2 2 2 2 0 1 1 0-4 2 2 0 0 1 2 2Zm0 0" style="stroke:none;fill-rule:nonzero;fill:#fff;fill-opacity:1"/><path d="M24 20a2 2 0 1 1-4 0 2 2 0 1 1 4 0Zm0 0" style="stroke:none;fill-rule:nonzero;fill:#fff;fill-opacity:1"/><path d="M19.816 8A2 2 0 0 0 18 10a2 2 0 0 0-4 0 2 2 0 0 0 2 2v4h4v-4a2 2 0 0 0 2-2 2 2 0 0 0-2.184-2zM16 16h-4v4a2 2 0 0 0 0 4 2 2 0 0 0 2-2 2 2 0 0 0 2 2 2 2 0 0 0 0-4v-4z" style="stroke:none;fill-rule:nonzero;fill:#b9b9cb;fill-opacity:1"/><path d="M10 12h6v4h-6Zm0 0" style="stroke:none;fill-rule:nonzero;fill:#fff;fill-opacity:1"/><path d="M12 12a2 2 0 1 1-4 0 2 2 0 1 1 4 0Zm0 0" style="stroke:none;fill-rule:nonzero;fill:#fff;fill-opacity:1"/><path d="M12 16a2 2 0 0 1-2 2 2 2 0 1 1 0-4 2 2 0 0 1 2 2Zm4 0h6v4h-6Zm0 0" style="stroke:none;fill-rule:nonzero;fill:#fff;fill-opacity:1"/></svg>