<svg xmlns="http://www.w3.org/2000/svg" width="32" height="32" viewBox="0 0 8.467 8.467"><circle cx="5.821" cy="5.292" r="1.058" style="fill:#7b7b9d;fill-opacity:1;stroke-width:0"/><circle cx="5.821" cy="4.233" r="1.058" style="fill:#7b7b9d;fill-opacity:1;stroke-width:0"/><circle cx="5.821" cy="4.233" r=".529" style="fill:#fff;fill-opacity:1;stroke-width:0"/><circle cx="5.821" cy="5.292" r=".529" style="fill:#fff;fill-opacity:1;stroke-width:0"/><circle cx="5.292" cy="2.646" r="1.058" style="fill:#7b7b9d;fill-opacity:1;stroke-width:0"/><circle cx="4.233" cy="2.646" r="1.058" style="fill:#7b7b9d;fill-opacity:1;stroke-width:0"/><circle cx="4.233" cy="2.653" r=".529" style="fill:#b9b9cb;fill-opacity:1;stroke-width:0"/><circle cx="5.292" cy="2.646" r=".529" style="fill:#b9b9cb;fill-opacity:1;stroke-width:0"/><circle cx="-5.821" cy="4.233" r="1.058" style="fill:#7b7b9d;fill-opacity:1;stroke-width:0" transform="rotate(-90)"/><circle cx="-5.821" cy="3.175" r="1.058" style="fill:#7b7b9d;fill-opacity:1;stroke-width:0" transform="rotate(-90)"/><circle cx="-5.821" cy="3.175" r=".529" style="fill:#b9b9cb;fill-opacity:1;stroke-width:0" transform="rotate(-90)"/><circle cx="-5.821" cy="4.233" r=".529" style="fill:#b9b9cb;fill-opacity:1;stroke-width:0" transform="rotate(-90)"/><circle cx="2.646" cy="4.233" r="1.058" style="fill:#7b7b9d;fill-opacity:1;stroke-width:0"/><circle cx="2.646" cy="3.175" r="1.058" style="fill:#7b7b9d;fill-opacity:1;stroke-width:0"/><path d="M3.175 4.233h1.058V5.82H3.175zm1.058-1.587h1.058v1.588H4.233z" style="fill:#b9b9cb;fill-opacity:1;stroke-width:0"/><path d="M2.646 3.175h1.587v1.058H2.646z" style="fill:#fff;fill-opacity:1;stroke-width:0"/><circle cx="2.646" cy="3.175" r=".529" style="fill:#fff;fill-opacity:1;stroke-width:0"/><circle cx="2.646" cy="4.233" r=".529" style="fill:#fff;fill-opacity:1;stroke-width:0"/><path d="M4.233 4.233H5.82v1.058H4.233z" style="fill:#fff;fill-opacity:1;stroke-width:0"/></svg>