<svg xmlns="http://www.w3.org/2000/svg" width="32" height="32"><path d="M26 20c0 2.207-1.793 4-4 4s-4-1.793-4-4 1.793-4 4-4 4 1.793 4 4Zm0 0" style="stroke:none;fill-rule:nonzero;fill:#7b7b9d;fill-opacity:1"/><path d="M26 16a4 4 0 0 1-4 3.996A4 4 0 0 1 18 16a4 4 0 0 1 8 0Zm0 0" style="stroke:none;fill-rule:nonzero;fill:#7b7b9d;fill-opacity:1"/><path d="M24 16a1.998 1.998 0 0 1-2 1.996A1.998 1.998 0 1 1 22 14a2 2 0 0 1 2 2Zm0 0" style="stroke:none;fill-rule:nonzero;fill:#fff;fill-opacity:1"/><path d="M24 20a1.999 1.999 0 1 1-4 0 1.999 1.999 0 1 1 4 0Zm0 0" style="stroke:none;fill-rule:nonzero;fill:#fff;fill-opacity:1"/><path d="M24 10c0 2.207-1.793 4-4 4s-4-1.793-4-4 1.793-4 4-4 4 1.793 4 4Zm0 0" style="stroke:none;fill-rule:nonzero;fill:#7b7b9d;fill-opacity:1"/><path d="M19.996 10A4 4 0 0 1 16 14a4 4 0 0 1 0-8 4 4 0 0 1 3.996 4Zm0 0" style="stroke:none;fill-rule:nonzero;fill:#7b7b9d;fill-opacity:1"/><path d="M17.996 10.027a1.998 1.998 0 1 1-3.996 0 1.999 1.999 0 1 1 3.996 0Zm0 0" style="stroke:none;fill-rule:nonzero;fill:#b9b9cb;fill-opacity:1"/><path d="M22 10a1.999 1.999 0 1 1-4 0 1.999 1.999 0 1 1 4 0Zm0 0" style="stroke:none;fill-rule:nonzero;fill:#b9b9cb;fill-opacity:1"/><path d="M16 18a4 4 0 0 1 3.996 4A4 4 0 0 1 16 26a4 4 0 0 1 0-8Zm0 0" style="stroke:none;fill-rule:nonzero;fill:#7b7b9d;fill-opacity:1"/><path d="M12 18c2.207 0 4 1.793 4 4s-1.793 4-4 4-4-1.793-4-4 1.793-4 4-4Zm0 0" style="stroke:none;fill-rule:nonzero;fill:#7b7b9d;fill-opacity:1"/><path d="M12 20a1.999 1.999 0 1 1 0 4 1.999 1.999 0 1 1 0-4Zm0 0" style="stroke:none;fill-rule:nonzero;fill:#b9b9cb;fill-opacity:1"/><path d="M16 20c1.102 0 1.996.895 1.996 2A1.998 1.998 0 1 1 14 22a2 2 0 0 1 2-2Zm0 0" style="stroke:none;fill-rule:nonzero;fill:#b9b9cb;fill-opacity:1"/><path d="M14 16a4 4 0 0 1-4 3.996A4 4 0 0 1 6 16a4 4 0 0 1 8 0Zm0 0" style="stroke:none;fill-rule:nonzero;fill:#7b7b9d;fill-opacity:1"/><path d="M14 12c0 2.207-1.793 4-4 4s-4-1.793-4-4 1.793-4 4-4 4 1.793 4 4Zm0 0" style="stroke:none;fill-rule:nonzero;fill:#7b7b9d;fill-opacity:1"/><path d="M12 16h4v5.996h-4Zm4-6h3.996v6H16Zm0 0" style="stroke:none;fill-rule:nonzero;fill:#b9b9cb;fill-opacity:1"/><path d="M10 12h6v4h-6Zm0 0" style="stroke:none;fill-rule:nonzero;fill:#fff;fill-opacity:1"/><path d="M12 12a1.999 1.999 0 1 1-4 0 1.999 1.999 0 1 1 4 0Zm0 0" style="stroke:none;fill-rule:nonzero;fill:#fff;fill-opacity:1"/><path d="M12 16a1.998 1.998 0 0 1-2 1.996A1.998 1.998 0 1 1 10 14a2 2 0 0 1 2 2Zm4 0h5.996v3.996H16Zm0 0" style="stroke:none;fill-rule:nonzero;fill:#fff;fill-opacity:1"/></svg>