<svg xmlns="http://www.w3.org/2000/svg" width="32" height="32"><path d="M2 2h27.996v13H2Zm0 15h27.996v13H2Zm0 0" style="stroke:none;fill-rule:nonzero;fill:#000;fill-opacity:.996078"/><path d="M4 4h1.996v8.996H4Zm0 0" style="stroke:none;fill-rule:nonzero;fill:#0000c0;fill-opacity:.996078"/><path d="M5.996 5.996h2v7h-2Zm0 0" style="stroke:none;fill-rule:nonzero;fill:maroon;fill-opacity:.996078"/><path d="M8 8h2v5H8Zm0 0" style="stroke:none;fill-rule:nonzero;fill:green;fill-opacity:.996078"/><path d="M10 4h2v8.996h-2Zm0 0" style="stroke:none;fill-rule:nonzero;fill:#0000c0;fill-opacity:.996078"/><path d="M12 5.996h2v7h-2Zm0 0" style="stroke:none;fill-rule:nonzero;fill:maroon;fill-opacity:.996078"/><path d="M14 8h2v5h-2Zm0 0" style="stroke:none;fill-rule:nonzero;fill:green;fill-opacity:.996078"/><path d="M16 4h1.996v8.996H16Zm0 0" style="stroke:none;fill-rule:nonzero;fill:#0000c0;fill-opacity:.996078"/><path d="M17.996 5.996h2v7h-2Zm0 0" style="stroke:none;fill-rule:nonzero;fill:maroon;fill-opacity:.996078"/><path d="M20 8h2v5h-2Zm0 0" style="stroke:none;fill-rule:nonzero;fill:green;fill-opacity:.996078"/><path d="M22 4h2v8.996h-2Zm0 0" style="stroke:none;fill-rule:nonzero;fill:#0000c0;fill-opacity:.996078"/><path d="M24 5.996h2v7h-2Zm0 0" style="stroke:none;fill-rule:nonzero;fill:maroon;fill-opacity:.996078"/><path d="M26 8h1.996v5H26Zm0 0" style="stroke:none;fill-rule:nonzero;fill:green;fill-opacity:.996078"/><path d="M24 22.996h-2v5h2Zm0 0" style="stroke:none;fill-rule:nonzero;fill:#0000c0;fill-opacity:.996078"/><path d="M27.996 19H26v8.996h1.996Zm0 0" style="stroke:none;fill-rule:nonzero;fill:maroon;fill-opacity:.996078"/><path d="M26 21h-2v6.996h2Zm0 0" style="stroke:none;fill-rule:nonzero;fill:green;fill-opacity:.996078"/><path d="M17.996 22.996H16v5h1.996Zm0 0" style="stroke:none;fill-rule:nonzero;fill:#0000c0;fill-opacity:.996078"/><path d="M22 19h-2v8.996h2Zm0 0" style="stroke:none;fill-rule:nonzero;fill:maroon;fill-opacity:.996078"/><path d="M20 21h-2v6.996h2Zm0 0" style="stroke:none;fill-rule:nonzero;fill:green;fill-opacity:.996078"/><path d="M12 22.996h-2v5h2Zm0 0" style="stroke:none;fill-rule:nonzero;fill:#0000c0;fill-opacity:.996078"/><path d="M16 19h-2v8.996h2Zm0 0" style="stroke:none;fill-rule:nonzero;fill:maroon;fill-opacity:.996078"/><path d="M14 21h-2v6.996h2Zm0 0" style="stroke:none;fill-rule:nonzero;fill:green;fill-opacity:.996078"/><path d="M6 22.996H4.004v5H6Zm0 0" style="stroke:none;fill-rule:nonzero;fill:#0000c0;fill-opacity:.996078"/><path d="M10 19H8v8.996h2Zm0 0" style="stroke:none;fill-rule:nonzero;fill:maroon;fill-opacity:.996078"/><path d="M8 21H6v6.996h2Zm0 0" style="stroke:none;fill-rule:nonzero;fill:green;fill-opacity:.996078"/></svg>