<svg width="32" height="32" viewBox="0 0 8.467 8.467" xmlns:xlink="http://www.w3.org/1999/xlink" xmlns="http://www.w3.org/2000/svg"><defs><linearGradient id="c"><stop style="stop-color:#00f;stop-opacity:1" offset="0"/><stop style="stop-color:#000040;stop-opacity:1" offset="1"/></linearGradient><linearGradient id="b"><stop style="stop-color:green;stop-opacity:1" offset="0"/><stop style="stop-color:#002000;stop-opacity:1" offset="1"/></linearGradient><linearGradient id="a"><stop style="stop-color:#c00000;stop-opacity:1" offset="0"/><stop style="stop-color:#300000;stop-opacity:1" offset="1"/></linearGradient><linearGradient xlink:href="#a" id="d" x1="1.058" y1="2.249" x2="3.175" y2="2.249" gradientUnits="userSpaceOnUse"/><linearGradient xlink:href="#b" id="e" gradientUnits="userSpaceOnUse" x1="1.058" y1="2.249" x2="3.175" y2="2.249" gradientTransform="translate(2.117)"/><linearGradient xlink:href="#c" id="f" gradientUnits="userSpaceOnUse" gradientTransform="translate(4.234)" x1="1.058" y1="2.249" x2="3.175" y2="2.249"/><linearGradient xlink:href="#a" id="g" gradientUnits="userSpaceOnUse" x1="1.058" y1="2.249" x2="3.175" y2="2.249" gradientTransform="translate(4.234 3.969)"/><linearGradient xlink:href="#c" id="i" gradientUnits="userSpaceOnUse" gradientTransform="translate(2.117 3.969)" x1="1.058" y1="2.249" x2="3.175" y2="2.249"/><linearGradient xlink:href="#b" id="h" gradientUnits="userSpaceOnUse" gradientTransform="translate(0 3.969)" x1="1.058" y1="2.249" x2="3.175" y2="2.249"/></defs><path style="fill:#000;fill-opacity:.996078;stroke:none;stroke-width:0;stroke-dasharray:none" d="M.529.529h7.408v3.44H.529zm0 3.969h7.408v3.44H.529z"/><path style="fill:url(#d);stroke-width:0;stop-color:#000;fill-opacity:1" d="M1.058 1.058h2.117v2.381H1.058z"/><path style="fill:url(#e);fill-opacity:1;stroke-width:0;stop-color:#000" d="M3.175 1.058h2.117v2.381H3.175z"/><path style="fill:url(#f);fill-opacity:1;stroke-width:0;stop-color:#000" d="M5.292 1.058h2.117v2.381H5.292z"/><path style="fill:url(#g);fill-opacity:1;stroke-width:0;stop-color:#000" d="M5.292 5.027h2.117v2.381H5.292z"/><path style="fill:url(#h);fill-opacity:1;stroke-width:0;stop-color:#000" d="M1.058 5.027h2.117v2.381H1.058z"/><path style="fill:url(#i);fill-opacity:1;stroke-width:0;stop-color:#000" d="M3.175 5.027h2.117v2.381H3.175z"/></svg>