<svg xmlns="http://www.w3.org/2000/svg" width="32" height="32"><path d="M2 2h28v13H2Zm0 15h28v13H2Zm0 0" style="stroke:none;fill-rule:nonzero;fill:#000;fill-opacity:1"/><path d="M4 4h2v9H4Zm0 0" style="stroke:none;fill-rule:nonzero;fill:#0000c0;fill-opacity:1"/><path d="M6 6h2v7H6Zm0 0" style="stroke:none;fill-rule:nonzero;fill:maroon;fill-opacity:1"/><path d="M8 8h2v5H8Zm0 0" style="stroke:none;fill-rule:nonzero;fill:green;fill-opacity:1"/><path d="M10 4h2v9h-2Zm0 0" style="stroke:none;fill-rule:nonzero;fill:#0000c0;fill-opacity:1"/><path d="M12 6h2v7h-2Zm0 0" style="stroke:none;fill-rule:nonzero;fill:maroon;fill-opacity:1"/><path d="M14 8h2v5h-2Zm0 0" style="stroke:none;fill-rule:nonzero;fill:green;fill-opacity:1"/><path d="M16 4h2v9h-2Zm0 0" style="stroke:none;fill-rule:nonzero;fill:#0000c0;fill-opacity:1"/><path d="M18 6h2v7h-2Zm0 0" style="stroke:none;fill-rule:nonzero;fill:maroon;fill-opacity:1"/><path d="M20 8h2v5h-2Zm0 0" style="stroke:none;fill-rule:nonzero;fill:green;fill-opacity:1"/><path d="M22 4h2v9h-2Zm0 0" style="stroke:none;fill-rule:nonzero;fill:#0000c0;fill-opacity:1"/><path d="M24 6h2v7h-2Zm0 0" style="stroke:none;fill-rule:nonzero;fill:maroon;fill-opacity:1"/><path d="M26 8h2v5h-2Zm0 0" style="stroke:none;fill-rule:nonzero;fill:green;fill-opacity:1"/><path d="M24 23h-2v5h2Zm0 0" style="stroke:none;fill-rule:nonzero;fill:#0000c0;fill-opacity:1"/><path d="M28 19h-2v9h2Zm0 0" style="stroke:none;fill-rule:nonzero;fill:maroon;fill-opacity:1"/><path d="M26 21h-2v7h2Zm0 0" style="stroke:none;fill-rule:nonzero;fill:green;fill-opacity:1"/><path d="M18 23h-2v5h2Zm0 0" style="stroke:none;fill-rule:nonzero;fill:#0000c0;fill-opacity:1"/><path d="M22 19h-2v9h2Zm0 0" style="stroke:none;fill-rule:nonzero;fill:maroon;fill-opacity:1"/><path d="M20 21h-2v7h2Zm0 0" style="stroke:none;fill-rule:nonzero;fill:green;fill-opacity:1"/><path d="M12 23h-2v5h2Zm0 0" style="stroke:none;fill-rule:nonzero;fill:#0000c0;fill-opacity:1"/><path d="M16 19h-2v9h2Zm0 0" style="stroke:none;fill-rule:nonzero;fill:maroon;fill-opacity:1"/><path d="M14 21h-2v7h2Zm0 0" style="stroke:none;fill-rule:nonzero;fill:green;fill-opacity:1"/><path d="M6 23H4v5h2Zm0 0" style="stroke:none;fill-rule:nonzero;fill:#0000c0;fill-opacity:1"/><path d="M10 19H8v9h2Zm0 0" style="stroke:none;fill-rule:nonzero;fill:maroon;fill-opacity:1"/><path d="M8 21H6v7h2Zm0 0" style="stroke:none;fill-rule:nonzero;fill:green;fill-opacity:1"/></svg>