<svg xmlns="http://www.w3.org/2000/svg" xmlns:xlink="http://www.w3.org/1999/xlink" width="32" height="32" viewBox="0 0 8.467 8.467"><defs><linearGradient id="a"><stop offset="0" style="stop-color:#000;stop-opacity:1"/><stop offset="1" style="stop-color:#515151;stop-opacity:1"/></linearGradient><linearGradient xlink:href="#a" id="b" x1="1.058" x2="3.175" y1="2.249" y2="2.249" gradientUnits="userSpaceOnUse"/><linearGradient xlink:href="#a" id="c" x1="1.058" x2="3.175" y1="2.249" y2="2.249" gradientTransform="translate(2.117)" gradientUnits="userSpaceOnUse"/><linearGradient xlink:href="#a" id="d" x1="1.058" x2="3.175" y1="2.249" y2="2.249" gradientTransform="translate(4.234)" gradientUnits="userSpaceOnUse"/><linearGradient xlink:href="#a" id="e" x1="1.058" x2="3.175" y1="2.249" y2="2.249" gradientTransform="translate(0 3.969)" gradientUnits="userSpaceOnUse"/><linearGradient xlink:href="#a" id="f" x1="1.058" x2="3.175" y1="2.249" y2="2.249" gradientTransform="translate(2.117 3.969)" gradientUnits="userSpaceOnUse"/><linearGradient xlink:href="#a" id="g" x1="1.058" x2="3.175" y1="2.249" y2="2.249" gradientTransform="translate(4.234 3.969)" gradientUnits="userSpaceOnUse"/></defs><path d="M.529.529h7.408v3.44H.529zm0 3.969h7.408v3.44H.529z" style="fill:#000;fill-opacity:.996078;stroke:none;stroke-width:0;stroke-dasharray:none"/><path d="M1.058 1.058h2.117v2.381H1.058z" style="fill:url(#b);stroke-width:0;stop-color:#000;fill-opacity:1"/><path d="M3.175 1.058h2.117v2.381H3.175z" style="fill:url(#c);fill-opacity:1;stroke-width:0;stop-color:#000"/><path d="M5.292 1.058h2.117v2.381H5.292z" style="fill:url(#d);fill-opacity:1;stroke-width:0;stop-color:#000"/><path d="M1.058 5.027h2.117v2.381H1.058z" style="fill:url(#e);fill-opacity:1;stroke-width:0;stop-color:#000"/><path d="M3.175 5.027h2.117v2.381H3.175z" style="fill:url(#f);fill-opacity:1;stroke-width:0;stop-color:#000"/><path d="M5.292 5.027h2.117v2.381H5.292z" style="fill:url(#g);fill-opacity:1;stroke-width:0;stop-color:#000"/></svg>