<svg xmlns="http://www.w3.org/2000/svg" width="32" height="32"><defs><linearGradient id="a" x1="1.058" x2="3.175" y1="2.249" y2="2.249" gradientTransform="rotate(.042) scale(3.77938)" gradientUnits="userSpaceOnUse"><stop offset="0" style="stop-color:#c00000;stop-opacity:1"/><stop offset="1" style="stop-color:#300000;stop-opacity:1"/></linearGradient><linearGradient id="b" x1="1.058" x2="3.175" y1="2.249" y2="2.249" gradientTransform="translate(8) scale(3.77938)" gradientUnits="userSpaceOnUse"><stop offset="0" style="stop-color:green;stop-opacity:1"/><stop offset="1" style="stop-color:#002000;stop-opacity:1"/></linearGradient><linearGradient id="c" x1="1.058" x2="3.175" y1="2.249" y2="2.249" gradientTransform="translate(16.002) scale(3.77938)" gradientUnits="userSpaceOnUse"><stop offset="0" style="stop-color:#00f;stop-opacity:1"/><stop offset="1" style="stop-color:#000040;stop-opacity:1"/></linearGradient><linearGradient id="d" x1="1.058" x2="3.175" y1="2.249" y2="2.249" gradientTransform="translate(16.002 15) scale(3.77938)" gradientUnits="userSpaceOnUse"><stop offset="0" style="stop-color:#c00000;stop-opacity:1"/><stop offset="1" style="stop-color:#300000;stop-opacity:1"/></linearGradient><linearGradient id="e" x1="1.058" x2="3.175" y1="2.249" y2="2.249" gradientTransform="translate(0 15) scale(3.77938)" gradientUnits="userSpaceOnUse"><stop offset="0" style="stop-color:green;stop-opacity:1"/><stop offset="1" style="stop-color:#002000;stop-opacity:1"/></linearGradient><linearGradient id="f" x1="1.058" x2="3.175" y1="2.249" y2="2.249" gradientTransform="translate(8 15) scale(3.77938)" gradientUnits="userSpaceOnUse"><stop offset="0" style="stop-color:#00f;stop-opacity:1"/><stop offset="1" style="stop-color:#000040;stop-opacity:1"/></linearGradient></defs><path d="M2 2h27.996v13H2Zm0 15h27.996v13H2Zm0 0" style="stroke:none;fill-rule:nonzero;fill:#000;fill-opacity:.996078"/><path d="M4 4h8v8.996H4Zm0 0" style="stroke:none;fill-rule:nonzero;fill:url(#a)"/><path d="M12 4h8v8.996h-8Zm0 0" style="stroke:none;fill-rule:nonzero;fill:url(#b)"/><path d="M20 4h8v8.996h-8Zm0 0" style="stroke:none;fill-rule:nonzero;fill:url(#c)"/><path d="M20 19h8v8.996h-8Zm0 0" style="stroke:none;fill-rule:nonzero;fill:url(#d)"/><path d="M4 19h8v8.996H4Zm0 0" style="stroke:none;fill-rule:nonzero;fill:url(#e)"/><path d="M12 19h8v8.996h-8Zm0 0" style="stroke:none;fill-rule:nonzero;fill:url(#f)"/></svg>