<svg xmlns="http://www.w3.org/2000/svg" width="32" height="32"><path d="M0 0h2v2H0Zm4 0h2v2H4Zm4 0h2v2H8Zm4 0h2v2h-2Zm4 0h2v2h-2Zm4 0h2v2h-2Zm4 0h2v2h-2Zm4 0h2v2h-2ZM0 4h2v2H0Zm0 4h2v2H0Zm30-6h2v2h-2Zm0 4h2v2h-2Zm0 4h2v2h-2Zm0 4h2v2h-2Zm0 4h2v2h-2ZM0 12h2v2H0Zm0 4h2v2H0Zm0 4h2v2H0Zm0 4h2v2H0Zm0 4h2v2H0Zm30-6h2v2h-2ZM2 30h2v2H2Zm4 0h2v2H6Zm4 0h2v2h-2Zm4 0h2v2h-2Zm4 0h2v2h-2Zm4 0h2v2h-2Zm4 0h2v2h-2Zm4 0h2v2h-2Zm0-4h2v2h-2Zm0 0" style="stroke:none;fill-rule:nonzero;fill:#000;fill-opacity:1"/></svg>