<svg xmlns="http://www.w3.org/2000/svg" width="32" height="32"><path d="M16 30a2 2 0 0 0-2 2h4a2 2 0 0 0-2-2Zm-16-.004V32h2.004A2.006 2.006 0 0 0 0 29.996Zm32 0V32h-2.004c0-1.105.899-2.004 2.004-2.004ZM16 2.004A2.005 2.005 0 0 1 14 0h3.996c0 1.105-.894 2-1.996 2.004Zm-16 0V0h2.004A2.006 2.006 0 0 1 0 2.004Zm32 0V0h-2.004c0 1.105.899 2.004 2.004 2.004ZM30 16c.004-1.105.898-2 2-2v3.996c-1.105 0-2-.894-2.004-1.996ZM2.004 16A2.005 2.005 0 0 0 0 14v3.996c1.105 0 2-.894 2.004-1.996Zm0 0" style="stroke:none;fill-rule:nonzero;fill:#000;fill-opacity:1"/></svg>