<svg xmlns="http://www.w3.org/2000/svg" width="32" height="32"><path d="M0 29.996V32h2.004A2.006 2.006 0 0 0 0 29.996Zm32 0V32h-2.004c0-1.105.899-2.004 2.004-2.004ZM16 4a4 4 0 0 1-4-4h8a4 4 0 0 1-4 4ZM0 2.004V0h2.004A2.006 2.006 0 0 1 0 2.004Zm32 0V0h-2.004c0 1.105.899 2.004 2.004 2.004ZM16 27.996A3.999 3.999 0 0 0 12 32h8a4.004 4.004 0 0 0-4-4.004ZM4 16a4 4 0 0 0-4-4v8a4 4 0 0 0 4-4Zm23.996 0A3.999 3.999 0 0 1 32 12v8a4.004 4.004 0 0 1-4.004-4Zm0 0" style="stroke:none;fill-rule:nonzero;fill:#000;fill-opacity:1"/></svg>