<svg xmlns="http://www.w3.org/2000/svg" width="32" height="32"><path d="M16 18c-2.25 0-4 1.75-4 4v2a4 4 0 0 0 8 0v-2a4 4 0 0 0-4-4Zm0 2c1 0 2 1 2 2v2c0 .75-.25 1.5-1 1.75a2 2 0 0 1-2 0A2 2 0 0 1 14 24v-2a2 2 0 0 1 2-2Zm0-16c-2.25 0-4 1.75-4 4v2c0 2.25 1.75 4 4 4s4-1.75 4-4V8a4 4 0 0 0-4-4Zm0 2c1 0 2 1 2 2v2a2 2 0 0 1-2 2 2 2 0 0 1-2-2V8a2 2 0 0 1 2-2Zm0 0" style="stroke:none;fill-rule:nonzero;fill:#666;fill-opacity:1"/><path d="M15 25h2v7h-2Zm0-25h2v7h-2Zm0 11h2v10h-2Zm0 0" style="stroke:none;fill-rule:nonzero;fill:#b3b3b3;fill-opacity:1"/></svg>