<svg xmlns="http://www.w3.org/2000/svg" width="32" height="32"><path d="M2 0h7v2H2ZM0 2h2v7H0Zm0 28h2v2H0Zm22.996 0h7v2h-7ZM30 22.996h2v7h-2ZM30 0h2v2h-2ZM0 16h2v6.996H0ZM9 2v7h7V2Zm2 2h3v3h-3ZM9 30h7v2H9Zm7-30h6.996v2H16Zm14 9h2v7h-2ZM2.004 9v7h6.992V9ZM4 11h3v3H4Zm18.996-8.996v6.992h7V2.004ZM25 4h2.996v3H25Zm-9 5v7h6.996V9Zm2 2h3v3h-3.004Zm-9 5v6.996h7V16Zm2 2h3v3h-3.004Zm-8.996 4.996v7h6.992v-7ZM4 25h3v2.996H4Zm18.996-9v6.996h7V16ZM25 18h2.996v3H25Zm-9 4.996v7h6.996v-7ZM18 25h3v2.996h-3.004Zm0 0" style="stroke:none;fill-rule:nonzero;fill:#000;fill-opacity:1"/></svg>