<svg xmlns="http://www.w3.org/2000/svg" width="32" height="32"><path d="M0 8v8h2.004v-.172C1.98 11.477 1.09 8 0 8Zm16-5.996V16h14v-.36C29.805 8.05 23.594 2 16 2.005Zm0 0" style="stroke:none;fill-rule:nonzero;fill:#000;fill-opacity:1"/><path d="M24 0a8 8 0 0 0 8 8V0Zm8 24v-8h-2.004v.172C30.02 20.523 30.91 24 32 24Zm-16 6V16H2.004v.36C2.199 23.952 8.41 30.003 16 30ZM8 .004l8-.008V2h-.172C11.473 1.98 7.992 1.09 8 0Zm16 31.984-8 .008v-2.004h.172c4.351.02 7.828.906 7.828 1.996Zm0 0" style="stroke:none;fill-rule:nonzero;fill:#000;fill-opacity:1"/><path d="M8 32a8 8 0 0 0-8-8v8Zm0 0" style="stroke:none;fill-rule:nonzero;fill:#000;fill-opacity:1"/></svg>