<svg xmlns="http://www.w3.org/2000/svg" width="32" height="32"><path d="M32 8v8h-2.004v-.172C30.02 11.477 30.91 8 32 8ZM16 2.004V16H2.004v-.36C2.199 8.05 8.406 2.005 16 2.005Zm0 0" style="stroke:none;fill-rule:nonzero;fill:#000;fill-opacity:1"/><path d="M8 0a8 8 0 0 1-8 8V0ZM0 24v-8h2.004v.172C1.98 20.523 1.09 24 0 24Zm16 6V16h14v.36c-.195 7.593-6.406 13.644-14 13.64ZM24 .004l-8-.008V2h.172c4.355-.02 7.836-.91 7.828-2ZM8 31.988l8 .008v-2.004h-.172c-4.351.02-7.828.906-7.828 1.996Zm0 0" style="stroke:none;fill-rule:nonzero;fill:#000;fill-opacity:1"/><path d="M24 32a8 8 0 0 1 8-8v8Zm0 0" style="stroke:none;fill-rule:nonzero;fill:#000;fill-opacity:1"/></svg>