<svg xmlns="http://www.w3.org/2000/svg" width="32" height="32"><path d="M2 0h2v2H2Zm4 0h2v2H6Zm4 0h2v2h-2Zm4 0h2v2h-2Zm4 0h2v2h-2Zm4 0h2v2h-2Zm4 0h2v2h-2Zm4 0h2v2h-2ZM0 2h2v2H0Zm4 0h2v2H4Zm4 0h2v2H8Zm4 0h2v2h-2Zm4 0h2v2h-2Zm4 0h2v2h-2Zm4 0h2v2h-2Zm4 0h2v2h-2ZM2 4h2v2H2Zm4 0h2v2H6Zm4 0h2v2h-2Zm4 0h2v2h-2Zm4 0h2v2h-2Zm4 0h2v2h-2Zm4 0h2v2h-2Zm4 0h2v2h-2ZM0 6h2v2H0Zm4 0h2v2H4Zm4 0h2v2H8Zm4 0h2v2h-2Zm4 0h2v2h-2Zm4 0h2v2h-2Zm4 0h2v2h-2Zm4 0h2v2h-2ZM2 8h2v2H2Zm4 0h2v2H6Zm4 0h2v2h-2Zm4 0h2v2h-2Zm4 0h2v2h-2Zm4 0h2v2h-2Zm4 0h2v2h-2Zm4 0h2v2h-2ZM0 10h2v2H0Zm4 0h2v2H4Zm4 0h2v2H8Zm4 0h2v2h-2Zm4 0h2v2h-2Zm4 0h2v2h-2Zm4 0h2v2h-2Zm4 0h2v2h-2ZM2 12h2v2H2Zm4 0h2v2H6Zm4 0h2v2h-2Zm4 0h2v2h-2Zm4 0h2v2h-2Zm4 0h2v2h-2Zm4 0h2v2h-2Zm4 0h2v2h-2ZM0 14h2v2H0Zm4 0h2v2H4Zm4 0h2v2H8Zm4 0h2v2h-2Zm4 0h2v2h-2Zm4 0h2v2h-2Zm4 0h2v2h-2Zm4 0h2v2h-2ZM2 16h2v2H2Zm4 0h2v2H6Zm4 0h2v2h-2Zm4 0h2v2h-2Zm4 0h2v2h-2Zm4 0h2v2h-2Zm4 0h2v2h-2Zm4 0h2v2h-2ZM0 18h2v2H0Zm4 0h2v2H4Zm4 0h2v2H8Zm4 0h2v2h-2Zm4 0h2v2h-2Zm4 0h2v2h-2Zm4 0h2v2h-2Zm4 0h2v2h-2ZM2 20h2v2H2Zm4 0h2v2H6Zm4 0h2v2h-2Zm4 0h2v2h-2Zm4 0h2v2h-2Zm4 0h2v2h-2Zm4 0h2v2h-2Zm4 0h2v2h-2ZM0 22h2v2H0Zm4 0h2v2H4Zm4 0h2v2H8Zm4 0h2v2h-2Zm4 0h2v2h-2Zm4 0h2v2h-2Zm4 0h2v2h-2Zm4 0h2v2h-2ZM2 24h2v2H2Zm4 0h2v2H6Zm4 0h2v2h-2Zm4 0h2v2h-2Zm4 0h2v2h-2Zm4 0h2v2h-2Zm4 0h2v2h-2Zm4 0h2v2h-2ZM0 26h2v2H0Zm4 0h2v2H4Zm4 0h2v2H8Zm4 0h2v2h-2Zm4 0h2v2h-2Zm4 0h2v2h-2Zm4 0h2v2h-2Zm4 0h2v2h-2ZM2 28h2v2H2Zm4 0h2v2H6Zm4 0h2v2h-2Zm4 0h2v2h-2Zm4 0h2v2h-2Zm4 0h2v2h-2Zm4 0h2v2h-2Zm4 0h2v2h-2ZM0 30h2v2H0Zm4 0h2v2H4Zm4 0h2v2H8Zm4 0h2v2h-2Zm4 0h2v2h-2Zm4 0h2v2h-2Zm4 0h2v2h-2Zm4 0h2v2h-2Zm0 0" style="stroke:none;fill-rule:nonzero;fill:#000;fill-opacity:1"/></svg>