<svg xmlns="http://www.w3.org/2000/svg" width="32" height="32"><path d="M32 8v8h-2v-.172C30.02 11.477 30.91 8 32 8ZM16 2v14H2v-.36C2.195 8.05 8.406 2 16 2Zm0 0" style="fill:#000;fill-opacity:1;fill-rule:nonzero;stroke:none"/><path d="M8 0a8 8 0 0 1-8 8V0ZM0 24v-8h2v.172C2 20.523 1.09 24 0 24Zm16 6V16h14v.36C29.801 23.952 23.59 30 16 30Zm8-30h-8v2h.172C20.527 1.98 24 1.09 24 0ZM8 31.984h8v-2h-.172c-4.351.02-7.828.906-7.828 2Zm0 0" style="fill:#000;fill-opacity:1;fill-rule:nonzero;stroke:none"/><path d="M24 32a8 8 0 0 1 8-8v8zm0 0" style="fill:#000;fill-opacity:1;fill-rule:nonzero;stroke:none"/></svg>