<svg xmlns="http://www.w3.org/2000/svg" width="32" height="32"><path d="M0 8v8h2v-.172C1.98 11.477 1.09 8 0 8Zm16-6v14h14v-.36C29.805 8.05 23.594 2 16 2Zm0 0" style="stroke:none;fill-rule:nonzero;fill:#000;fill-opacity:1"/><path d="M24 0a8 8 0 0 0 8 8V0Zm8 24v-8h-2v.172c0 4.351.91 7.828 2 7.828Zm-16 6V16H2v.36C2.199 23.952 8.41 30 16 30ZM8 0h8v2h-.172C11.473 1.98 8 1.09 8 0Zm16 31.984h-8v-2h.172c4.351.02 7.828.906 7.828 2Zm0 0" style="stroke:none;fill-rule:nonzero;fill:#000;fill-opacity:1"/><path d="M8 32a8 8 0 0 0-8-8v8Zm0 0" style="stroke:none;fill-rule:nonzero;fill:#000;fill-opacity:1"/></svg>