<svg xmlns="http://www.w3.org/2000/svg" width="32" height="32"><path d="M2.004 16v-5a8.993 8.993 0 0 1 8.992-9h10.008a8.992 8.992 0 0 1 9 9L30 21Zm0 0" style="stroke:none;fill-rule:nonzero;fill:#77f;fill-opacity:1"/><path d="M2.004 10.996V21c-.004 4.965 4.023 8.996 8.992 9h10a8.992 8.992 0 0 0 9-9Zm0 0" style="stroke:none;fill-rule:nonzero;fill:#000;fill-opacity:1"/><path d="M24 9a4 4 0 0 1-4 3.996A4 4 0 0 1 16 9a4 4 0 0 1 8 0Zm0 0" style="stroke:none;fill-rule:nonzero;fill:#ff0;fill-opacity:1"/><path d="m8 21 3 3-1 4 3-3 4 1-3-3 1-4-3 3Zm0 0" style="stroke:none;fill-rule:nonzero;fill:#fff;fill-opacity:1"/></svg>