<svg xmlns="http://www.w3.org/2000/svg" width="32" height="32" viewBox="0 0 8.467 8.467"><path d="M1.324 1.323C.878 1.77.53 2.279.531 2.911v1.322H.529v1.323a2.381 2.381 0 0 0 2.382 2.382h2.646c.632 0 1.142-.347 1.588-.794" style="fill:#77f;fill-opacity:1;stroke-width:0"/><path d="M7.145 7.144c.446-.447.792-.957.792-1.588V4.233h.002V2.911A2.381 2.381 0 0 0 5.559.529H2.913c-.632 0-1.142.347-1.589.794" style="fill:#000;fill-opacity:1;stroke-width:0"/><circle cx="-2.647" cy="-5.821" r="1.058" style="fill:#ff0;fill-opacity:1;stroke-width:.0305527;stop-color:#000" transform="scale(-1)"/><path d="m6.88 3.704-.529-1.058.53-1.058-1.059.529-1.058-.53.529 1.059-.53 1.058 1.06-.529z" style="fill:#fff;stroke:none;stroke-width:.264594px;stroke-linecap:butt;stroke-linejoin:miter;stroke-opacity:1"/></svg>