<svg xmlns="http://www.w3.org/2000/svg" width="32" height="32"><path d="M29 5c1.094 1.535 1 4.117 1 6v10a9 9 0 0 1-9 9H11c-2.898 0-6.309-.645-8-3" style="stroke:none;fill-rule:nonzero;fill:#77f;fill-opacity:1"/><path d="M3 27c-1.094-1.531-1-4.117-1-6V11a9 9 0 0 1 9-9h10c2.899 0 6.309.645 8 3" style="stroke:none;fill-rule:nonzero;fill:#000;fill-opacity:1"/><path d="M25 22a4 4 0 0 0-4-4 4 4 0 0 0 0 8 4 4 0 0 0 4-4Zm0 0" style="stroke:none;fill-rule:nonzero;fill:#ff0;fill-opacity:1"/><path d="m7 13 2-3-1-4 3 2 4-1-2 3 1.11 3.7L11 12Zm0 0" style="stroke:none;fill-rule:nonzero;fill:#fff;fill-opacity:1"/></svg>