<svg xmlns="http://www.w3.org/2000/svg" width="32" height="32"><path d="M2 13v-2c0-4.969 4.03-9 9-9h10a9 9 0 0 1 9 9v8zm0 0" style="fill:#77f;fill-opacity:1;fill-rule:nonzero;stroke:none"/><path d="M2 13v8c0 4.965 4.027 9 9 9h10a9 9 0 0 0 9-9v-2zm0 0" style="fill:#000;fill-opacity:1;fill-rule:nonzero;stroke:none"/><path d="M22 8a4 4 0 1 1-8 0 4 4 0 0 1 8 0zm0 0" style="fill:#ff0;fill-opacity:1;fill-rule:nonzero;stroke:none"/><path d="M9.535 22.867 13 25v4l2-4h4l-4-2v-4l-2 4zm0 0" style="fill:#fff;fill-opacity:1;fill-rule:nonzero;stroke:none"/></svg>