<svg xmlns="http://www.w3.org/2000/svg" width="32" height="32"><path d="M30 9c0-4-4.024-7-9-7H11a9 9 0 0 0-9 9v12Zm0 0" style="stroke:none;fill-rule:nonzero;fill:#77f;fill-opacity:1"/><path d="M30 9v12c0 4.965-4.024 9-9 9H11c-4.973 0-9-3-9-7Zm0 0" style="stroke:none;fill-rule:nonzero;fill:#000;fill-opacity:1"/><path d="M7.012 9a4 4 0 0 0 4 4 4 4 0 1 0-4-4Zm0 0" style="stroke:none;fill-rule:nonzero;fill:#ff0;fill-opacity:1"/><path d="m25 20-3.172 2.91 1.18 4.09-3-3-4 2 3.062-3.645L18 18l2.722 3.246Zm0 0" style="stroke:none;fill-rule:nonzero;fill:#fff;fill-opacity:1"/></svg>