<svg xmlns="http://www.w3.org/2000/svg" width="32" height="32"><path d="M17 30h4c4.969 0 9-4.03 9-9V11a9 9 0 0 0-9-9h-6zm0 0" style="fill:#77f;fill-opacity:1;fill-rule:nonzero;stroke:none"/><path d="M17 30h-6c-4.965 0-9-4.027-9-9V11a9 9 0 0 1 9-9h4zm0 0" style="fill:#000;fill-opacity:1;fill-rule:nonzero;stroke:none"/><path d="M24 11a4 4 0 0 0 0 8 4 4 0 0 0 4-4 4 4 0 0 0-4-4zm0 0" style="fill:#ff0;fill-opacity:1;fill-rule:nonzero;stroke:none"/><path d="m9 22-2-4H3l4-2v-4l2 4h4l-4 2zm0 0" style="fill:#fff;fill-opacity:1;fill-rule:nonzero;stroke:none"/></svg>