<svg xmlns="http://www.w3.org/2000/svg" width="32" height="32"><path d="M27 3c-1.535-1.094-4.117-1-6-1H11a9 9 0 0 0-9 9v10c0 2.898.645 6.309 3 8" style="fill:#77f;fill-opacity:1;fill-rule:nonzero;stroke:none"/><path d="M5 29c1.531 1.094 4.117 1 6 1h10a9 9 0 0 0 9-9V11c0-2.899-.645-6.309-3-8" style="fill:#000;fill-opacity:1;fill-rule:nonzero;stroke:none"/><path d="M10 7a4 4 0 0 1 4 4 4 4 0 0 1-8 0 4 4 0 0 1 4-4zm0 0" style="fill:#ff0;fill-opacity:1;fill-rule:nonzero;stroke:none"/><path d="m19 25 3-2 4 1-2-3 1-4-3 2-3.7-1.11L20 21zm0 0" style="fill:#fff;fill-opacity:1;fill-rule:nonzero;stroke:none"/></svg>