<svg xmlns="http://www.w3.org/2000/svg" width="32" height="32" viewBox="0 0 8.467 8.467"><path d="M7.939 4.233v1.323a2.381 2.381 0 0 1-2.38 2.382H2.912A2.381 2.381 0 0 1 .53 5.556V4.233Z" style="fill:#77f;fill-opacity:1;stroke-width:0"/><path d="M7.939 4.233V2.911A2.381 2.381 0 0 0 5.56.529H2.914A2.381 2.381 0 0 0 .532 2.911v1.322z" style="fill:#000;stroke-width:0"/><circle cx="-4.235" cy="-6.35" r="1.058" style="fill:#ff0;fill-opacity:1;stroke-width:.0305527;stop-color:#000" transform="scale(-1)"/><path d="M5.559 2.117 4.5 1.852 4.235.794l-.264 1.058-1.058.265 1.058.264.264 1.059.265-1.059Z" style="fill:#fff;stroke:none;stroke-width:.264594px;stroke-linecap:butt;stroke-linejoin:miter;stroke-opacity:1"/></svg>