<svg xmlns="http://www.w3.org/2000/svg" width="32" height="32" viewBox="0 0 8.467 8.467"><path d="M1.323 7.673c.406.29 1.09.263 1.588.263h1.322v.002h1.323a2.381 2.381 0 0 0 2.382-2.382V2.91c0-.767-.17-1.67-.793-2.117" style="fill:#77f;fill-opacity:1;stroke:#000;stroke-width:0;stroke-dasharray:none;stroke-opacity:1"/><path d="M7.145.793C6.74.503 6.055.53 5.556.53H4.233V.528H2.911A2.381 2.381 0 0 0 .53 2.908v2.646c0 .767.171 1.67.794 2.119" style="fill:#000;fill-opacity:1;stroke:#000;stroke-width:0;stroke-dasharray:none;stroke-opacity:1"/><circle cx="5.556" cy="-5.821" r="1.058" style="fill:#ff0;fill-opacity:1;stroke-width:.0305527;stop-color:#000" transform="rotate(90)"/><path d="m3.44 1.851-.794.53-1.058-.265.53.794-.266 1.058.794-.53.98.293-.45-.82z" style="fill:#fff;stroke:none;stroke-width:.264594px;stroke-linecap:butt;stroke-linejoin:miter;stroke-opacity:1"/></svg>