<svg xmlns="http://www.w3.org/2000/svg" width="32" height="32"><path d="M5 3c1.54-1.094 4.121-.996 6-.996h10a8.993 8.993 0 0 1 9 8.992V21c0 2.898-.64 6.309-3 8" style="stroke:none;fill-rule:nonzero;fill:#77f;fill-opacity:1"/><path d="M27 29c-1.531 1.094-4.117.992-6 .992h-5V30h-5c-4.965 0-8.996-4.027-8.996-8.996v-10c0-2.899.644-6.309 3-8.004" style="stroke:none;fill-rule:nonzero;fill:#000;fill-opacity:1"/><path d="M22 7.004A4 4 0 0 0 18 11a4 4 0 0 0 8 0 4 4 0 0 0-4-3.996Zm0 0" style="stroke:none;fill-rule:nonzero;fill:#ff0;fill-opacity:1"/><path d="m13 25-3-2.004L6 24l2.004-3L7 17l3 2.004 3.703-1.11-1.7 3.106Zm0 0" style="stroke:none;fill-rule:nonzero;fill:#fff;fill-opacity:1"/></svg>