<svg xmlns="http://www.w3.org/2000/svg" width="32" height="32"><path d="M27.004 3c-1.535-1.094-4.121-.996-6-.996h-5v-.008h-5a8.992 8.992 0 0 0-9 9V21c0 2.898.64 6.309 2.996 8.004" style="stroke:none;fill-rule:nonzero;fill:#77f;fill-opacity:1"/><path d="M5 29.004c1.531 1.094 4.121.988 6.004.988h5V30h5c4.969.004 9-4.023 9-8.996v-10c0-2.899-.645-6.309-3-8.004" style="stroke:none;fill-rule:nonzero;fill:#000;fill-opacity:1"/><path d="M10.004 7.004a4 4 0 0 1 4 3.996 4 4 0 0 1-8 0 4 4 0 0 1 4-3.996Zm0 0" style="stroke:none;fill-rule:nonzero;fill:#ff0;fill-opacity:1"/><path d="m19.004 25 3-2.004 4 1.004L24 21l1.004-4-3 2.004-3.703-1.11L20 21Zm0 0" style="stroke:none;fill-rule:nonzero;fill:#fff;fill-opacity:1"/></svg>