<svg xmlns="http://www.w3.org/2000/svg" width="32" height="32"><g transform="rotate(90 16 16)"><path d="M2 13v-3c0-5 3-8 8-8h12c5 0 8 3 8 8v9z" style="fill:#77f;fill-opacity:1;fill-rule:nonzero;stroke:none"/><path d="M2 13v8c0 5 4.027 9 9 9h10a9 9 0 0 0 9-9v-2zm0 0" style="fill:#000;fill-opacity:1;fill-rule:nonzero;stroke:none"/><path d="m9 22 3 2v4l2-3h4l-3-2v-4l-2 3zm0 0" style="fill:#fff;fill-opacity:1;fill-rule:nonzero;stroke:none"/><circle cx="-19" cy="-9" r="4" style="fill:#ff0;stroke-width:.0843275;stop-color:#000" transform="scale(-1)"/></g></svg>