<svg xmlns="http://www.w3.org/2000/svg" width="32" height="32"><path d="M23.004 2.004c4 0 6.996 4.02 6.996 8.992V21a8.992 8.992 0 0 1-9 9H9Zm0 0" style="stroke:none;fill-rule:nonzero;fill:#77f;fill-opacity:1"/><path d="M23.004 2.004h-12c-4.965-.004-8.992 4.016-9 8.984v10c0 4.973 3 9.004 7 9.004Zm0 0" style="stroke:none;fill-rule:nonzero;fill:#000;fill-opacity:1"/><path d="M23.004 24.996A3.996 3.996 0 0 1 19.008 21a3.998 3.998 0 1 1 3.996 3.996Zm0 0" style="stroke:none;fill-rule:nonzero;fill:#ff0;fill-opacity:1"/><path d="m12.004 6.996-2.91 3.176L5.004 9l3 2.996L6 16l3.645-3.059L14.004 14l-3.246-2.723Zm0 0" style="stroke:none;fill-rule:nonzero;fill:#fff;fill-opacity:1"/></svg>