<svg xmlns="http://www.w3.org/2000/svg" width="32" height="32" viewBox="0 0 8.467 8.467"><path d="M7.144 7.144c.446-.447.794-.956.793-1.588V4.234h.002V2.911A2.381 2.381 0 0 0 5.557.529H2.911c-.632 0-1.142.347-1.588.794" style="fill:#77f;fill-opacity:1;stroke-width:0"/><path d="M1.323 1.323C.877 1.77.531 2.28.531 2.911v1.323H.529v1.322a2.381 2.381 0 0 0 2.38 2.382h2.646c.632 0 1.142-.347 1.589-.794" style="fill:#000;fill-opacity:1;stroke-width:0"/><circle cx="5.821" cy="2.646" r="1.058" style="fill:#ff0;fill-opacity:1;stroke-width:.0305527;stop-color:#000"/><path d="m1.588 4.763.529 1.058-.53 1.058 1.059-.529 1.058.53-.529-1.059.53-1.058-1.06.529Z" style="fill:#fff;stroke:none;stroke-width:.264594px;stroke-linecap:butt;stroke-linejoin:miter;stroke-opacity:1"/></svg>