<svg xmlns="http://www.w3.org/2000/svg" width="32" height="32" viewBox="0 0 8.467 8.467"><path d="M7.673 7.144c.29-.406.264-1.089.264-1.588V4.234h.002V2.911A2.381 2.381 0 0 0 5.557.529H2.911c-.767 0-1.67.171-2.117.794" style="fill:#77f;fill-opacity:1;stroke:#000;stroke-width:0;stroke-dasharray:none;stroke-opacity:1"/><path d="M.794 1.323C.504 1.728.53 2.412.53 2.911v1.323H.529v1.322a2.381 2.381 0 0 0 2.38 2.382h2.646c.767 0 1.67-.171 2.118-.794" style="fill:#000;fill-opacity:1;stroke:#000;stroke-width:0;stroke-dasharray:none;stroke-opacity:1"/><circle cx="5.556" cy="2.646" r="1.058" style="fill:#ff0;fill-opacity:1;stroke-width:.0305527;stop-color:#000"/><path d="m1.852 5.027.53.794-.265 1.058.794-.529 1.058.265-.53-.794.293-.979-.821.45Z" style="fill:#fff;stroke:none;stroke-width:.264594px;stroke-linecap:butt;stroke-linejoin:miter;stroke-opacity:1"/></svg>