<svg xmlns="http://www.w3.org/2000/svg" width="32" height="32" viewBox="0 0 8.467 8.467"><path d="M4.235 7.938H2.912A2.381 2.381 0 0 1 .53 5.558V2.911A2.381 2.381 0 0 1 2.912.529h1.323z" style="fill:#77f;fill-opacity:1;stroke-width:0"/><path d="M4.235 7.938h1.322a2.381 2.381 0 0 0 2.382-2.379V2.913A2.381 2.381 0 0 0 5.557.531H4.235Z" style="fill:#000;stroke-width:0"/><circle cx="-4.234" cy="2.118" r="1.058" style="fill:#ff0;fill-opacity:1;stroke-width:.0305527;stop-color:#000" transform="rotate(-90)"/><path d="m6.351 5.558.265-1.059 1.058-.265-1.058-.264-.265-1.058-.264 1.058-1.059.264 1.059.265Z" style="fill:#fff;stroke:none;stroke-width:.264594px;stroke-linecap:butt;stroke-linejoin:miter;stroke-opacity:1"/></svg>