<svg xmlns="http://www.w3.org/2000/svg" width="32" height="32" viewBox="0 0 8.467 8.467"><path d="M.53 4.233v1.323a2.381 2.381 0 0 0 2.38 2.382h2.647a2.381 2.381 0 0 0 2.382-2.382l-.001-2.645Z" style="fill:#77f;fill-opacity:1;stroke-width:0"/><path d="M.53 5.557V2.911A2.381 2.381 0 0 1 2.909.529h2.646a2.381 2.381 0 0 1 2.382 2.382z" style="fill:#000;stroke-width:0"/><circle cx="5.292" cy="-6.086" r="1.058" style="fill:#ff0;fill-opacity:1;stroke-width:.0305527;stop-color:#000" transform="scale(1 -1)"/><path d="m2.117 2.911.794-.794-.265-1.059.794.794 1.058-.264-.794.793.265 1.059-.794-.794Z" style="fill:#fff;stroke:none;stroke-width:.264594px;stroke-linecap:butt;stroke-linejoin:miter;stroke-opacity:1"/></svg>