<svg xmlns="http://www.w3.org/2000/svg" width="32" height="32" viewBox="0 0 8.467 8.467"><path d="M1.323.794C1.73.504 2.413.53 2.911.53h2.645a2.381 2.381 0 0 1 2.382 2.38v2.646c0 .767-.17 1.67-.794 2.117" style="fill:#77f;fill-opacity:1;stroke:#000;stroke-width:0;stroke-dasharray:none;stroke-opacity:1"/><path d="M7.144 7.673c-.405.29-1.089.263-1.588.263H4.233v.002H2.911A2.381 2.381 0 0 1 .53 5.558V2.912c0-.767.171-1.67.794-2.118" style="fill:#000;fill-opacity:1;stroke:#000;stroke-width:0;stroke-dasharray:none;stroke-opacity:1"/><circle cx="-2.911" cy="-5.821" r="1.058" style="fill:#ff0;fill-opacity:1;stroke-width:.0305527;stop-color:#000" transform="matrix(0 -1 -1 0 0 0)"/><path d="m3.44 6.615-.794-.53-1.058.265.53-.794-.266-1.058.794.53.98-.293-.45.821z" style="fill:#fff;stroke:none;stroke-width:.264594px;stroke-linecap:butt;stroke-linejoin:miter;stroke-opacity:1"/></svg>