<svg xmlns="http://www.w3.org/2000/svg" width="32" height="32"><path d="M2 9c0-4 4.023-7 9-7h10a9 9 0 0 1 9 9v12Zm0 0" style="stroke:none;fill-rule:nonzero;fill:#77f;fill-opacity:1"/><path d="M2 9v12a9 9 0 0 0 9 9h10c4.97 0 9-3 9-7Zm0 0" style="stroke:none;fill-rule:nonzero;fill:#000;fill-opacity:1"/><path d="M25 9a4 4 0 0 1-4 4 4 4 0 1 1 4-4Zm0 0" style="stroke:none;fill-rule:nonzero;fill:#ff0;fill-opacity:1"/><path d="m7 20 3.172 2.91L9 27l3-3 4 2-3.059-3.645L14 18l-2.723 3.246Zm0 0" style="stroke:none;fill-rule:nonzero;fill:#fff;fill-opacity:1"/></svg>