<svg xmlns="http://www.w3.org/2000/svg" width="32" height="32"><path d="M3.004 5c-1.094 1.535-1 4.117-1 6v5H2v5a8.992 8.992 0 0 0 9 9h10.004c2.898 0 6.308-.645 8-3" style="stroke:none;fill-rule:nonzero;fill:#77f;fill-opacity:1"/><path d="M29.004 27c1.094-1.531.992-4.117.992-6v-5h.008v-5c.004-4.969-4.024-9-8.996-9h-10c-2.899 0-6.309.645-8.004 3" style="stroke:none;fill-rule:nonzero;fill:#000;fill-opacity:1"/><path d="M7.008 22a4 4 0 0 1 3.996-4 4 4 0 0 1 0 8 4 4 0 0 1-3.996-4Zm0 0" style="stroke:none;fill-rule:nonzero;fill:#ff0;fill-opacity:1"/><path d="M25.004 13 23 10l1.004-4-3 2-4-1 2.004 3-1.11 3.7 3.106-1.7Zm0 0" style="stroke:none;fill-rule:nonzero;fill:#fff;fill-opacity:1"/></svg>