<svg xmlns="http://www.w3.org/2000/svg" width="32" height="32"><path d="M4 28c1.688 1.691 4.617 2 7 2h10a9 9 0 0 0 9-9V11c0-2.387-.309-5.316-2-7" style="fill:#77f;fill-opacity:1;fill-rule:nonzero;stroke:none"/><path d="M28 4c-1.688-1.688-4.617-2-7-2H11a9 9 0 0 0-9 9v10c0 2.387.309 5.317 2 7" style="fill:#000;fill-opacity:1;fill-rule:nonzero;stroke:none"/><path d="M22 26c-2.207 0-4-1.793-4-4s1.793-4 4-4 4 1.793 4 4-1.793 4-4 4zm0 0" style="fill:#ff0;fill-opacity:1;fill-rule:nonzero;stroke:none"/><path d="m14 6-4 2-4-2 2 4-2 4 4-2 4 2-2-4zm0 0" style="fill:#fff;fill-opacity:1;fill-rule:nonzero;stroke:none"/></svg>