<svg xmlns="http://www.w3.org/2000/svg" width="32" height="32"><path d="M23 30c4 0 7-4.023 7-9V11c0-4.969-4.031-9-9-9H9Zm0 0" style="stroke:none;fill-rule:nonzero;fill:#77f;fill-opacity:1"/><path d="M23 30H11c-4.965 0-9-4-9-9V11c0-4.973 3-9 7-9Zm0 0" style="stroke:none;fill-rule:nonzero;fill:#000;fill-opacity:1"/><path d="M23 7a4 4 0 0 0-4 4 4 4 0 1 0 4-4Zm0 0" style="stroke:none;fill-rule:nonzero;fill:#ff0;fill-opacity:1"/><path d="m12 25-2.91-3.172L5 23l3-3-2-4 3.645 3.063 4.359-1.06-3.246 2.724Zm0 0" style="stroke:none;fill-rule:nonzero;fill:#fff;fill-opacity:1"/></svg>