<svg xmlns="http://www.w3.org/2000/svg" width="32" height="32"><path d="M3 27c-1.094-1.535-1-4.117-1-6V11a9 9 0 0 1 9-9h10c2.898 0 6.309.645 8 3" style="fill:#77f;fill-opacity:1;fill-rule:nonzero;stroke:none"/><path d="M29 5c1.094 1.531 1 4.117 1 6v10a9 9 0 0 1-9 9H11c-2.899 0-6.309-.645-8-3" style="fill:#000;fill-opacity:1;fill-rule:nonzero;stroke:none"/><path d="M7 10a4 4 0 0 0 4 4 4 4 0 0 0 0-8 4 4 0 0 0-4 4zm0 0" style="fill:#ff0;fill-opacity:1;fill-rule:nonzero;stroke:none"/><path d="m25 19-2 3 1 4-3-2-4 1 2-3-1.11-3.7L21 20zm0 0" style="fill:#fff;fill-opacity:1;fill-rule:nonzero;stroke:none"/></svg>