<svg xmlns="http://www.w3.org/2000/svg" width="32" height="32"><path d="M2.004 23.004c0 4 4.023 6.996 8.992 6.996h10.008a8.992 8.992 0 0 0 9-9L30 9Zm0 0" style="stroke:none;fill-rule:nonzero;fill:#77f;fill-opacity:1"/><path d="M2.004 23.004v-12c-.004-4.965 4.023-8.996 8.992-9h10c4.973 0 9.004 3 9.004 7Zm0 0" style="stroke:none;fill-rule:nonzero;fill:#000;fill-opacity:1"/><path d="M24.996 23.004A3.996 3.996 0 0 0 21 19.008a3.998 3.998 0 1 0 3.996 3.996Zm0 0" style="stroke:none;fill-rule:nonzero;fill:#ff0;fill-opacity:1"/><path d="m7 12.004 3.172-2.91L9 5.004l3 3L16 6l-3.059 3.645L14 14.004l-2.723-3.246Zm0 0" style="stroke:none;fill-rule:nonzero;fill:#fff;fill-opacity:1"/></svg>