<svg xmlns="http://www.w3.org/2000/svg" width="32" height="32"><path d="M12 2h-1a9 9 0 0 0-9 9v10a9 9 0 0 0 9 9h9zm0 0" style="fill:#77f;fill-opacity:1;fill-rule:nonzero;stroke:none"/><path d="M12 2h9c4.965 0 9 4.027 9 9v10a9 9 0 0 1-9 9h-1zm0 0" style="fill:#000;fill-opacity:1;fill-rule:nonzero;stroke:none"/><path d="M9 23a4 4 0 0 0 4-4 4 4 0 1 0-4 4zm0 0" style="fill:#ff0;fill-opacity:1;fill-rule:nonzero;stroke:none"/><path d="m21 8 3 3 4-1-3 3 1 4-3-3-4 1 3-3zm0 0" style="fill:#fff;fill-opacity:1;fill-rule:nonzero;stroke:none"/></svg>