<svg xmlns="http://www.w3.org/2000/svg" width="32" height="32"><path d="M2.004 16v-5a8.993 8.993 0 0 1 8.992-9h10.008a8.992 8.992 0 0 1 9 9v5Zm0 0" style="stroke:none;fill-rule:nonzero;fill:#77f;fill-opacity:1"/><path d="M2.004 16v5c-.004 4.965 4.023 8.996 8.992 9h10a8.992 8.992 0 0 0 9-9v-5Zm0 0" style="stroke:none;fill-rule:nonzero;fill:#000;fill-opacity:1"/><path d="M20 8a3.998 3.998 0 1 1-7.995.005A3.998 3.998 0 0 1 20 8Zm0 0" style="stroke:none;fill-rule:nonzero;fill:#ff0;fill-opacity:1"/><path d="M10.996 24 15 25l1 4 1-4 4-1-4-1-1-4-1 4Zm0 0" style="stroke:none;fill-rule:nonzero;fill:#fff;fill-opacity:1"/></svg>