<svg xmlns="http://www.w3.org/2000/svg" width="32" height="32"><path d="M27.996 28C29.691 26.312 30 23.383 30 21v-5h.004v-5a8.992 8.992 0 0 0-9-9H11c-2.387 0-5.316.309-7 2.004" style="stroke:none;fill-rule:nonzero;fill:#77f;fill-opacity:1"/><path d="M4 4c-1.688 1.688-1.992 4.617-1.992 7v5H2v5a8.993 8.993 0 0 0 8.996 9h10c2.387 0 5.317-.309 7.004-2.004" style="stroke:none;fill-rule:nonzero;fill:#000;fill-opacity:1"/><path d="M26 10c0 2.207-1.793 4-4 4s-4-1.793-4-4 1.793-4 4-4 4 1.793 4 4Zm0 0" style="stroke:none;fill-rule:nonzero;fill:#ff0;fill-opacity:1"/><path d="m6 18 2 4-2.004 4L10 24l4 2.004L12 22l2.004-4-4.008 2Zm0 0" style="stroke:none;fill-rule:nonzero;fill:#fff;fill-opacity:1"/></svg>