<svg xmlns="http://www.w3.org/2000/svg" width="32" height="32" viewBox="0 0 8.467 8.467"><path d="M6.88 1.058C6.476.768 6.057.53 5.558.53H4.235V.528H2.912A2.381 2.381 0 0 0 .53 2.91v2.646c0 .767.436 1.406 1.059 1.853" style="fill:#77f;fill-opacity:1;stroke:#000;stroke-width:0;stroke-dasharray:none;stroke-opacity:1"/><path d="M1.589 7.41c.405.29.824.526 1.323.526h1.323v.002h1.322a2.381 2.381 0 0 0 2.382-2.38V2.912c0-.767-.436-1.406-1.06-1.854" style="fill:#000;fill-opacity:1;stroke:#000;stroke-width:0;stroke-dasharray:none;stroke-opacity:1"/><circle cx="-2.911" cy="2.647" r="1.058" style="fill:#ff0;fill-opacity:1;stroke-width:.0305527;stop-color:#000" transform="rotate(-90)"/><path d="m5.028 6.615.794-.53 1.058.265-.53-.794.266-1.058-.794.53-.98-.293.45.821z" style="fill:#fff;stroke:none;stroke-width:.264594px;stroke-linecap:butt;stroke-linejoin:miter;stroke-opacity:1"/></svg>