<svg xmlns="http://www.w3.org/2000/svg" width="32" height="32" viewBox="0 0 8.467 8.467"><path d="M7.41 1.059C6.961.613 6.188.529 5.556.53H4.235V.528H2.912A2.381 2.381 0 0 0 .53 2.91v2.646c0 .632.082 1.407.529 1.853" style="fill:#77f;fill-opacity:1;stroke-width:0"/><path d="M1.059 7.41c.447.445 1.222.526 1.853.526h1.323v.002h1.322a2.381 2.381 0 0 0 2.382-2.38V2.912c0-.632-.083-1.406-.53-1.853" style="fill:#000;fill-opacity:1;stroke-width:0"/><circle cx="-2.646" cy="2.647" r="1.058" style="fill:#ff0;fill-opacity:1;stroke-width:.0305527;stop-color:#000" transform="rotate(-90)"/><path d="m4.764 6.88 1.058-.53 1.058.53-.53-1.059.53-1.058-1.058.53-1.058-.53.529 1.06z" style="fill:#fff;stroke:none;stroke-width:.264594px;stroke-linecap:butt;stroke-linejoin:miter;stroke-opacity:1"/></svg>