<svg xmlns="http://www.w3.org/2000/svg" width="32" height="32"><path d="M16 2h-5a9 9 0 0 0-9 9v10a9 9 0 0 0 9 9h10zm0 0" style="fill:#77f;fill-opacity:1;fill-rule:nonzero;stroke:none"/><path d="M11 2h10c4.965 0 9 4.027 9 9v10a9 9 0 0 1-9 9zm0 0" style="fill:#000;fill-opacity:1;fill-rule:nonzero;stroke:none"/><path d="M9 24a4 4 0 0 0 4-4 4 4 0 0 0-4-4 4 4 0 0 0 0 8zm0 0" style="fill:#ff0;fill-opacity:1;fill-rule:nonzero;stroke:none"/><path d="m21 8 3 3 4-1-3 3 1 4-3-3-4 1 3-3zm0 0" style="fill:#fff;fill-opacity:1;fill-rule:nonzero;stroke:none"/></svg>