<svg xmlns="http://www.w3.org/2000/svg" width="32" height="32"><path d="M16 2h5a9 9 0 0 1 9 9v10a9 9 0 0 1-9 9h-5Zm0 0" style="stroke:none;fill-rule:nonzero;fill:#77f;fill-opacity:1"/><path d="M16 2h-5a9 9 0 0 0-9 9v10a9 9 0 0 0 9 9h5Zm0 0" style="stroke:none;fill-rule:nonzero;fill:#000;fill-opacity:1"/><path d="M24 20a4 4 0 1 1 0-8 4 4 0 0 1 0 8Zm0 0" style="stroke:none;fill-rule:nonzero;fill:#ff0;fill-opacity:1"/><path d="m8 11-1 4-4 1 4 1 1 4 1-4 4-1-4-1Zm0 0" style="stroke:none;fill-rule:nonzero;fill:#fff;fill-opacity:1"/></svg>