<svg xmlns="http://www.w3.org/2000/svg" width="32" height="32"><path d="M2 16v-5a9 9 0 0 1 9-9h10a9 9 0 0 1 9 9v10zm0 0" style="fill:#77f;fill-opacity:1;fill-rule:nonzero;stroke:none"/><path d="M2 11v10c0 4.965 4.027 9 9 9h10a9 9 0 0 0 9-9zm0 0" style="fill:#000;fill-opacity:1;fill-rule:nonzero;stroke:none"/><path d="M24 9a4 4 0 0 1-4 4 4 4 0 0 1-4-4 4 4 0 0 1 8 0zm0 0" style="fill:#ff0;fill-opacity:1;fill-rule:nonzero;stroke:none"/><path d="m8 21 3 3-1 4 3-3 4 1-3-3 1-4-3 3zm0 0" style="fill:#fff;fill-opacity:1;fill-rule:nonzero;stroke:none"/></svg>