<svg xmlns="http://www.w3.org/2000/svg" width="32" height="32" viewBox="0 0 8.467 8.467"><path d="M6.087 7.938c1.058 0 1.851-1.065 1.851-2.38V2.911A2.381 2.381 0 0 0 5.556.53H2.381z" style="fill:#77f;fill-opacity:1;stroke-width:0"/><path d="M6.087 7.938H2.912A2.381 2.381 0 0 1 .53 5.56V2.913C.53 1.597 1.324.53 2.382.53z" style="fill:#000;stroke-width:0"/><circle cx="-2.912" cy="-6.087" r="1.058" style="fill:#ff0;fill-opacity:1;stroke-width:.0305527;stop-color:#000" transform="matrix(0 -1 -1 0 0 0)"/><path d="m3.176 6.616-.77-.839-1.082.31.794-.794-.53-1.059.964.81 1.153-.28-.859.72z" style="fill:#fff;stroke:none;stroke-width:.264594px;stroke-linecap:butt;stroke-linejoin:miter;stroke-opacity:1"/></svg>