<svg xmlns="http://www.w3.org/2000/svg" width="32" height="32"><path d="M15.004 2H11c-4.965 0-8.996 4.027-8.996 8.996V21a8.992 8.992 0 0 0 9 9l6-.004Zm0 0" style="stroke:none;fill-rule:nonzero;fill:#77f;fill-opacity:1"/><path d="M15.004 2h6c4.965-.004 8.996 4.023 9 8.992v10a8.992 8.992 0 0 1-9 9h-4Zm0 0" style="stroke:none;fill-rule:nonzero;fill:#000;fill-opacity:1"/><path d="M8.004 20.996a4 4 0 0 0 0-8 4 4 0 0 0-3.996 4 4 4 0 0 0 3.996 4Zm0 0" style="stroke:none;fill-rule:nonzero;fill:#ff0;fill-opacity:1"/><path d="m23.004 9.996 2 4h4l-4 2.004v3.996L23 16h-3.992l4-2.004Zm0 0" style="stroke:none;fill-rule:nonzero;fill:#fff;fill-opacity:1"/></svg>