<svg xmlns="http://www.w3.org/2000/svg" width="32" height="32"><path d="M27.004 29c-1.535 1.094-4.121.992-6 .992h-5V30h-5a8.992 8.992 0 0 1-9-9V10.996c0-2.898.64-6.309 2.996-8" style="stroke:none;fill-rule:nonzero;fill:#77f;fill-opacity:1"/><path d="M5 2.996c1.531-1.094 4.121-.992 6.004-.992h5v-.008h5c4.969-.004 9 4.024 9 8.996v10c0 2.899-.645 6.309-3 8.008" style="stroke:none;fill-rule:nonzero;fill:#000;fill-opacity:1"/><path d="M10.004 24.996a4 4 0 0 0 4-3.996 4 4 0 0 0-8 0 4 4 0 0 0 4 3.996Zm0 0" style="stroke:none;fill-rule:nonzero;fill:#ff0;fill-opacity:1"/><path d="m19.004 6.996 3 2.004 4-1.004-2.004 3 1.004 4-3-2.004-3.703 1.11L20 11Zm0 0" style="stroke:none;fill-rule:nonzero;fill:#fff;fill-opacity:1"/></svg>