<svg xmlns="http://www.w3.org/2000/svg" width="32" height="32" viewBox="0 0 8.467 8.467"><path d="M7.145.794C6.739.504 6.055.53 5.557.53H4.235V.528H2.912A2.381 2.381 0 0 0 .53 2.91v2.646c0 .767.17 1.67.793 2.118" style="fill:#77f;fill-opacity:1;stroke:#000;stroke-width:0;stroke-dasharray:none;stroke-opacity:1"/><path d="M1.323 7.674c.405.29 1.09.262 1.589.262h1.323v.002h1.322a2.381 2.381 0 0 0 2.382-2.38V2.912c0-.767-.171-1.67-.794-2.118" style="fill:#000;fill-opacity:1;stroke:#000;stroke-width:0;stroke-dasharray:none;stroke-opacity:1"/><circle cx="-2.911" cy="2.647" r="1.058" style="fill:#ff0;fill-opacity:1;stroke-width:.0305527;stop-color:#000" transform="rotate(-90)"/><path d="m5.028 6.615.794-.53 1.058.265-.53-.794.266-1.058-.794.53-.98-.293.45.821z" style="fill:#fff;stroke:none;stroke-width:.264594px;stroke-linecap:butt;stroke-linejoin:miter;stroke-opacity:1"/></svg>