<svg xmlns="http://www.w3.org/2000/svg" width="32" height="32"><path d="M30.004 12v-1c.004-4.969-4.024-9-8.996-9H11.004a8.992 8.992 0 0 0-9 9l.004 8.996Zm0 0" style="stroke:none;fill-rule:nonzero;fill:#77f;fill-opacity:1"/><path d="M30.004 12v9c.004 4.965-4.024 8.996-8.992 9h-10a8.992 8.992 0 0 1-9-9v-1Zm0 0" style="stroke:none;fill-rule:nonzero;fill:#000;fill-opacity:1"/><path d="M9.012 9a3.996 3.996 0 0 0 3.996 3.996A3.998 3.998 0 1 0 9.012 9Zm0 0" style="stroke:none;fill-rule:nonzero;fill:#ff0;fill-opacity:1"/><path d="m24.008 21-3.004 3 1.004 4-3-3-4 1 3-3-1-4 3 3Zm0 0" style="stroke:none;fill-rule:nonzero;fill:#fff;fill-opacity:1"/></svg>