<svg xmlns="http://www.w3.org/2000/svg" width="32" height="32"><path d="M2.004 13v-2.004C2.004 6.031 6.03 2 10.996 2h10.008a8.992 8.992 0 0 1 9 9L30 19Zm0 0" style="stroke:none;fill-rule:nonzero;fill:#77f;fill-opacity:1"/><path d="M2.004 13v8c-.004 4.965 4.023 8.996 8.992 9h10a8.992 8.992 0 0 0 9-9v-2Zm0 0" style="stroke:none;fill-rule:nonzero;fill:#000;fill-opacity:1"/><path d="M22 8a3.998 3.998 0 1 1-7.995.005A3.998 3.998 0 0 1 22 8Zm0 0" style="stroke:none;fill-rule:nonzero;fill:#ff0;fill-opacity:1"/><path d="M9.535 22.867 13 25v4l2-4h4l-4-2.004v-3.992l-2.004 4Zm0 0" style="stroke:none;fill-rule:nonzero;fill:#fff;fill-opacity:1"/></svg>