<svg xmlns="http://www.w3.org/2000/svg" width="32" height="32"><path d="M30.004 15v-4.004C30.004 6.031 25.977 2 21.008 2H11.004a8.992 8.992 0 0 0-9 9l.004 6Zm0 0" style="stroke:none;fill-rule:nonzero;fill:#77f;fill-opacity:1"/><path d="M30.004 15v6c.004 4.965-4.024 8.996-8.992 9h-10a8.992 8.992 0 0 1-9-9v-4Zm0 0" style="stroke:none;fill-rule:nonzero;fill:#000;fill-opacity:1"/><path d="M11.008 8a4 4 0 0 0 8 0 4 4 0 0 0-4-3.996 4 4 0 0 0-4 3.996Zm0 0" style="stroke:none;fill-rule:nonzero;fill:#ff0;fill-opacity:1"/><path d="m22.008 23-4 2v4l-2.004-4h-3.996l3.996-2.004v-3.992l2.004 4Zm0 0" style="stroke:none;fill-rule:nonzero;fill:#fff;fill-opacity:1"/></svg>