<svg xmlns="http://www.w3.org/2000/svg" width="32" height="32" viewBox="0 0 8.467 8.467"><path d="M3.97.529H2.911A2.381 2.381 0 0 0 .53 2.909v2.647a2.381 2.381 0 0 0 2.382 2.382l1.587-.001Z" style="fill:#77f;fill-opacity:1;stroke-width:0"/><path d="M3.97.529h1.587a2.381 2.381 0 0 1 2.382 2.379v2.646a2.381 2.381 0 0 1-2.382 2.382H4.499Z" style="fill:#000;stroke-width:0"/><circle cx="4.497" cy="2.118" r="1.058" style="fill:#ff0;fill-opacity:1;stroke-width:.0305527;stop-color:#000" transform="matrix(0 1 1 0 0 0)"/><path d="m6.087 2.645.529 1.058h1.058l-1.058.53v1.058l-.53-1.058H5.029l1.059-.53z" style="fill:#fff;stroke:none;stroke-width:.264594px;stroke-linecap:butt;stroke-linejoin:miter;stroke-opacity:1"/></svg>