<svg xmlns="http://www.w3.org/2000/svg" width="32" height="32"><path d="M16 2h5.004a8.993 8.993 0 0 1 9 8.996V21a8.992 8.992 0 0 1-9 9l-10-.004Zm0 0" style="stroke:none;fill-rule:nonzero;fill:#77f;fill-opacity:1"/><path d="M21.004 2h-10c-4.965-.004-8.996 4.023-9 8.992v10a8.992 8.992 0 0 0 9 9Zm0 0" style="stroke:none;fill-rule:nonzero;fill:#000;fill-opacity:1"/><path d="M23.004 23.996a4 4 0 0 1-3.996-4A3.996 3.996 0 0 1 23.004 16a3.997 3.997 0 1 1 0 7.996Zm0 0" style="stroke:none;fill-rule:nonzero;fill:#ff0;fill-opacity:1"/><path d="m11.004 7.996-3 3-4-1 3 3-1 4 3-3 4 1-3-3Zm0 0" style="stroke:none;fill-rule:nonzero;fill:#fff;fill-opacity:1"/></svg>