<svg xmlns="http://www.w3.org/2000/svg" width="32" height="32"><path d="M30.004 16v-5c.004-4.969-4.024-9-8.996-9H11.004a8.992 8.992 0 0 0-9 9l.004 10Zm0 0" style="stroke:none;fill-rule:nonzero;fill:#77f;fill-opacity:1"/><path d="M30.004 10.996V21c.004 4.965-4.024 8.996-8.992 9h-10a8.992 8.992 0 0 1-9-9Zm0 0" style="stroke:none;fill-rule:nonzero;fill:#000;fill-opacity:1"/><path d="M8.008 9a3.997 3.997 0 0 0 4 3.996A3.996 3.996 0 0 0 16.004 9a3.998 3.998 0 1 0-7.996 0Zm0 0" style="stroke:none;fill-rule:nonzero;fill:#ff0;fill-opacity:1"/><path d="m24.008 21-3.004 3 1.004 4-3-3-4 1 3-3-1-4 3 3Zm0 0" style="stroke:none;fill-rule:nonzero;fill:#fff;fill-opacity:1"/></svg>