<svg xmlns="http://www.w3.org/2000/svg" width="32" height="32"><path d="M9 2c-4 0-7 4.016-7 9v10a9 9 0 0 0 9 9h12Zm0 0" style="stroke:none;fill-rule:nonzero;fill:#77f;fill-opacity:1"/><path d="M9 2h12c4.965 0 9 4.02 9 8.988v10c0 4.973-3 9-7 9Zm0 0" style="stroke:none;fill-rule:nonzero;fill:#000;fill-opacity:1"/><path d="M9 25a4 4 0 0 0 4-4 4 4 0 1 0-4 4Zm0 0" style="stroke:none;fill-rule:nonzero;fill:#ff0;fill-opacity:1"/><path d="m20 7 2.91 3.176L27 9l-3 3 2 4-3.645-3.059L18 14l3.247-2.723Zm0 0" style="stroke:none;fill-rule:nonzero;fill:#fff;fill-opacity:1"/></svg>