<svg xmlns="http://www.w3.org/2000/svg" width="32" height="32"><path d="M2.004 15v-4.004C2.004 6.031 6.03 2 10.996 2h10.008a8.992 8.992 0 0 1 9 9L30 17Zm0 0" style="stroke:none;fill-rule:nonzero;fill:#77f;fill-opacity:1"/><path d="M2.004 15v6c-.004 4.965 4.023 8.996 8.992 9h10a8.992 8.992 0 0 0 9-9v-4Zm0 0" style="stroke:none;fill-rule:nonzero;fill:#000;fill-opacity:1"/><path d="M21 8a4 4 0 0 1-8 0 4 4 0 0 1 4-3.996A4 4 0 0 1 21 8Zm0 0" style="stroke:none;fill-rule:nonzero;fill:#ff0;fill-opacity:1"/><path d="m10 23 4 2v4l2-4h4l-4-2.004v-3.992l-2 4Zm0 0" style="stroke:none;fill-rule:nonzero;fill:#fff;fill-opacity:1"/></svg>