<svg xmlns="http://www.w3.org/2000/svg" width="32" height="32"><path d="M2 15v-5c0-5 3-8 8-8h12c5 0 8 3 8 8v7z" style="fill:#77f;fill-opacity:1;fill-rule:nonzero;stroke:none"/><path d="M2 15v7c0 5 3 8 8 8h12c5 0 8-3 8-8v-5z" style="fill:#000;fill-opacity:1;fill-rule:nonzero;stroke:none"/><path d="M21 8a4 4 0 0 1-8 0 4 4 0 0 1 4-4 4 4 0 0 1 4 4zm0 0" style="fill:#ff0;fill-opacity:1;fill-rule:nonzero;stroke:none"/><path d="m10 23 4 2v4l2-4h4l-4-2v-4l-2 4zm0 0" style="fill:#fff;fill-opacity:1;fill-rule:nonzero;stroke:none"/></svg>