<svg xmlns="http://www.w3.org/2000/svg" width="32" height="32"><path d="M2 19v2c0 4.969 4.03 9 9 9h10a9 9 0 0 0 9-9v-8Zm0 0" style="stroke:none;fill-rule:nonzero;fill:#77f;fill-opacity:1"/><path d="M2 19v-8c0-4.965 4.027-9 9-9h10a9 9 0 0 1 9 9v2Zm0 0" style="stroke:none;fill-rule:nonzero;fill:#000;fill-opacity:1"/><path d="M22 24a4 4 0 1 0-8 0 4 4 0 0 0 8 0Zm0 0" style="stroke:none;fill-rule:nonzero;fill:#ff0;fill-opacity:1"/><path d="m9 10 3-2V4l2 3h4l-3 2v4l-2-3Zm0 0" style="stroke:none;fill-rule:nonzero;fill:#fff;fill-opacity:1"/></svg>