<svg xmlns="http://www.w3.org/2000/svg" width="32" height="32" viewBox="0 0 8.467 8.467"><path d="M7.41 1.06C6.963.612 6.188.53 5.557.53H4.235V.529H2.912A2.381 2.381 0 0 0 .53 2.91v2.646c0 .632.082 1.407.53 1.853" style="fill:#77f;fill-opacity:1;stroke-width:0"/><path d="M1.059 7.41c.447.446 1.222.527 1.853.527h1.323v.002h1.322a2.381 2.381 0 0 0 2.382-2.38V2.913c0-.632-.082-1.407-.53-1.854" style="fill:#000;fill-opacity:1;stroke-width:0"/><circle cx="-2.647" cy="2.647" r="1.058" style="fill:#ff0;fill-opacity:1;stroke-width:.0305527;stop-color:#000" transform="rotate(-90)"/><path d="m4.764 6.88 1.058-.53 1.058.53-.53-1.058.53-1.058-1.058.529-1.058-.53.529 1.06z" style="fill:#fff;stroke:none;stroke-width:.264594px;stroke-linecap:butt;stroke-linejoin:miter;stroke-opacity:1"/></svg>