<svg xmlns="http://www.w3.org/2000/svg" width="32" height="32" viewBox="0 0 8.467 8.467"><path d="M2.382.53C1.324.53.53 1.593.53 2.91v2.646a2.381 2.381 0 0 0 2.382 2.382h3.175z" style="fill:#77f;fill-opacity:1;stroke-width:0"/><path d="M2.382.53h3.175a2.381 2.381 0 0 1 2.382 2.378v2.646c0 1.316-.794 2.383-1.852 2.383z" style="fill:#000;stroke-width:0"/><circle cx="5.556" cy="2.382" r="1.058" style="fill:#ff0;fill-opacity:1;stroke-width:.0305527;stop-color:#000" transform="matrix(0 1 1 0 0 0)"/><path d="m5.293 1.851.77.84 1.082-.31-.794.793.53 1.06-.964-.81-1.153.28.859-.72z" style="fill:#fff;stroke:none;stroke-width:.264594px;stroke-linecap:butt;stroke-linejoin:miter;stroke-opacity:1"/></svg>