<svg xmlns="http://www.w3.org/2000/svg" width="32" height="32" viewBox="0 0 8.467 8.467"><path d="M6.88 7.408c-.405.29-.824.528-1.323.528H4.235v.002H2.912A2.381 2.381 0 0 1 .53 5.556V2.91c0-.767.436-1.406 1.059-1.853" style="fill:#77f;fill-opacity:1;stroke:#000;stroke-width:0;stroke-dasharray:none;stroke-opacity:1"/><path d="M1.589 1.057C1.994.767 2.413.53 2.912.53h1.323V.528h1.322a2.381 2.381 0 0 1 2.382 2.38v2.646c0 .767-.436 1.406-1.06 1.854" style="fill:#000;fill-opacity:1;stroke:#000;stroke-width:0;stroke-dasharray:none;stroke-opacity:1"/><circle cx="5.556" cy="2.647" r="1.058" style="fill:#ff0;fill-opacity:1;stroke-width:.0305527;stop-color:#000" transform="matrix(0 1 1 0 0 0)"/><path d="m5.028 1.851.794.53 1.058-.265-.53.794.266 1.058-.794-.53-.98.293.45-.82z" style="fill:#fff;stroke:none;stroke-width:.264594px;stroke-linecap:butt;stroke-linejoin:miter;stroke-opacity:1"/></svg>