<svg xmlns="http://www.w3.org/2000/svg" xmlns:xlink="http://www.w3.org/1999/xlink" width="32" height="32" viewBox="0 0 8.467 8.467"><defs><linearGradient id="c"><stop offset="0" style="stop-color:#ff0;stop-opacity:1"/><stop offset="1" style="stop-color:#ffffb5;stop-opacity:1"/></linearGradient><linearGradient id="b"><stop offset="0" style="stop-color:#ff0;stop-opacity:1"/><stop offset="1" style="stop-color:#eb9d00;stop-opacity:1"/></linearGradient><linearGradient id="a"><stop offset="0" style="stop-color:#eb9d00;stop-opacity:1"/><stop offset="1" style="stop-color:#ff0;stop-opacity:1"/></linearGradient><linearGradient xlink:href="#a" id="f" x1="5.556" x2="7.938" y1=".529" y2="2.911" gradientUnits="userSpaceOnUse"/><linearGradient xlink:href="#b" id="e" x1="5.556" x2="8.467" y1="1.455" y2="1.455" gradientUnits="userSpaceOnUse"/><linearGradient xlink:href="#b" id="g" x1=".265" x2="2.911" y1="5.556" y2="8.202" gradientUnits="userSpaceOnUse"/><linearGradient xlink:href="#a" id="h" x1=".529" x2="2.911" y1="5.556" y2="7.938" gradientUnits="userSpaceOnUse"/><linearGradient xlink:href="#c" id="i" x1="5.556" x2="7.409" y1="7.938" y2="7.409" gradientUnits="userSpaceOnUse" spreadMethod="reflect"/><linearGradient xlink:href="#c" id="d" x1=".265" x2="1.058" y1="2.911" y2="1.058" gradientUnits="userSpaceOnUse" spreadMethod="reflect"/></defs><path d="M2.646 0A2.646 2.646 0 0 0 0 2.646v.265h.53A2.381 2.381 0 0 1 2.908.53h.002V0h-.264z" style="fill:url(#d);stroke:#000;stroke-width:0;stop-color:#000;fill-opacity:1"/><path d="M2.91.265A2.646 2.646 0 0 0 .266 2.91v2.645H.53V2.911A2.381 2.381 0 0 1 2.91.53h2.646V.264H2.911z" style="fill:#eb9d00;stroke-width:0;fill-opacity:1"/><path d="M5.821 0a2.646 2.646 0 0 1 2.646 2.646v.265h-.53A2.381 2.381 0 0 0 5.559.53h-.002V0Z" style="fill:url(#e);stroke:#000;stroke-width:0;stop-color:#000;fill-opacity:1"/><path d="M5.556.265A2.646 2.646 0 0 1 8.202 2.91h-.264A2.381 2.381 0 0 0 5.558.53h-.001z" style="fill:url(#f);fill-opacity:1;stroke-width:0"/><path d="M2.646 8.467A2.646 2.646 0 0 1 0 5.821v-.265h.53a2.381 2.381 0 0 0 2.379 2.38l.001.001v.53z" style="fill:url(#g);stroke:#000;stroke-width:0;stop-color:#000;fill-opacity:1"/><path d="M2.91 8.202A2.646 2.646 0 0 1 .266 5.556H.53a2.381 2.381 0 0 0 2.38 2.38l.001.001z" style="fill:url(#h);fill-opacity:1;stroke-width:0"/><path d="M8.202 2.91v2.646h-.264a2.381 2.381 0 0 1-2.38 2.38l-.001.001v.265H2.91v.265h2.91a2.646 2.646 0 0 0 2.646-2.646v-2.91h-.265z" style="fill:#eb9d00;stroke:#000;stroke-width:0;stop-color:#000;fill-opacity:1"/><path d="M5.556 8.202a2.646 2.646 0 0 0 2.646-2.646h-.264a2.381 2.381 0 0 1-2.38 2.38l-.001.001z" style="fill:url(#i);fill-opacity:1;stroke-width:0"/><path d="M2.911 7.938h2.646v.265H2.911zm0-7.938h2.646v.265H2.911z" style="fill:#ff0;fill-opacity:1;stroke:#000;stroke-width:0;stop-color:#000"/><path d="M-5.556 0h2.646v.265h-2.646zm0 7.938h2.646v.265h-2.646z" style="fill:#ff0;fill-opacity:1;stroke:#000;stroke-width:0;stop-color:#000" transform="rotate(-90)"/></svg>