<svg xmlns="http://www.w3.org/2000/svg" width="32" height="32"><path d="M30 16v-5a9 9 0 0 0-9-9H11a9 9 0 0 0-9 9v10zm0 0" style="fill:#77f;fill-opacity:1;fill-rule:nonzero;stroke:none"/><path d="M30 11v10c0 4.965-4.027 9-9 9H11a9 9 0 0 1-9-9zm0 0" style="fill:#000;fill-opacity:1;fill-rule:nonzero;stroke:none"/><path d="M8 9a4 4 0 0 0 4 4 4 4 0 0 0 4-4 4 4 0 0 0-8 0zm0 0" style="fill:#ff0;fill-opacity:1;fill-rule:nonzero;stroke:none"/><path d="m24 21-3 3 1 4-3-3-4 1 3-3-1-4 3 3zm0 0" style="fill:#fff;fill-opacity:1;fill-rule:nonzero;stroke:none"/></svg>