<svg xmlns="http://www.w3.org/2000/svg" width="32" height="32"><path d="M9.004 30c-4 0-7-4.023-7-8.996V11c0-4.973 4.031-9 9.004-8.996h12Zm0 0" style="stroke:none;fill-rule:nonzero;fill:#77f;fill-opacity:1"/><path d="M9.004 30h12c4.965.004 8.996-4.02 9-8.988V11.008c0-4.973-3-9.004-7-9.004Zm0 0" style="stroke:none;fill-rule:nonzero;fill:#000;fill-opacity:1"/><path d="M9.004 7.008A3.996 3.996 0 0 1 13 11.004a3.998 3.998 0 1 1-3.996-3.996Zm0 0" style="stroke:none;fill-rule:nonzero;fill:#ff0;fill-opacity:1"/><path d="m20.004 25.004 2.91-3.172 4.09 1.172-3-3L26.008 16l-3.645 3.063-4.36-1.06 3.247 2.724Zm0 0" style="stroke:none;fill-rule:nonzero;fill:#fff;fill-opacity:1"/></svg>