<svg xmlns="http://www.w3.org/2000/svg" width="32" height="32"><path d="M2 16v-6c0-5 3-8 8-8h12c5 0 8 3 8 8v6z" style="fill:#77f;fill-opacity:1;fill-rule:nonzero;stroke:none"/><path d="M2 16v6c0 5 3 8 8 8h12c5 0 8-3 8-8v-6z" style="fill:#000;fill-opacity:1;fill-rule:nonzero;stroke:none"/><path d="M20 8a4 4 0 0 1-8 0 4 4 0 0 1 4-4 4 4 0 0 1 4 4zm0 0" style="fill:#ff0;fill-opacity:1;fill-rule:nonzero;stroke:none;stroke-width:1"/><path d="m11 24 4 1 1 4 1-4 4-1-4-1-1-4-1 4Zm0 0" style="stroke:none;fill-rule:nonzero;fill:#fff;fill-opacity:1"/></svg>