<svg xmlns="http://www.w3.org/2000/svg" width="32" height="32" viewBox="0 0 8.467 8.467"><path d="M7.939 5.292v.264a2.381 2.381 0 0 1-2.38 2.382H2.912A2.381 2.381 0 0 1 .53 5.556l.001-2.38z" style="fill:#77f;fill-opacity:1;stroke-width:0"/><path d="M7.939 5.292V2.911A2.381 2.381 0 0 0 5.56.529H2.914A2.381 2.381 0 0 0 .532 2.911v.264z" style="fill:#000;stroke-width:0"/><circle cx="-3.442" cy="-6.086" r="1.058" style="fill:#ff0;fill-opacity:1;stroke-width:.0305527;stop-color:#000" transform="scale(-1)"/><path d="m6.352 2.911-.794-.794.265-1.059-.794.794-1.058-.264.794.793L4.5 3.44l.794-.794Z" style="fill:#fff;stroke:none;stroke-width:.264594px;stroke-linecap:butt;stroke-linejoin:miter;stroke-opacity:1"/></svg>