<svg xmlns="http://www.w3.org/2000/svg" width="32" height="32"><path d="M30.004 19v2.004c0 4.965-4.027 8.996-8.996 8.996H11.004a8.992 8.992 0 0 1-9-9l.004-8Zm0 0" style="stroke:none;fill-rule:nonzero;fill:#77f;fill-opacity:1"/><path d="M30.004 19v-8c.004-4.965-4.024-8.996-8.992-9h-10a8.992 8.992 0 0 0-9 9v2Zm0 0" style="stroke:none;fill-rule:nonzero;fill:#000;fill-opacity:1"/><path d="M10.008 24a3.998 3.998 0 1 1 7.995-.005 3.998 3.998 0 0 1-7.995.005Zm0 0" style="stroke:none;fill-rule:nonzero;fill:#ff0;fill-opacity:1"/><path d="m23.008 10-3-2.004V4l-2.004 3h-3.996l3 2.004v3.992l2.004-3Zm0 0" style="stroke:none;fill-rule:nonzero;fill:#fff;fill-opacity:1"/></svg>