<svg xmlns="http://www.w3.org/2000/svg" width="32" height="32"><path d="M4 27.996C5.688 29.691 8.617 30 11 30h10c4.969.004 9-4.027 9-8.996V10.996c0-2.387-.309-5.316-2.004-7" style="stroke:none;fill-rule:nonzero;fill:#77f;fill-opacity:1"/><path d="M28.004 4c-1.695-1.688-4.625-1.996-7.008-1.996H16V2h-5c-4.965 0-8.996 4.027-8.996 8.996v10c0 2.387.308 5.317 2.004 7.004" style="stroke:none;fill-rule:nonzero;fill:#000;fill-opacity:1"/><path d="M22 26c-2.207 0-4-1.793-4-4s1.793-4 4-4 4 1.793 4 4-1.793 4-4 4Zm0 0" style="stroke:none;fill-rule:nonzero;fill:#ff0;fill-opacity:1"/><path d="m14 6-4 2-4-2.004L8.004 10 6 14l4-2.004L14 14l-2-4.008Zm0 0" style="stroke:none;fill-rule:nonzero;fill:#fff;fill-opacity:1"/></svg>