<svg xmlns="http://www.w3.org/2000/svg" width="32" height="32" viewBox="0 0 8.467 8.467"><path d="M5.028 7.938h.53a2.381 2.381 0 0 0 2.381-2.38V2.911A2.381 2.381 0 0 0 5.557.529L3.441.53Z" style="fill:#77f;fill-opacity:1;stroke-width:0"/><path d="M5.028 7.938H2.912A2.381 2.381 0 0 1 .53 5.559V2.913A2.381 2.381 0 0 1 2.912.531h.529z" style="fill:#000;stroke-width:0"/><circle cx="-3.705" cy="-6.351" r="1.058" style="fill:#ff0;fill-opacity:1;stroke-width:.0305527;stop-color:#000" transform="matrix(0 -1 -1 0 0 0)"/><path d="m2.418 5.945-.565-.917H.795l1.058-.529V3.441l.53 1.058H3.44l-1.059.53z" style="fill:#fff;stroke:none;stroke-width:.264594px;stroke-linecap:butt;stroke-linejoin:miter;stroke-opacity:1"/></svg>