<svg xmlns="http://www.w3.org/2000/svg" width="32" height="32"><path d="M30 16v5c0 4.969-4.024 9-9 9H11a9 9 0 0 1-9-9v-5Zm0 0" style="stroke:none;fill-rule:nonzero;fill:#77f;fill-opacity:1"/><path d="M30 16v-5c0-4.965-4.024-9-9-9H11a9 9 0 0 0-9 9v5Zm0 0" style="stroke:none;fill-rule:nonzero;fill:#000;fill-opacity:1"/><path d="M12 24a4 4 0 1 1 8 0 4 4 0 0 1-8 0Zm0 0" style="stroke:none;fill-rule:nonzero;fill:#ff0;fill-opacity:1"/><path d="m21 8-4-1-1-4-1 4-4 1 4 1 1 4 1-4Zm0 0" style="stroke:none;fill-rule:nonzero;fill:#fff;fill-opacity:1"/></svg>