<svg xmlns="http://www.w3.org/2000/svg" width="32" height="32"><path d="M17.004 30h4c4.969 0 9-4.027 9-8.996V11a8.992 8.992 0 0 0-9-9l-6 .004Zm0 0" style="stroke:none;fill-rule:nonzero;fill:#77f;fill-opacity:1"/><path d="M17.004 30h-6c-4.965.004-8.996-4.023-9-8.992v-10a8.992 8.992 0 0 1 9-9h4Zm0 0" style="stroke:none;fill-rule:nonzero;fill:#000;fill-opacity:1"/><path d="M24.004 11.004a4 4 0 0 0 0 8 4 4 0 0 0 3.996-4 4 4 0 0 0-3.996-4Zm0 0" style="stroke:none;fill-rule:nonzero;fill:#ff0;fill-opacity:1"/><path d="m9.004 22.004-2-4h-4l4-2.004v-3.996L9.008 16H13l-4 2.004Zm0 0" style="stroke:none;fill-rule:nonzero;fill:#fff;fill-opacity:1"/></svg>