<svg xmlns="http://www.w3.org/2000/svg" width="32" height="32"><path d="M2.004 19v2.004C2.004 25.969 6.03 30 10.996 30h10.008a8.992 8.992 0 0 0 9-9L30 13Zm0 0" style="stroke:none;fill-rule:nonzero;fill:#77f;fill-opacity:1"/><path d="M2.004 19v-8C2 6.035 6.027 2.004 10.996 2h10a8.992 8.992 0 0 1 9 9v2Zm0 0" style="stroke:none;fill-rule:nonzero;fill:#000;fill-opacity:1"/><path d="M22 24a3.998 3.998 0 1 0-7.995-.005A3.998 3.998 0 0 0 22 24Zm0 0" style="stroke:none;fill-rule:nonzero;fill:#ff0;fill-opacity:1"/><path d="M9.535 9.133 13 7V3l2 4h4l-4 2.004v3.992l-2.004-4Zm0 0" style="stroke:none;fill-rule:nonzero;fill:#fff;fill-opacity:1"/></svg>