<svg xmlns="http://www.w3.org/2000/svg" width="32" height="32" viewBox="0 0 8.467 8.467"><path d="M4.234.529h1.323a2.381 2.381 0 0 1 2.382 2.38v2.647a2.381 2.381 0 0 1-2.382 2.382H4.234Z" style="fill:#77f;fill-opacity:1;stroke-width:0"/><path d="M4.234.529H2.912A2.381 2.381 0 0 0 .53 2.908v2.646a2.381 2.381 0 0 0 2.382 2.382h1.322z" style="fill:#000;stroke-width:0"/><circle cx="4.233" cy="-6.351" r="1.058" style="fill:#ff0;fill-opacity:1;stroke-width:.0305527;stop-color:#000" transform="rotate(90)"/><path d="m2.118 2.909-.265 1.059-1.058.265 1.058.264.265 1.058.264-1.058 1.059-.264-1.059-.265Z" style="fill:#fff;stroke:none;stroke-width:.264594px;stroke-linecap:butt;stroke-linejoin:miter;stroke-opacity:1"/></svg>