<svg xmlns="http://www.w3.org/2000/svg" width="32" height="32"><path d="M30.004 16v5c.004 4.969-4.024 9-8.996 9H11.004a8.992 8.992 0 0 1-9-9v-5Zm0 0" style="stroke:none;fill-rule:nonzero;fill:#77f;fill-opacity:1"/><path d="M30.004 16v-5c.004-4.965-4.024-8.996-8.992-9h-10a8.992 8.992 0 0 0-9 9v5Zm0 0" style="stroke:none;fill-rule:nonzero;fill:#000;fill-opacity:1"/><path d="M12.008 24a3.998 3.998 0 1 1 7.997-.005 3.998 3.998 0 0 1-7.997.005Zm0 0" style="stroke:none;fill-rule:nonzero;fill:#ff0;fill-opacity:1"/><path d="m21.008 8-4-1-1.004-4-.996 4-4 1 4 1 .996 4 1.004-4Zm0 0" style="stroke:none;fill-rule:nonzero;fill:#fff;fill-opacity:1"/></svg>