<svg xmlns="http://www.w3.org/2000/svg" width="32" height="32" viewBox="0 0 8.467 8.467"><path d="M1.324 7.144C.878 6.697.53 6.188.531 5.556V4.234H.529V2.911A2.381 2.381 0 0 1 2.911.529h2.646c.632 0 1.142.347 1.588.794" style="fill:#77f;fill-opacity:1;stroke-width:0"/><path d="M7.145 1.323c.446.447.792.957.792 1.588v1.323h.002v1.322a2.381 2.381 0 0 1-2.38 2.382H2.913c-.632 0-1.142-.347-1.589-.794" style="fill:#000;fill-opacity:1;stroke-width:0"/><circle cx="-2.647" cy="2.646" r="1.058" style="fill:#ff0;fill-opacity:1;stroke-width:.0305527;stop-color:#000" transform="scale(-1 1)"/><path d="m6.88 4.763-.529 1.058.53 1.058-1.059-.529-1.058.53.529-1.059-.53-1.058 1.06.529Z" style="fill:#fff;stroke:none;stroke-width:.264594px;stroke-linecap:butt;stroke-linejoin:miter;stroke-opacity:1"/></svg>