<svg xmlns="http://www.w3.org/2000/svg" width="32" height="32"><path d="M28 28c1.691-1.688 2-4.617 2-7V11a9 9 0 0 0-9-9H11c-2.387 0-5.316.309-7 2" style="stroke:none;fill-rule:nonzero;fill:#77f;fill-opacity:1"/><path d="M4 4c-1.688 1.688-2 4.617-2 7v10a9 9 0 0 0 9 9h10c2.387 0 5.317-.309 7-2" style="stroke:none;fill-rule:nonzero;fill:#000;fill-opacity:1"/><path d="M26 10c0 2.207-1.793 4-4 4s-4-1.793-4-4 1.793-4 4-4 4 1.793 4 4Zm0 0" style="stroke:none;fill-rule:nonzero;fill:#ff0;fill-opacity:1"/><path d="m6 18 2 4-2 4 4-2 4 2-2-4 2-4-4 2Zm0 0" style="stroke:none;fill-rule:nonzero;fill:#fff;fill-opacity:1"/></svg>