<svg xmlns="http://www.w3.org/2000/svg" width="32" height="32"><path d="M30.004 9c0-4-4.024-6.996-8.996-6.996H11.004a8.992 8.992 0 0 0-9 9l.004 12Zm0 0" style="stroke:none;fill-rule:nonzero;fill:#77f;fill-opacity:1"/><path d="M30.004 9v12c.004 4.965-4.024 8.996-8.992 9h-10c-4.973 0-9.004-3-9.004-7Zm0 0" style="stroke:none;fill-rule:nonzero;fill:#000;fill-opacity:1"/><path d="M7.012 9a3.996 3.996 0 0 0 3.996 3.996A3.998 3.998 0 1 0 7.012 9Zm0 0" style="stroke:none;fill-rule:nonzero;fill:#ff0;fill-opacity:1"/><path d="m25.008 20-3.172 2.91L23.008 27l-3-3-4.004 2.004 3.062-3.645L18.008 18l2.722 3.246Zm0 0" style="stroke:none;fill-rule:nonzero;fill:#fff;fill-opacity:1"/></svg>