<svg xmlns="http://www.w3.org/2000/svg" width="32" height="32"><path d="M29 27c1.094-1.535.996-4.117.996-6v-5h.008v-5a8.992 8.992 0 0 0-9-9H11c-2.898 0-6.309.645-8 3" style="stroke:none;fill-rule:nonzero;fill:#77f;fill-opacity:1"/><path d="M3 5c-1.094 1.531-.996 4.117-.996 6v5H2v5a8.993 8.993 0 0 0 8.996 9h10c2.899 0 6.309-.645 8.004-3" style="stroke:none;fill-rule:nonzero;fill:#000;fill-opacity:1"/><path d="M24.996 10A4 4 0 0 1 21 14a4 4 0 0 1 0-8 4 4 0 0 1 3.996 4Zm0 0" style="stroke:none;fill-rule:nonzero;fill:#ff0;fill-opacity:1"/><path d="m7 19 2.004 3L8 26l3-2 4 1-2.004-3 1.11-3.7L11 20Zm0 0" style="stroke:none;fill-rule:nonzero;fill:#fff;fill-opacity:1"/></svg>