<svg xmlns="http://www.w3.org/2000/svg" width="32" height="32"><path d="M5 29c1.535 1.094 4.121.992 6 .992h5V30h5a8.992 8.992 0 0 0 9-9V10.996c0-2.898-.64-6.309-2.996-8" style="stroke:none;fill-rule:nonzero;fill:#77f;fill-opacity:1"/><path d="M27.004 2.996c-1.531-1.094-4.121-.992-6.004-.992h-5v-.008h-5c-4.965 0-8.996 4.027-8.996 8.996v10c0 2.899.644 6.309 3 8.008" style="stroke:none;fill-rule:nonzero;fill:#000;fill-opacity:1"/><path d="M22 24.996A4 4 0 0 1 18 21a4 4 0 0 1 8 0 4 4 0 0 1-4 3.996Zm0 0" style="stroke:none;fill-rule:nonzero;fill:#ff0;fill-opacity:1"/><path d="M13 6.996 10 9 6 7.996l2.004 3-1.004 4 3-2.004 3.703 1.11-1.7-3.102Zm0 0" style="stroke:none;fill-rule:nonzero;fill:#fff;fill-opacity:1"/></svg>