<svg xmlns="http://www.w3.org/2000/svg" width="32" height="32"><path d="M23.004 30c4 0 6.996-4.023 6.996-8.996V11c0-4.969-4.031-9-9-8.996H9Zm0 0" style="stroke:none;fill-rule:nonzero;fill:#77f;fill-opacity:1"/><path d="M23.004 30h-12c-4.965.004-8.996-4.02-9-8.988V11.008c0-4.973 3-9.004 7-9.004Zm0 0" style="stroke:none;fill-rule:nonzero;fill:#000;fill-opacity:1"/><path d="M23.004 7.008a3.996 3.996 0 0 0-3.996 3.996 3.998 3.998 0 1 0 3.996-3.996Zm0 0" style="stroke:none;fill-rule:nonzero;fill:#ff0;fill-opacity:1"/><path d="m12.004 25.004-2.91-3.172-4.09 1.172 3-3L6 16l3.645 3.063 4.359-1.06-3.246 2.724Zm0 0" style="stroke:none;fill-rule:nonzero;fill:#fff;fill-opacity:1"/></svg>