<svg xmlns="http://www.w3.org/2000/svg" width="32" height="32"><path d="M23 2c4 0 7 4.02 7 9v10a9 9 0 0 1-9 9H9Zm0 0" style="stroke:none;fill-rule:nonzero;fill:#77f;fill-opacity:1"/><path d="M23 2H11c-4.965 0-9 4.016-9 8.984v10c0 4.973 3 9 7 9Zm0 0" style="stroke:none;fill-rule:nonzero;fill:#000;fill-opacity:1"/><path d="M23 25a4 4 0 0 1-4-4 4 4 0 1 1 4 4Zm0 0" style="stroke:none;fill-rule:nonzero;fill:#ff0;fill-opacity:1"/><path d="m12 7-2.91 3.176L5 9l3 3-2 4 3.645-3.059L14 14l-3.246-2.723Zm0 0" style="stroke:none;fill-rule:nonzero;fill:#fff;fill-opacity:1"/></svg>