<svg xmlns="http://www.w3.org/2000/svg" width="32" height="32"><path d="M2.004 16v5a8.993 8.993 0 0 0 8.992 9h10.008a8.992 8.992 0 0 0 9-9L30 11Zm0 0" style="stroke:none;fill-rule:nonzero;fill:#77f;fill-opacity:1"/><path d="M2.004 21.004V11C2 6.035 6.027 2.004 10.996 2h10a8.992 8.992 0 0 1 9 9Zm0 0" style="stroke:none;fill-rule:nonzero;fill:#000;fill-opacity:1"/><path d="M24 23a4 4 0 0 0-4-3.996A4 4 0 0 0 16 23a4 4 0 0 0 8 0Zm0 0" style="stroke:none;fill-rule:nonzero;fill:#ff0;fill-opacity:1"/><path d="m8 11 3-3-1-4 3 3 4-1-3 3 1 4-3-3Zm0 0" style="stroke:none;fill-rule:nonzero;fill:#fff;fill-opacity:1"/></svg>