<svg xmlns="http://www.w3.org/2000/svg" width="32" height="32"><path d="M2 9c0-4 3.023-7 8-7h12c4.97 0 8 3.03 8 8v13z" style="fill:#77f;fill-opacity:1;fill-rule:nonzero;stroke:none" transform="rotate(90 16 16)"/><path d="M2 9v13c0 4.97 3.03 8 8 8h12c4.97 0 8-3 8-7z" style="fill:#000;fill-opacity:1;fill-rule:nonzero;stroke:none" transform="rotate(90 16 16)"/><path d="M25 9a4 4 0 0 1-4 4 4 4 0 1 1 4-4zm0 0" style="fill:#ff0;fill-opacity:1;fill-rule:nonzero;stroke:none" transform="rotate(90 16 16)"/><path d="m7 20 3.172 2.91L9 27l3-3 4 2-3.059-3.645L14 18l-2.723 3.246Zm0 0" style="fill:#fff;fill-opacity:1;fill-rule:nonzero;stroke:none" transform="rotate(90 16 16)"/></svg>