<svg xmlns="http://www.w3.org/2000/svg" width="32" height="32"><path d="M2 16v-6c0-5 3-8 8-8h12c5 0 8 3 8 8v11z" style="fill:#77f;fill-opacity:1;fill-rule:nonzero;stroke:none" transform="rotate(180 16 16)"/><path d="M2 11v11c0 5 3 8 8 8h12c5 0 8-3 8-8v-1z" style="fill:#000;fill-opacity:1;fill-rule:nonzero;stroke:none" transform="rotate(180 16 16)"/><path d="M24 9a4 4 0 0 1-4 4 4 4 0 0 1-4-4 4 4 0 0 1 8 0zm0 0" style="fill:#ff0;fill-opacity:1;fill-rule:nonzero;stroke:none" transform="rotate(180 16 16)"/><path d="m8 21 3 3-1 4 3-3 4 1-3-3 1-4-3 3zm0 0" style="fill:#fff;fill-opacity:1;fill-rule:nonzero;stroke:none" transform="rotate(180 16 16)"/></svg>