<svg xmlns="http://www.w3.org/2000/svg" width="32" height="32"><path d="M2 17v4c0 4.969 4.03 9 9 9h10a9 9 0 0 0 9-9v-6Zm0 0" style="stroke:none;fill-rule:nonzero;fill:#77f;fill-opacity:1"/><path d="M2 17v-6c0-4.965 4.027-9 9-9h10a9 9 0 0 1 9 9v4Zm0 0" style="stroke:none;fill-rule:nonzero;fill:#000;fill-opacity:1"/><path d="M21 24a4 4 0 0 0-8 0 4 4 0 0 0 4 4 4 4 0 0 0 4-4Zm0 0" style="stroke:none;fill-rule:nonzero;fill:#ff0;fill-opacity:1"/><path d="m10 9 4-2V3l2 4h4l-4 2v4l-2-4Zm0 0" style="stroke:none;fill-rule:nonzero;fill:#fff;fill-opacity:1"/></svg>