<svg xmlns="http://www.w3.org/2000/svg" width="32" height="32"><path d="M16.004 30h-5a8.993 8.993 0 0 1-9-8.996V11a8.992 8.992 0 0 1 9-9h5Zm0 0" style="stroke:none;fill-rule:nonzero;fill:#77f;fill-opacity:1"/><path d="M16.004 30h5c4.965.004 8.996-4.023 9-8.992v-10a8.992 8.992 0 0 0-9-9h-5Zm0 0" style="stroke:none;fill-rule:nonzero;fill:#000;fill-opacity:1"/><path d="M8.004 12.004A3.998 3.998 0 1 1 8.009 20a3.998 3.998 0 0 1-.005-7.997Zm0 0" style="stroke:none;fill-rule:nonzero;fill:#ff0;fill-opacity:1"/><path d="m24.004 21.004 1-4 4-1.004-4-.996-1-4-1 4-4 .996 4 1.004Zm0 0" style="stroke:none;fill-rule:nonzero;fill:#fff;fill-opacity:1"/></svg>