<svg xmlns="http://www.w3.org/2000/svg" width="32" height="32"><path d="M28.004 4.008c-1.688-1.696-4.617-2.004-7-2.004h-5V2h-5c-4.969-.004-9 4.027-9 8.996V21c0 2.387.308 5.316 2.004 7" style="stroke:none;fill-rule:nonzero;fill:#77f;fill-opacity:1"/><path d="M4.004 28.004c1.687 1.687 4.617 1.992 7 1.992h5v.008h5c4.969.004 9-4.024 9-8.996v-10c0-2.387-.309-5.317-2.004-7.004" style="stroke:none;fill-rule:nonzero;fill:#000;fill-opacity:1"/><path d="M10.004 6.004c2.207 0 4 1.793 4 4s-1.793 4-4 4-4-1.793-4-4 1.793-4 4-4Zm0 0" style="stroke:none;fill-rule:nonzero;fill:#ff0;fill-opacity:1"/><path d="m18.004 26.004 4-2.004 4 2.004-2.004-4 2.004-4-4 2-4-2.004 2 4.008Zm0 0" style="stroke:none;fill-rule:nonzero;fill:#fff;fill-opacity:1"/></svg>