<svg xmlns="http://www.w3.org/2000/svg" width="32" height="32" viewBox="0 0 8.467 8.467"><path d="M1.323 7.143c.447.446.956.794 1.588.793h1.322v.002h1.323a2.381 2.381 0 0 0 2.382-2.382V2.91c0-.632-.347-1.142-.794-1.588" style="fill:#77f;fill-opacity:1;stroke-width:0"/><path d="M7.144 1.322C6.697.876 6.187.53 5.556.53H4.233V.528H2.911A2.381 2.381 0 0 0 .53 2.908v2.646c0 .632.347 1.142.794 1.59" style="fill:#000;fill-opacity:1;stroke-width:0"/><circle cx="5.82" cy="-5.821" r="1.058" style="fill:#ff0;fill-opacity:1;stroke-width:.0305527;stop-color:#000" transform="rotate(90)"/><path d="m3.704 1.587-1.058.53-1.058-.53.53 1.058-.53 1.058 1.058-.529 1.058.53-.529-1.06z" style="fill:#fff;stroke:none;stroke-width:.264594px;stroke-linecap:butt;stroke-linejoin:miter;stroke-opacity:1"/></svg>