<svg xmlns="http://www.w3.org/2000/svg" width="32" height="32"><path d="M30 19v2c0 4.969-4.03 9-9 9H11a9 9 0 0 1-9-9v-8zm0 0" style="fill:#77f;fill-opacity:1;fill-rule:nonzero;stroke:none"/><path d="M30 19v-8c0-4.965-4.027-9-9-9H11a9 9 0 0 0-9 9v2zm0 0" style="fill:#000;fill-opacity:1;fill-rule:nonzero;stroke:none"/><path d="M10 24a4 4 0 1 1 8 0 4 4 0 0 1-8 0Zm0 0" style="fill:#ff0;fill-opacity:1;fill-rule:nonzero;stroke:none"/><path d="m23 10-3-2V4l-2 3h-4l3 2v4l2-3zm0 0" style="fill:#fff;fill-opacity:1;fill-rule:nonzero;stroke:none"/></svg>