<svg xmlns="http://www.w3.org/2000/svg" width="32" height="32"><path d="M30.004 13v-2.004C30.004 6.031 25.977 2 21.008 2H11.004a8.992 8.992 0 0 0-9 9l.004 8Zm0 0" style="stroke:none;fill-rule:nonzero;fill:#77f;fill-opacity:1"/><path d="M30.004 13v8c.004 4.965-4.024 8.996-8.992 9h-10a8.992 8.992 0 0 1-9-9v-2Zm0 0" style="stroke:none;fill-rule:nonzero;fill:#000;fill-opacity:1"/><path d="M10.008 8a3.998 3.998 0 1 0 7.995.005A3.998 3.998 0 0 0 10.008 8Zm0 0" style="stroke:none;fill-rule:nonzero;fill:#ff0;fill-opacity:1"/><path d="M22.473 22.867 19.008 25v4l-2-4h-4l4-2.004v-3.992l2.004 4Zm0 0" style="stroke:none;fill-rule:nonzero;fill:#fff;fill-opacity:1"/></svg>