<svg xmlns="http://www.w3.org/2000/svg" width="32" height="32" viewBox="0 0 8.467 8.467"><path d="M3.441.529h-.53A2.381 2.381 0 0 0 .53 2.909v2.647a2.381 2.381 0 0 0 2.382 2.382l2.116-.001Z" style="fill:#77f;fill-opacity:1;stroke-width:0"/><path d="M3.441.529h2.116a2.381 2.381 0 0 1 2.382 2.379v2.646a2.381 2.381 0 0 1-2.382 2.382h-.529Z" style="fill:#000;stroke-width:0"/><circle cx="4.762" cy="2.118" r="1.058" style="fill:#ff0;fill-opacity:1;stroke-width:.0305527;stop-color:#000" transform="matrix(0 1 1 0 0 0)"/><path d="m6.051 2.522.565.917h1.058l-1.058.529v1.058l-.53-1.058H5.029l1.059-.53z" style="fill:#fff;stroke:none;stroke-width:.264594px;stroke-linecap:butt;stroke-linejoin:miter;stroke-opacity:1"/></svg>