<svg xmlns="http://www.w3.org/2000/svg" width="32" height="32"><path d="M30 17v4c0 4.969-4.03 9-9 9H11a9 9 0 0 1-9-9v-6zm0 0" style="fill:#77f;fill-opacity:1;fill-rule:nonzero;stroke:none"/><path d="M30 17v-6c0-4.965-4.027-9-9-9H11a9 9 0 0 0-9 9v4zm0 0" style="fill:#000;fill-opacity:1;fill-rule:nonzero;stroke:none"/><path d="M11 24a4 4 0 0 1 8 0 4 4 0 0 1-4 4 4 4 0 0 1-4-4zm0 0" style="fill:#ff0;fill-opacity:1;fill-rule:nonzero;stroke:none"/><path d="m22 9-4-2V3l-2 4h-4l4 2v4l2-4zm0 0" style="fill:#fff;fill-opacity:1;fill-rule:nonzero;stroke:none"/></svg>