<svg xmlns="http://www.w3.org/2000/svg" width="32" height="32"><path d="M9.004 2.004c-4 0-7 4.016-7 8.992V21a8.992 8.992 0 0 0 9 9h12Zm0 0" style="stroke:none;fill-rule:nonzero;fill:#77f;fill-opacity:1"/><path d="M9.004 2.004h12c4.965-.004 8.996 4.02 9 8.988v10c0 4.973-3 9.004-7 9.004Zm0 0" style="stroke:none;fill-rule:nonzero;fill:#000;fill-opacity:1"/><path d="M9.004 24.996A3.996 3.996 0 0 0 13 21a3.998 3.998 0 1 0-3.996 3.996Zm0 0" style="stroke:none;fill-rule:nonzero;fill:#ff0;fill-opacity:1"/><path d="m20.004 6.996 2.91 3.176L27.004 9l-3 2.996L26.008 16l-3.645-3.059L18.003 14l3.247-2.723Zm0 0" style="stroke:none;fill-rule:nonzero;fill:#fff;fill-opacity:1"/></svg>