<svg xmlns="http://www.w3.org/2000/svg" width="32" height="32" viewBox="0 0 8.467 8.467"><path d="M.795 7.144C.505 6.738.53 6.055.53 5.556V4.234H.529V2.911A2.381 2.381 0 0 1 2.911.529h2.646c.767 0 1.67.171 2.117.794" style="fill:#77f;fill-opacity:1;stroke:#000;stroke-width:0;stroke-dasharray:none;stroke-opacity:1"/><path d="M7.674 1.323c.29.405.263 1.089.263 1.588v1.323h.002v1.322a2.381 2.381 0 0 1-2.38 2.382H2.913c-.767 0-1.67-.171-2.118-.794" style="fill:#000;fill-opacity:1;stroke:#000;stroke-width:0;stroke-dasharray:none;stroke-opacity:1"/><circle cx="-2.912" cy="2.646" r="1.058" style="fill:#ff0;fill-opacity:1;stroke-width:.0305527;stop-color:#000" transform="scale(-1 1)"/><path d="m6.616 5.027-.53.794.265 1.058-.794-.529-1.058.265.53-.794-.293-.979.821.45Z" style="fill:#fff;stroke:none;stroke-width:.264594px;stroke-linecap:butt;stroke-linejoin:miter;stroke-opacity:1"/></svg>