<svg xmlns="http://www.w3.org/2000/svg" width="32" height="32"><path d="M2 20v1a9 9 0 0 0 9 9h10a9 9 0 0 0 9-9v-9Zm0 0" style="stroke:none;fill-rule:nonzero;fill:#77f;fill-opacity:1"/><path d="M2 20v-9c0-4.965 4.027-9 9-9h10a9 9 0 0 1 9 9v1Zm0 0" style="stroke:none;fill-rule:nonzero;fill:#000;fill-opacity:1"/><path d="M23 23a4 4 0 0 0-4-4 4 4 0 1 0 4 4Zm0 0" style="stroke:none;fill-rule:nonzero;fill:#ff0;fill-opacity:1"/><path d="m8 11 3-3-1-4 3 3 4-1-3 3 1 4-3-3Zm0 0" style="stroke:none;fill-rule:nonzero;fill:#fff;fill-opacity:1"/></svg>