<svg xmlns="http://www.w3.org/2000/svg" width="32" height="32"><path d="M4.008 4c-1.696 1.688-2.004 4.617-2.004 7v5H2v5a8.992 8.992 0 0 0 9 9h10.004c2.387 0 5.316-.309 7-2.004" style="stroke:none;fill-rule:nonzero;fill:#77f;fill-opacity:1"/><path d="M28.004 28c1.687-1.688 1.992-4.617 1.992-7v-5h.008v-5c.004-4.969-4.024-9-8.996-9h-10C8.62 2 5.69 2.309 4.004 4.004" style="stroke:none;fill-rule:nonzero;fill:#000;fill-opacity:1"/><path d="M6.004 22c0-2.207 1.793-4 4-4s4 1.793 4 4-1.793 4-4 4-4-1.793-4-4Zm0 0" style="stroke:none;fill-rule:nonzero;fill:#ff0;fill-opacity:1"/><path d="m26.004 14-2-4 2.004-4-4.004 2-4-2.004 2 4.004L18 14l4.008-2Zm0 0" style="stroke:none;fill-rule:nonzero;fill:#fff;fill-opacity:1"/></svg>