<svg xmlns="http://www.w3.org/2000/svg" width="32" height="32"><defs><linearGradient id="a" x1=".265" x2="1.058" y1="2.911" y2="1.058" gradientTransform="rotate(.042) scale(3.77938)" gradientUnits="userSpaceOnUse" spreadMethod="reflect"><stop offset="0" style="stop-color:#ff0;stop-opacity:1"/><stop offset="1" style="stop-color:#ffffb5;stop-opacity:1"/></linearGradient><linearGradient id="b" x1="5.556" x2="8.467" y1="1.455" y2="1.455" gradientTransform="rotate(.042) scale(3.77938)" gradientUnits="userSpaceOnUse"><stop offset="0" style="stop-color:#ff0;stop-opacity:1"/><stop offset="1" style="stop-color:#eb9d00;stop-opacity:1"/></linearGradient><linearGradient id="c" x1="5.556" x2="7.938" y1=".529" y2="2.911" gradientTransform="rotate(.042) scale(3.77938)" gradientUnits="userSpaceOnUse"><stop offset="0" style="stop-color:#eb9d00;stop-opacity:1"/><stop offset="1" style="stop-color:#ff0;stop-opacity:1"/></linearGradient><linearGradient id="d" x1=".265" x2="2.911" y1="5.556" y2="8.202" gradientTransform="rotate(.042) scale(3.77938)" gradientUnits="userSpaceOnUse"><stop offset="0" style="stop-color:#ff0;stop-opacity:1"/><stop offset="1" style="stop-color:#eb9d00;stop-opacity:1"/></linearGradient><linearGradient id="e" x1=".529" x2="2.911" y1="5.556" y2="7.938" gradientTransform="rotate(.042) scale(3.77938)" gradientUnits="userSpaceOnUse"><stop offset="0" style="stop-color:#eb9d00;stop-opacity:1"/><stop offset="1" style="stop-color:#ff0;stop-opacity:1"/></linearGradient><linearGradient id="f" x1="5.556" x2="7.409" y1="7.938" y2="7.409" gradientTransform="rotate(.042) scale(3.77938)" gradientUnits="userSpaceOnUse" spreadMethod="reflect"><stop offset="0" style="stop-color:#ff0;stop-opacity:1"/><stop offset="1" style="stop-color:#ffffb5;stop-opacity:1"/></linearGradient></defs><path d="M10 0C4.477 0 0 4.477 0 10v1h2.004a8.994 8.994 0 0 1 8.988-8.996h.004V0Zm0 0" style="stroke:none;fill-rule:nonzero;fill:url(#a)"/><path d="M10.996 1c-5.516.004-9.988 4.48-9.992 9.996v10h1V11c0-4.965 4.027-8.996 8.992-8.996H21V.996H11Zm0 0" style="stroke:none;fill-rule:nonzero;fill:#eb9d00;fill-opacity:1"/><path d="M22 0c5.523 0 10 4.477 10 10v1h-2.004a8.994 8.994 0 0 0-8.988-8.996h-.004V0Zm0 0" style="stroke:none;fill-rule:nonzero;fill:url(#b)"/><path d="M21 1c5.52 0 9.996 4.477 10 9.996h-1c0-4.965-4.027-8.992-8.996-8.992Zm0 0" style="stroke:none;fill-rule:nonzero;fill:url(#c)"/><path d="M10 32C4.477 32 0 27.523 0 22v-1h2.004c0 4.965 4.023 8.988 8.992 8.992V32Zm0 0" style="stroke:none;fill-rule:nonzero;fill:url(#d)"/><path d="M10.996 31c-5.52-.004-9.992-4.48-9.992-10h1a8.994 8.994 0 0 0 8.992 8.992l.004.004Zm0 0" style="stroke:none;fill-rule:nonzero;fill:url(#e)"/><path d="M31 10.996V21h-1c0 4.965-4.027 8.992-8.996 8.992V31H10.996v1h11c5.524 0 10-4.477 10-10V11h-1Zm0 0" style="stroke:none;fill-rule:nonzero;fill:#eb9d00;fill-opacity:1"/><path d="M21 31c5.52 0 10-4.48 10-10h-1c0 4.965-4.027 8.992-8.996 8.992v.004Zm0 0" style="stroke:none;fill-rule:nonzero;fill:url(#f)"/><path d="M11 30h10.004v1.004H11Zm0-30h10.004v1H11ZM0 21V10.996h1V21Zm30 0V10.996h1.004V21Zm0 0" style="stroke:none;fill-rule:nonzero;fill:#ff0;fill-opacity:1"/></svg>