<svg xmlns="http://www.w3.org/2000/svg" width="32" height="32"><path d="M16.004 30h-5a8.993 8.993 0 0 1-9-8.996V11a8.992 8.992 0 0 1 9-9l10 .004Zm0 0" style="stroke:none;fill-rule:nonzero;fill:#77f;fill-opacity:1"/><path d="M11 30h10.004c4.965.004 8.996-4.023 9-8.992v-10a8.992 8.992 0 0 0-9-9Zm0 0" style="stroke:none;fill-rule:nonzero;fill:#000;fill-opacity:1"/><path d="M9.004 8.004a4 4 0 0 1 3.996 4A3.996 3.996 0 0 1 9.004 16a3.997 3.997 0 1 1 0-7.996Zm0 0" style="stroke:none;fill-rule:nonzero;fill:#ff0;fill-opacity:1"/><path d="m21.004 24.004 3-3 4 1-3-3 1-4-3 3-4-1 3 3Zm0 0" style="stroke:none;fill-rule:nonzero;fill:#fff;fill-opacity:1"/></svg>