<svg xmlns="http://www.w3.org/2000/svg" width="32" height="32"><path d="M13.004 2H11c-4.965 0-8.996 4.027-8.996 8.996V21a8.992 8.992 0 0 0 9 9l8-.004Zm0 0" style="stroke:none;fill-rule:nonzero;fill:#77f;fill-opacity:1"/><path d="M13.004 2h8c4.965-.004 8.996 4.023 9 8.992v10a8.992 8.992 0 0 1-9 9h-2Zm0 0" style="stroke:none;fill-rule:nonzero;fill:#000;fill-opacity:1"/><path d="M8.004 21.996a3.998 3.998 0 1 0 .005-7.995 3.998 3.998 0 0 0-.005 7.995Zm0 0" style="stroke:none;fill-rule:nonzero;fill:#ff0;fill-opacity:1"/><path d="m22.004 8.996 2.004 3h3.996l-3 2.004v3.996l-2.004-3h-3.992l3-2.004Zm0 0" style="stroke:none;fill-rule:nonzero;fill:#fff;fill-opacity:1"/></svg>