<svg xmlns="http://www.w3.org/2000/svg" width="32" height="32"><path d="M9 30c-4 0-7-4-7-9V11a9 9 0 0 1 9-9h12zm0 0" style="fill:#77f;fill-opacity:1;fill-rule:nonzero;stroke:none"/><path d="M9 30h12c5 0 9-4 9-9V11c0-5-3-9-7-9Zm0 0" style="fill:#000;fill-opacity:1;fill-rule:nonzero;stroke:none"/><path d="M9 7.012a4 4 0 0 1 4 4 4 4 0 1 1-4-4zm0 0" style="fill:#ff0;fill-opacity:1;fill-rule:nonzero;stroke:none"/><path d="m20 25 2.91-3.172L27 23l-3-3 2-4-3.645 3.062-4.359-1.058 3.246 2.722zm0 0" style="fill:#fff;fill-opacity:1;fill-rule:nonzero;stroke:none"/></svg>