<svg xmlns="http://www.w3.org/2000/svg" width="32" height="32"><path d="M2 16v5a9 9 0 0 0 9 9h10a9 9 0 0 0 9-9V11Zm0 0" style="stroke:none;fill-rule:nonzero;fill:#77f;fill-opacity:1"/><path d="M2 21V11c0-4.965 4.027-9 9-9h10a9 9 0 0 1 9 9Zm0 0" style="stroke:none;fill-rule:nonzero;fill:#000;fill-opacity:1"/><path d="M24 23a4 4 0 0 0-4-4 4 4 0 0 0-4 4 4 4 0 0 0 8 0Zm0 0" style="stroke:none;fill-rule:nonzero;fill:#ff0;fill-opacity:1"/><path d="m8 11 3-3-1-4 3 3 4-1-3 3 1 4-3-3Zm0 0" style="stroke:none;fill-rule:nonzero;fill:#fff;fill-opacity:1"/></svg>