<svg xmlns="http://www.w3.org/2000/svg" width="32" height="32"><path d="M2 13v-3c0-5 3-8 8-8h12c5 0 8 3 8 8v9z" style="fill:#77f;fill-opacity:1;fill-rule:nonzero;stroke:none" transform="rotate(-90 16 16)"/><path d="M2 13v9c0 5 3 8 8 8h12c5 0 8-3 8-8v-3z" style="fill:#000;fill-opacity:1;fill-rule:nonzero;stroke:none" transform="rotate(-90 16 16)"/><path d="M22 8a4 4 0 1 1-8 0 4 4 0 0 1 8 0zm0 0" style="fill:#ff0;fill-opacity:1;fill-rule:nonzero;stroke:none" transform="rotate(-90 16 16)"/><path d="M9.535 22.867 13 25v4l2-4h4l-4-2v-4l-2 4zm0 0" style="fill:#fff;fill-opacity:1;fill-rule:nonzero;stroke:none" transform="rotate(-90 16 16)"/></svg>