<svg xmlns="http://www.w3.org/2000/svg" width="32" height="32"><path d="M28 28c1.691-1.688 2-3.617 2-6V10c0-4.97-3.03-8-8-8H10c-2.387 0-4.316.309-6 2" style="fill:#77f;fill-opacity:1;fill-rule:nonzero;stroke:none" transform="rotate(180 16 16)"/><path d="M4 4c-1.688 1.688-2 3.617-2 6v12c0 4.97 3.03 8 8 8h12c2.387 0 4.317-.309 6-2" style="fill:#000;fill-opacity:1;fill-rule:nonzero;stroke:none" transform="rotate(180 16 16)"/><path d="M26 10c0 2.207-1.793 4-4 4s-4-1.793-4-4 1.793-4 4-4 4 1.793 4 4zm0 0" style="fill:#ff0;fill-opacity:1;fill-rule:nonzero;stroke:none" transform="rotate(180 16 16)"/><path d="m6 18 2 4-2 4 4-2 4 2-2-4 2-4-4 2zm0 0" style="fill:#fff;fill-opacity:1;fill-rule:nonzero;stroke:none" transform="rotate(180 16 16)"/></svg>