<svg xmlns="http://www.w3.org/2000/svg" width="32" height="32"><path d="M29 27c1.094-1.535 1-3.117 1-5V10c0-4.97-3.03-8-8-8H10c-2.898 0-5.309.645-7 3" style="fill:#77f;fill-opacity:1;fill-rule:nonzero;stroke:none" transform="rotate(90 16 16)"/><path d="M3 5c-1.094 1.531-1 3.117-1 5v12c0 4.97 3.03 8 8 8h12c2.899 0 5.309-.645 7-3" style="fill:#000;fill-opacity:1;fill-rule:nonzero;stroke:none" transform="rotate(90 16 16)"/><path d="M25 10a4 4 0 0 1-4 4 4 4 0 0 1 0-8 4 4 0 0 1 4 4zm0 0" style="fill:#ff0;fill-opacity:1;fill-rule:nonzero;stroke:none" transform="rotate(90 16 16)"/><path d="m7 19 2 3-1 4 3-2 4 1-2-3 1.11-3.7L11 20Zm0 0" style="fill:#fff;fill-opacity:1;fill-rule:nonzero;stroke:none" transform="rotate(90 16 16)"/></svg>