<svg xmlns="http://www.w3.org/2000/svg" width="32" height="32" viewBox="0 0 8.467 8.467"><path d="M5.293 7.938h.264a2.381 2.381 0 0 0 2.382-2.38V2.911A2.381 2.381 0 0 0 5.557.529L3.177.53Z" style="fill:#77f;fill-opacity:1;stroke-width:0"/><path d="M5.293 7.938H2.912A2.381 2.381 0 0 1 .53 5.559V2.913A2.381 2.381 0 0 1 2.912.531h.264z" style="fill:#000;stroke-width:0"/><circle cx="-3.441" cy="-6.087" r="1.058" style="fill:#ff0;fill-opacity:1;stroke-width:.0305527;stop-color:#000" transform="matrix(0 -1 -1 0 0 0)"/><path d="m2.912 6.351-.794-.794-1.059.265.794-.794-.264-1.058.793.794 1.059-.265-.794.794Z" style="fill:#fff;stroke:none;stroke-width:.264594px;stroke-linecap:butt;stroke-linejoin:miter;stroke-opacity:1"/></svg>