<svg xmlns="http://www.w3.org/2000/svg" width="32" height="32"><path d="M12.004 2h-1a8.993 8.993 0 0 0-9 8.996V21a8.992 8.992 0 0 0 9 9L20 29.996Zm0 0" style="stroke:none;fill-rule:nonzero;fill:#77f;fill-opacity:1"/><path d="M12.004 2h9c4.965-.004 8.996 4.023 9 8.992v10a8.992 8.992 0 0 1-9 9h-1Zm0 0" style="stroke:none;fill-rule:nonzero;fill:#000;fill-opacity:1"/><path d="M9.004 22.992A3.996 3.996 0 0 0 13 18.996a3.998 3.998 0 1 0-3.996 3.996Zm0 0" style="stroke:none;fill-rule:nonzero;fill:#ff0;fill-opacity:1"/><path d="m21.004 7.996 3 3 4-1-3 3 1 4-3-3-4 1 3-3Zm0 0" style="stroke:none;fill-rule:nonzero;fill:#fff;fill-opacity:1"/></svg>