<svg xmlns="http://www.w3.org/2000/svg" width="32" height="32"><path d="M30 23c0 4-4.024 7-9 7H11a9 9 0 0 1-9-9V9Zm0 0" style="stroke:none;fill-rule:nonzero;fill:#77f;fill-opacity:1"/><path d="M30 23V11c0-4.965-4.024-9-9-9H11C6.027 2 2 5 2 9Zm0 0" style="stroke:none;fill-rule:nonzero;fill:#000;fill-opacity:1"/><path d="M7.012 23a4 4 0 0 1 4-4 4 4 0 1 1-4 4Zm0 0" style="stroke:none;fill-rule:nonzero;fill:#ff0;fill-opacity:1"/><path d="m25 12-3.172-2.91L23 5l-3 3-4-2 3.062 3.645-1.058 4.359 2.722-3.246Zm0 0" style="stroke:none;fill-rule:nonzero;fill:#fff;fill-opacity:1"/></svg>