<svg xmlns="http://www.w3.org/2000/svg" width="32" height="32"><path d="M30.004 17v4.004c0 4.965-4.027 8.996-8.996 8.996H11.004a8.992 8.992 0 0 1-9-9l.004-6Zm0 0" style="stroke:none;fill-rule:nonzero;fill:#77f;fill-opacity:1"/><path d="M30.004 17v-6c.004-4.965-4.024-8.996-8.992-9h-10a8.992 8.992 0 0 0-9 9v4Zm0 0" style="stroke:none;fill-rule:nonzero;fill:#000;fill-opacity:1"/><path d="M11.008 24a4 4 0 0 1 8 0 4 4 0 0 1-4 3.996 4 4 0 0 1-4-3.996Zm0 0" style="stroke:none;fill-rule:nonzero;fill:#ff0;fill-opacity:1"/><path d="m22.008 9-4-2V3l-2.004 4h-3.996l3.996 2.004v3.992l2.004-4Zm0 0" style="stroke:none;fill-rule:nonzero;fill:#fff;fill-opacity:1"/></svg>