<svg xmlns="http://www.w3.org/2000/svg" width="32" height="32"><path d="M2.004 12v-1a8.993 8.993 0 0 1 8.992-9h10.008a8.992 8.992 0 0 1 9 9L30 19.996Zm0 0" style="stroke:none;fill-rule:nonzero;fill:#77f;fill-opacity:1"/><path d="M2.004 12v9c-.004 4.965 4.023 8.996 8.992 9h10a8.992 8.992 0 0 0 9-9v-1Zm0 0" style="stroke:none;fill-rule:nonzero;fill:#000;fill-opacity:1"/><path d="M22.996 9A3.996 3.996 0 0 1 19 12.996 3.998 3.998 0 1 1 22.996 9Zm0 0" style="stroke:none;fill-rule:nonzero;fill:#ff0;fill-opacity:1"/><path d="m8 21 3 3-1 4 3-3 4 1-3-3 1-4-3 3Zm0 0" style="stroke:none;fill-rule:nonzero;fill:#fff;fill-opacity:1"/></svg>