<svg xmlns="http://www.w3.org/2000/svg" width="32" height="32"><path d="M2.004 9c0-4 4.023-6.996 8.992-6.996h10.008a8.992 8.992 0 0 1 9 9l-.004 12Zm0 0" style="stroke:none;fill-rule:nonzero;fill:#77f;fill-opacity:1"/><path d="M2.004 9v12c-.004 4.965 4.023 8.996 8.992 9h10C25.97 30 30 27 30 23Zm0 0" style="stroke:none;fill-rule:nonzero;fill:#000;fill-opacity:1"/><path d="M24.996 9A3.996 3.996 0 0 1 21 12.996 3.998 3.998 0 1 1 24.996 9Zm0 0" style="stroke:none;fill-rule:nonzero;fill:#ff0;fill-opacity:1"/><path d="m7 20 3.172 2.91L9 27l3-3 4 2.004-3.059-3.645L14 18l-2.723 3.246Zm0 0" style="stroke:none;fill-rule:nonzero;fill:#fff;fill-opacity:1"/></svg>