<svg xmlns="http://www.w3.org/2000/svg" width="32" height="32" viewBox="0 0 8.467 8.467"><path d="M1.587 1.058C1.993.768 2.412.53 2.911.53h1.322V.528h1.323A2.381 2.381 0 0 1 7.938 2.91v2.646c0 .767-.436 1.406-1.059 1.853" style="fill:#77f;fill-opacity:1;stroke:#000;stroke-width:0;stroke-dasharray:none;stroke-opacity:1"/><path d="M6.88 7.41c-.406.29-.825.526-1.324.526H4.233v.002H2.911A2.381 2.381 0 0 1 .53 5.558V2.912c0-.767.436-1.406 1.06-1.854" style="fill:#000;fill-opacity:1;stroke:#000;stroke-width:0;stroke-dasharray:none;stroke-opacity:1"/><circle cx="-2.911" cy="-5.821" r="1.058" style="fill:#ff0;fill-opacity:1;stroke-width:.0305527;stop-color:#000" transform="matrix(0 -1 -1 0 0 0)"/><path d="m3.44 6.615-.794-.53-1.058.265.53-.794-.266-1.058.794.53.98-.293-.45.821z" style="fill:#fff;stroke:none;stroke-width:.264594px;stroke-linecap:butt;stroke-linejoin:miter;stroke-opacity:1"/></svg>