<svg xmlns="http://www.w3.org/2000/svg" width="32" height="32" viewBox="0 0 8.467 8.467"><path d="M.53 4.234V2.911A2.381 2.381 0 0 1 2.91.529h2.647a2.381 2.381 0 0 1 2.382 2.382v1.323z" style="fill:#77f;stroke-width:0;fill-opacity:1"/><path d="M.53 4.234v1.322a2.381 2.381 0 0 0 2.379 2.382h2.646a2.381 2.381 0 0 0 2.382-2.382V4.234H.53z" style="fill:#000;stroke-width:0"/><circle cx="4.234" cy="2.117" r="1.058" style="fill:#ff0;fill-opacity:1;stroke-width:.0305527;stop-color:#000"/><path d="m2.91 6.35 1.059.265.265 1.058.264-1.058 1.058-.265-1.058-.264-.264-1.059-.265 1.059Z" style="fill:#fff;stroke:none;stroke-width:.264594px;stroke-linecap:butt;stroke-linejoin:miter;stroke-opacity:1"/></svg>