<svg xmlns="http://www.w3.org/2000/svg" width="32" height="32"><path d="M19.004 2h2c4.969 0 9 4.027 9 8.996V21a8.992 8.992 0 0 1-9 9l-8-.004Zm0 0" style="stroke:none;fill-rule:nonzero;fill:#77f;fill-opacity:1"/><path d="M19.004 2h-8c-4.965-.004-8.996 4.023-9 8.992v10a8.992 8.992 0 0 0 9 9h2Zm0 0" style="stroke:none;fill-rule:nonzero;fill:#000;fill-opacity:1"/><path d="M24.004 21.996a3.998 3.998 0 1 1-.005-7.995 3.998 3.998 0 0 1 .005 7.995Zm0 0" style="stroke:none;fill-rule:nonzero;fill:#ff0;fill-opacity:1"/><path d="m10.004 8.996-2.004 3H4.004l3 2.004v3.996l2.004-3H13l-3-2.004Zm0 0" style="stroke:none;fill-rule:nonzero;fill:#fff;fill-opacity:1"/></svg>