<svg xmlns="http://www.w3.org/2000/svg" width="32" height="32"><path d="M20.004 30h1c4.969.004 9-4.023 9-8.996V11a8.992 8.992 0 0 0-9-9l-8.996.004Zm0 0" style="stroke:none;fill-rule:nonzero;fill:#77f;fill-opacity:1"/><path d="M20.004 30h-9c-4.965.004-8.996-4.023-9-8.992v-10a8.992 8.992 0 0 1 9-9h1Zm0 0" style="stroke:none;fill-rule:nonzero;fill:#000;fill-opacity:1"/><path d="M23.004 9.008a3.996 3.996 0 0 0-3.996 3.996 3.998 3.998 0 1 0 3.996-3.996Zm0 0" style="stroke:none;fill-rule:nonzero;fill:#ff0;fill-opacity:1"/><path d="m11.004 24.004-3-3-4 1 3-3-1-4 3 3 4-1-3 3Zm0 0" style="stroke:none;fill-rule:nonzero;fill:#fff;fill-opacity:1"/></svg>