<svg xmlns="http://www.w3.org/2000/svg" width="32" height="32"><path d="M14.996 10.996a3.998 3.998 0 1 1-7.995.005 3.998 3.998 0 0 1 7.995-.005Zm10 0a3.998 3.998 0 1 1-7.997.005 3.998 3.998 0 0 1 7.997-.005ZM14.996 21a3.997 3.997 0 0 1-4 3.996A3.996 3.996 0 0 1 7 21a3.998 3.998 0 1 1 7.996 0Zm0 0" style="stroke:none;fill-rule:nonzero;fill:#000;fill-opacity:1"/><path d="M19.996 16A3.996 3.996 0 0 1 16 19.996 3.998 3.998 0 1 1 19.996 16Zm0 0" style="stroke:none;fill-rule:nonzero;fill:#000;fill-opacity:1"/><path d="M24.996 21A3.996 3.996 0 0 1 21 24.996 3.998 3.998 0 1 1 24.996 21Zm0 0" style="stroke:none;fill-rule:nonzero;fill:#000;fill-opacity:1"/></svg>