<svg xmlns="http://www.w3.org/2000/svg" width="32" height="32"><path d="M26.004 10.996a5.021 5.021 0 0 1-1.465 3.543A5.003 5.003 0 1 1 21 5.996a5.003 5.003 0 0 1 5.005 5Zm0 0" style="stroke:none;fill-rule:nonzero;fill:#000;fill-opacity:1"/><path d="M16 10.996a4.994 4.994 0 0 1-5.004 5.008 5.003 5.003 0 0 1 0-10.004A5.002 5.002 0 0 1 16 10.996ZM26.004 21a5.005 5.005 0 0 1-5.008 5.004 4.999 4.999 0 0 1 0-10A5.005 5.005 0 0 1 26.004 21Zm0 0" style="stroke:none;fill-rule:nonzero;fill:#000;fill-opacity:1"/><path d="M16 21a4.999 4.999 0 0 1-1.46 3.54 5.005 5.005 0 0 1-8.543-3.535 5.005 5.005 0 0 1 5-5.005c2.76 0 5 2.238 5.003 5Zm0 0" style="stroke:none;fill-rule:nonzero;fill:#000;fill-opacity:1"/><path d="M10.996 10.996H21V21H11Zm0 0" style="stroke:none;fill-rule:nonzero;fill:#000;fill-opacity:1"/></svg>