<svg xmlns="http://www.w3.org/2000/svg" width="32" height="32"><path d="M15 11a4 4 0 1 1-8 0 4 4 0 0 1 8-0Zm10 0a4 4 0 1 1-8 0 4 4 0 0 1 8-0ZM15 21a4 4 0 0 1-4 4A4 4 0 0 1 7 21a4 4 0 1 1 8 0Zm0 0" style="stroke:none;fill-rule:nonzero;fill:#000;fill-opacity:1"/><path d="M20 16A4 4 0 0 1 16 20 4 4 0 1 1 20 16Zm0 0" style="stroke:none;fill-rule:nonzero;fill:#000;fill-opacity:1"/><path d="M25 21A4 4 0 0 1 21 25 4 4 0 1 1 25 21Zm0 0" style="stroke:none;fill-rule:nonzero;fill:#000;fill-opacity:1"/></svg>