<svg xmlns="http://www.w3.org/2000/svg" width="32" height="32"><path d="M26 11a5.021 5.021 0 0 1-1.465 3.543A5 5 0 1 1 21 6a5 5 0 0 1 5 5Zm0 0" style="stroke:none;fill-rule:nonzero;fill:#000;fill-opacity:1"/><path d="M16 11a5 5 0 0 1-5 5 5 5 0 0 1 0-10 5 5 0 0 1 5 5Zm10 10a5 5 0 0 1-5 5 5 5 0 0 1 0-10 5 5 0 0 1 5 5Zm0 0" style="stroke:none;fill-rule:nonzero;fill:#000;fill-opacity:1"/><path d="M16 21a5 5 0 0 1-1.46 3.54 5 5 0 0 1-8.543-3.535 5 5 0 0 1 5-5 5 5 0 0 1 5 5Zm0 0" style="stroke:none;fill-rule:nonzero;fill:#000;fill-opacity:1"/><path d="M11 11h10v10H11Zm0 0" style="stroke:none;fill-rule:nonzero;fill:#000;fill-opacity:1"/></svg>