<svg xmlns="http://www.w3.org/2000/svg" width="32" height="128" viewBox="0 0 8.467 33.868"><path d="M3.704 2.117h1.058v1.058H3.704ZM2.117 3.704h1.058v1.058H2.117Zm1.587 0h1.058v1.058H3.704Zm1.588 0H6.35v1.058H5.292ZM3.704 5.292h1.058V6.35H3.704Zm0 5.292h1.058v1.058H3.704Zm-1.587 1.587h1.058v1.058H2.117Zm1.587 0h1.058v1.058H3.704Zm1.588 0H6.35v1.058H5.292Zm-1.588 1.588h1.058v1.058H3.704Zm0 5.292h1.058v1.058H3.704Zm-1.587 1.587h1.058v1.058H2.117Zm1.587 0h1.058v1.058H3.704Zm1.588 0H6.35v1.058H5.292Zm-1.588 1.588h1.058v1.058H3.704Zm0 5.292h1.058v1.058H3.704Zm-1.587 1.587h1.058v1.058H2.117Zm1.587 0h1.058v1.058H3.704Zm1.588 0H6.35v1.058H5.292Zm-1.588 1.588h1.058v1.058H3.704Z" style="fill:#fff;stroke-width:0;stroke:none"/><g style="fill:#c2873e;fill-opacity:1" transform="translate(-3.041 11.594)"><circle cx="-7.361" cy="7.275" r=".265" style="fill:#c2873e;stroke-width:0;fill-opacity:1" transform="matrix(0 1 1 0 0 0)"/><circle cx="-7.361" cy="5.688" r=".265" style="fill:#c2873e;stroke-width:0;fill-opacity:1" transform="matrix(0 1 1 0 0 0)"/><circle cx="7.275" cy="-.481" r=".265" style="fill:#c2873e;stroke-width:0;fill-opacity:1"/><circle cx="7.275" cy="1.106" r=".265" style="fill:#c2873e;stroke-width:0;fill-opacity:1"/><circle cx="7.276" cy="9.573" r=".265" style="fill:#c2873e;stroke-width:0;fill-opacity:1"/><circle cx="8.864" cy="9.573" r=".265" style="fill:#c2873e;stroke-width:0;fill-opacity:1"/><circle cx="-7.276" cy="18.041" r=".265" style="fill:#c2873e;stroke-width:0;fill-opacity:1" transform="scale(-1 1)"/><circle cx="-7.275" cy="19.628" r=".265" style="fill:#c2873e;stroke-width:0;fill-opacity:1" transform="scale(-1 1)"/></g></svg>