<svg xmlns="http://www.w3.org/2000/svg" width="32" height="128"><path d="M14 8h3.996v4H14Zm-6 6h4v3.996H8Zm6 0h3.996v3.996H14Zm6 0h4v3.996h-4Zm-6 6h3.996v4H14Zm0 20h3.996v4H14Zm-6 6h4v3.996H8Zm6 0h3.996v3.996H14Zm6 0h4v3.996h-4Zm-6 6h3.996v4H14Zm0 20h3.996v4H14Zm-6 6h4v3.996H8Zm6 0h3.996v3.996H14Zm6 0h4v3.996h-4Zm-6 6h3.996v4H14Zm0 20h3.996v4H14Zm-6 6h4v3.996H8Zm6 0h3.996v3.996H14Zm6 0h4v3.996h-4Zm-6 6h3.996v4H14Zm0 0" style="stroke:none;fill-rule:nonzero;fill:#fff;fill-opacity:1"/><path d="M16 17a1.003 1.003 0 1 0 .002-2.006A1.003 1.003 0 0 0 16 17Zm-5.996 0a1 1 0 0 0 1-1 1 1 0 1 0-2 0 1 1 0 0 0 1 1Zm7 25A1 1 0 0 1 16 43a1 1 0 1 1 0-2 1 1 0 0 1 1.004 1Zm0 6a1.003 1.003 0 1 1-2.006-.006 1.003 1.003 0 0 1 2.006.006Zm.004 32a1.003 1.003 0 1 1-2.006-.006 1.003 1.003 0 0 1 2.006.006Zm6 0a1.002 1.002 0 1 1-2.004-.004 1.002 1.002 0 0 1 2.004.004Zm-8.004 32a1.003 1.003 0 1 0 2.005.002 1.003 1.003 0 0 0-2.005-.002ZM15 118a1 1 0 0 0 1 1 1 1 0 1 0 0-2 1 1 0 0 0-1 1Zm0 0" style="stroke:none;fill-rule:nonzero;fill:#c2873e;fill-opacity:1"/></svg>