<svg xmlns="http://www.w3.org/2000/svg" width="32" height="32"><path d="M25 2.004 24 4l3.996 4L30 7Zm0 27.992-1-2L27.996 24 30 25Zm-18 0 1-2L4 24l-2 1ZM2 13h2v6H2Zm11 14.996h6v2h-6ZM27.996 13h2v6h-2ZM13 2h6v2h-6Zm-6 .004L8 4 4 8 2 7Zm0 0" style="stroke:none;fill-rule:nonzero;fill:#000;fill-opacity:1"/><path d="M3 5.996C1.344 5.996 0 7.34 0 9v2a3.003 3.003 0 0 0 3 3 3.003 3.003 0 0 0 2.996-3.004V9a.212.212 0 0 0 0-.07 2.94 2.94 0 0 0-.168-.934c-.008-.02-.02-.043-.027-.062l-.047-.13a.477.477 0 0 1-.027-.066 2.229 2.229 0 0 0-.063-.117.894.894 0 0 0-.035-.062c-.024-.04-.043-.079-.066-.118l-.036-.058c-.027-.04-.05-.078-.078-.113a2.508 2.508 0 0 0-.125-.161c-.011-.02-.027-.035-.039-.054l-.094-.102c-.015-.016-.03-.035-.046-.05a1.084 1.084 0 0 0-.098-.094c-.02-.016-.035-.032-.05-.047-.036-.032-.071-.059-.106-.086a.789.789 0 0 0-.051-.047 1.163 1.163 0 0 0-.113-.078c-.016-.016-.036-.028-.051-.04a1.872 1.872 0 0 0-.176-.109 1.2 1.2 0 0 0-.121-.066.374.374 0 0 0-.059-.031c-.043-.02-.082-.04-.125-.059a1.082 1.082 0 0 1-.062-.023 1.761 1.761 0 0 0-.13-.051l-.066-.024c-.042-.011-.085-.027-.128-.039l-.063-.015c-.047-.012-.09-.024-.137-.032-.023-.003-.046-.011-.066-.015-.047-.008-.09-.012-.133-.02-.023-.004-.047-.004-.07-.007A4.964 4.964 0 0 0 3 5.996ZM3 8c.55.004.996.45 1 1v2c-.004.55-.45.996-1 1-.55 0-1-.45-1-1.004V9a1 1 0 0 1 1-1Zm3-5a3 3 0 0 0 3 3h2a3 3 0 1 0-.004-6H8.93a2.948 2.948 0 0 0-.934.176.384.384 0 0 0-.062.02c-.043.019-.086.034-.13.054a.476.476 0 0 0-.066.027l-.117.059A.894.894 0 0 0 7.56.37a1.78 1.78 0 0 0-.118.067c-.02.011-.039.027-.058.039-.04.023-.078.05-.113.074-.02.011-.04.027-.055.039L7.11.671c-.02.015-.035.031-.054.047a1.978 1.978 0 0 0-.102.086c-.016.015-.035.03-.05.05a.734.734 0 0 0-.094.098L6.762 1c-.032.035-.059.07-.086.105l-.047.055a1.895 1.895 0 0 0-.078.11.607.607 0 0 0-.04.058c-.027.035-.05.074-.074.113l-.035.059a1.78 1.78 0 0 0-.066.117c-.012.024-.024.043-.031.067l-.059.12a1.082 1.082 0 0 1-.023.063c-.02.043-.032.086-.047.13l-.028.062c-.011.046-.027.09-.039.132-.004.024-.011.043-.015.067a1.545 1.545 0 0 0-.032.129c-.003.023-.011.047-.015.07-.008.043-.012.09-.02.137-.004.023-.004.043-.007.066A3.23 3.23 0 0 0 6 3Zm2 0c0-.55.445-.996.996-1h2a1 1 0 1 1 0 2h-2c-.039 0-.078 0-.113-.004A1.008 1.008 0 0 1 7.996 3ZM3 26.004a3.003 3.003 0 0 1-3-3.012v-1.996a3.002 3.002 0 0 1 3-3.004 3.003 3.003 0 0 1 2.996 3.004v2a.19.19 0 0 1 0 .067 2.93 2.93 0 0 1-.168.937c-.008.02-.02.043-.027.063l-.047.128a.302.302 0 0 0-.027.063c-.02.039-.04.082-.063.125l-.035.058-.066.114-.036.058c-.027.04-.05.078-.078.118-.011.015-.023.035-.039.054-.027.035-.055.07-.086.106-.011.02-.027.035-.039.054-.031.036-.062.067-.094.102l-.046.047c-.032.035-.067.066-.098.101-.02.012-.035.028-.05.043-.036.032-.071.059-.106.086a.269.269 0 0 1-.051.043 2.844 2.844 0 0 1-.113.082c-.016.016-.036.028-.051.04-.04.027-.074.05-.114.074l-.062.035c-.04.023-.078.043-.121.062l-.059.035c-.043.02-.082.04-.125.059l-.062.023-.13.047-.066.024c-.042.011-.085.027-.128.039-.02.004-.043.012-.063.015-.047.016-.09.024-.137.036l-.066.011-.133.024c-.023.004-.047.004-.07.008-.113.011-.227.02-.34.02ZM3 24c.55-.004 1-.45 1-1.004V21a1 1 0 1 0-2 0v2c0 .04.004.074.008.11A1 1 0 0 0 3 24Zm3 5a3 3 0 0 1 3-3h2a3 3 0 1 1-.004 6H8.93a2.948 2.948 0 0 1-.934-.176l-.062-.023c-.043-.016-.086-.031-.13-.051a.476.476 0 0 1-.066-.027l-.117-.059a.337.337 0 0 1-.062-.039c-.04-.02-.079-.043-.118-.063-.02-.011-.039-.027-.058-.039-.04-.023-.078-.05-.113-.074a.523.523 0 0 1-.055-.039c-.035-.027-.07-.058-.106-.086l-.054-.043c-.035-.027-.067-.058-.102-.09-.016-.015-.035-.03-.05-.05a.734.734 0 0 1-.094-.098c-.016-.016-.032-.027-.047-.043a2.037 2.037 0 0 1-.086-.105l-.047-.055c-.027-.04-.055-.074-.078-.113a.474.474 0 0 1-.04-.055c-.027-.035-.05-.074-.074-.113l-.035-.059a1.856 1.856 0 0 1-.066-.121.284.284 0 0 1-.031-.063l-.059-.12a1.082 1.082 0 0 0-.023-.063c-.02-.043-.032-.086-.047-.133l-.028-.063c-.011-.042-.027-.085-.039-.128-.004-.024-.011-.043-.015-.067a1.545 1.545 0 0 1-.032-.129c-.003-.023-.011-.047-.015-.07-.008-.043-.012-.09-.02-.137-.004-.023-.004-.043-.007-.066A3.304 3.304 0 0 1 6 29Zm2 0c.004.55.45.996 1 .996h2c.55 0 .996-.445 1-.996 0-.555-.45-1.004-1.004-1.004H9A1.008 1.008 0 0 0 8 29Zm21-2.996a3.007 3.007 0 0 0 3-3.008V21a3.002 3.002 0 0 0-3-3.004c-1.656 0-3 1.344-3 3.004v2.066c.008.32.066.637.172.938l.023.062c.016.043.035.086.051.13.012.019.02.038.027.062.02.039.04.082.063.12.012.024.02.044.031.063l.07.114.036.058c.027.04.05.078.078.114.012.02.023.039.039.058a.92.92 0 0 0 .082.106l.043.054.094.102.046.047a2.258 2.258 0 0 0 .145.144c.035.032.07.059.105.086.02.016.036.031.055.043.035.028.074.055.113.082.016.016.036.028.051.04.04.027.074.05.113.073l.063.036c.04.023.078.043.121.062l.059.035c.043.02.082.04.125.059.02.008.039.016.062.02.04.019.082.035.125.05l.067.024c.043.011.086.027.132.039l.063.015c.043.016.09.024.133.035l.066.012.137.024c.023.004.047.004.07.007.113.012.227.02.34.02ZM29 24c-.555 0-1.004-.45-1.004-1.004V21c.004-.555.453-1 1.004-1a1 1 0 0 1 1 1v2a1.001 1.001 0 0 1-1 1Zm-2.996 5a3.01 3.01 0 0 0-.883-2.125A2.987 2.987 0 0 0 22.996 26H21a3.002 3.002 0 0 0-3.004 3c0 1.656 1.344 3 3.004 3h2.07c.317-.008.633-.066.934-.176l.062-.023c.043-.016.086-.031.13-.051a.768.768 0 0 0 .062-.027l.12-.059a.337.337 0 0 0 .063-.039c.04-.02.075-.043.114-.063.02-.011.039-.027.058-.039.04-.023.078-.05.114-.074.02-.012.039-.027.058-.039.035-.027.07-.058.106-.086l.054-.043c.035-.027.067-.058.102-.09.015-.015.031-.03.047-.05a1.28 1.28 0 0 0 .097-.098c.016-.016.032-.027.047-.043.032-.035.059-.07.086-.105.016-.02.031-.036.043-.055.028-.04.055-.074.082-.113a.474.474 0 0 0 .04-.055c.027-.035.05-.074.073-.113l.036-.059c.023-.04.043-.082.062-.121a.743.743 0 0 0 .035-.063l.059-.12c.008-.024.016-.044.02-.063.019-.043.035-.086.05-.133l.024-.063c.011-.042.027-.085.039-.128.004-.024.011-.043.015-.067.016-.043.024-.086.035-.129l.012-.07.024-.137c.004-.023.004-.043.007-.066A3.23 3.23 0 0 0 26 29ZM24 29c-.004.55-.45.996-1.004.996H21c-.55 0-.996-.445-1-.996 0-.55.445-1 1-1.004h2c.04.004.074.004.11.008.507.058.89.488.89.996Zm5-23a3.003 3.003 0 0 1 3 3v2a3.003 3.003 0 0 1-3 3c-1.656 0-3-1.344-3-3.004V8.93c.008-.317.066-.633.172-.934l.023-.062c.016-.043.035-.086.051-.13a.477.477 0 0 0 .027-.066c.02-.039.04-.078.063-.117.012-.023.02-.043.031-.062l.07-.118.036-.058c.027-.04.05-.078.078-.113.012-.02.023-.04.039-.055a.965.965 0 0 1 .082-.106l.043-.054.094-.102c.015-.016.03-.035.046-.05a1.06 1.06 0 0 1 .094-.094c.02-.016.035-.032.051-.047.035-.032.07-.059.105-.086l.055-.047a1.13 1.13 0 0 1 .113-.078c.016-.016.036-.028.051-.04a1.872 1.872 0 0 1 .176-.109 1.2 1.2 0 0 1 .121-.066.374.374 0 0 1 .059-.031c.043-.02.082-.04.125-.059.02-.008.039-.016.062-.023.04-.02.082-.035.125-.051l.067-.024c.043-.011.086-.027.132-.039l.063-.015c.043-.012.09-.024.133-.032.023-.003.047-.011.066-.015.047-.008.094-.012.137-.02.023-.004.047-.004.07-.007.113-.012.227-.02.34-.024Zm0 2c-.55 0-1 .445-1.004 1v2A1.003 1.003 0 0 0 30 10.996V9a1 1 0 0 0-1-1Zm-2.996-5a3.01 3.01 0 0 1-.883 2.125A2.987 2.987 0 0 1 22.996 6H21a3.002 3.002 0 0 1-3.004-3c0-1.656 1.344-3 3.004-3h2.07c.317.008.633.066.934.176.02.004.043.012.062.02.043.019.086.034.13.054l.062.027.12.059a.894.894 0 0 1 .063.035c.04.02.075.043.114.067.02.011.039.027.058.039.04.023.078.05.114.074.02.011.039.027.058.039l.106.082c.02.015.035.031.054.047.035.027.067.054.102.086a.6.6 0 0 1 .047.05c.035.032.066.063.097.098l.047.047c.032.035.059.07.086.105.016.02.031.036.043.055.028.035.055.074.082.11.016.02.028.039.04.058.027.035.05.074.073.113l.036.059c.023.04.043.078.062.117.012.024.024.043.035.067l.059.12c.008.024.016.044.02.063.019.043.035.086.05.13l.024.062c.011.046.027.09.039.132.004.024.011.043.015.067.016.043.024.086.035.129l.012.07.024.137c.004.023.004.043.007.066.012.113.02.227.02.34ZM24 3c0-.55-.45-1-1.004-1H21a1 1 0 1 0 0 2h2c.04 0 .074 0 .11-.004.507-.058.89-.488.89-.996Zm0 0" style="stroke:none;fill-rule:nonzero;fill:#666;fill-opacity:1"/></svg>