<svg xmlns="http://www.w3.org/2000/svg" width="32" height="128"><path d="M8 8h4v4H8Zm6 0h3.996v4H14Zm6 0h4v4h-4ZM8 14h4v3.996H8Zm6 0h3.996v3.996H14Zm6 0h4v3.996h-4ZM8 20h4v4H8Zm6 0h3.996v4H14Zm6 0h4v4h-4ZM8 40h4v4H8Zm6 0h3.996v4H14Zm6 0h4v4h-4ZM8 46h4v3.996H8Zm6 0h3.996v3.996H14Zm6 0h4v3.996h-4ZM8 52h4v4H8Zm6 0h3.996v4H14Zm6 0h4v4h-4ZM8 72h4v4H8Zm6 0h3.996v4H14Zm6 0h4v4h-4ZM8 78h4v3.996H8Zm6 0h3.996v3.996H14Zm6 0h4v3.996h-4ZM8 84h4v4H8Zm6 0h3.996v4H14Zm6 0h4v4h-4ZM8 104h4v4H8Zm6 0h3.996v4H14Zm6 0h4v4h-4Zm-12 6h4v3.996H8Zm6 0h3.996v3.996H14Zm6 0h4v3.996h-4Zm-12 6h4v4H8Zm6 0h3.996v4H14Zm6 0h4v4h-4Zm0 0" style="stroke:none;fill-rule:nonzero;fill:#fff;fill-opacity:1"/><path d="M21.996 17a1 1 0 0 0 1-1 1 1 0 1 0-2 0 1 1 0 0 0 1 1Zm-12-6c.555 0 1-.445 1-1 0-.555-.445-1-1-1-.555 0-1 .445-1 1 0 .555.445 1 1 1Zm6 6a1.002 1.002 0 1 0-.004-2.004A1.002 1.002 0 0 0 15.996 17Zm-6 6c.555 0 1-.445 1-1 0-.555-.445-1-1-1-.555 0-1 .445-1 1 0 .555.445 1 1 1Zm6 0a1 1 0 1 0 0-2 1 1 0 1 0 0 2Zm-5 31c0 .555-.445 1-1 1-.555 0-1-.445-1-1 0-.555.445-1 1-1 .555 0 1 .445 1 1Zm6-12a1 1 0 0 1-1 1 1 1 0 1 1 0-2 1 1 0 0 1 1 1Zm0 12a1 1 0 0 1-1 1 1 1 0 1 1 0-2 1 1 0 0 1 1 1Zm6 0c0 .555-.445 1-1 1-.555 0-1-.445-1-1 0-.555.445-1 1-1 .555 0 1 .445 1 1Zm0-6a1 1 0 1 1-2 0 1 1 0 1 1 2 0ZM17 86a1 1 0 0 1-1 1 1 1 0 1 1 0-2 1 1 0 0 1 1 1Zm-6-12c0 .555-.445 1-1 1-.555 0-1-.445-1-1 0-.555.445-1 1-1 .555 0 1 .445 1 1Zm6 6a1.002 1.002 0 1 1-2.004-.004A1.002 1.002 0 0 1 17 80Zm6-6c0 .555-.445 1-1 1-.555 0-1-.445-1-1 0-.555.445-1 1-1 .555 0 1 .445 1 1Zm0 6a1 1 0 1 1-2 0 1 1 0 1 1 2 0Zm-2.004 26.004c0 .555.445 1 1 1 .555 0 1-.445 1-1 0-.555-.445-1-1-1-.555 0-1 .445-1 1Zm-12 6a1 1 0 1 0 2 0 1 1 0 1 0-2 0Zm12 0a1 1 0 1 0 2 0 1 1 0 1 0-2 0Zm0 6c0 .555.445 1 1 1 .555 0 1-.445 1-1 0-.555-.445-1-1-1-.555 0-1 .445-1 1Zm-6.004 0a1 1 0 0 0 1.004 1 1 1 0 1 0 0-2 1 1 0 0 0-1.004 1Zm0 0" style="stroke:none;fill-rule:nonzero;fill:#c2873e;fill-opacity:1"/></svg>