<svg xmlns="http://www.w3.org/2000/svg" width="32" height="128"><path d="m25 98-1 2 4 4 2-1Zm0 28-1-2 4-4 2 1Zm-18 0 1-2-4-4-2 1Zm-5-17h2v6H2Zm11 15h6v2h-6Zm15-15h2v6h-2zM13 98h6v2h-6Zm-6 0 1 2-4 4-2-1Zm0 0" style="fill:#000;fill-opacity:1;fill-rule:nonzero;stroke:none"/><path d="M3 102a3 3 0 0 0-3 3v2a3 3 0 0 0 3 3 3 3 0 0 0 3-3v-2a3 3 0 0 0-3-3zm0 2a1 1 0 0 1 1 1v2a1 1 0 0 1-1 1 1 1 0 0 1-1-1v-2a1 1 0 0 1 1-1zm0 10a3 3 0 0 0-3 3v2a3 3 0 0 0 3 3 3 3 0 0 0 3-3v-2a3 3 0 0 0-3-3zm0 2a1 1 0 0 1 1 1v2a1 1 0 0 1-1 1 1 1 0 0 1-1-1v-2a1 1 0 0 1 1-1zm26-14a3 3 0 0 0-3 3v2a3 3 0 0 0 3 3 3 3 0 0 0 3-3v-2a3 3 0 0 0-3-3zm0 2a1 1 0 0 1 1 1v2a1 1 0 0 1-1 1 1 1 0 0 1-1-1v-2a1 1 0 0 1 1-1zm0 10a3 3 0 0 0-3 3v2a3 3 0 0 0 3 3 3 3 0 0 0 3-3v-2a3 3 0 0 0-3-3zm0 2a1 1 0 0 1 1 1v2a1 1 0 0 1-1 1 1 1 0 0 1-1-1v-2a1 1 0 0 1 1-1zM14 99a3 3 0 0 0-3-3H9a3 3 0 0 0-3 3 3 3 0 0 0 3 3h2a3 3 0 0 0 3-3zm-2 0a1 1 0 0 1-1 1H9a1 1 0 0 1-1-1 1 1 0 0 1 1-1h2a1 1 0 0 1 1 1zm14 0a3 3 0 0 0-3-3h-2a3 3 0 0 0-3 3 3 3 0 0 0 3 3h2a3 3 0 0 0 3-3zm-2 0a1 1 0 0 1-1 1h-2a1 1 0 0 1-1-1 1 1 0 0 1 1-1h2a1 1 0 0 1 1 1zm-10 26a3 3 0 0 0-3-3H9a3 3 0 0 0-3 3 3 3 0 0 0 3 3h2a3 3 0 0 0 3-3zm-2 0a1 1 0 0 1-1 1H9a1 1 0 0 1-1-1 1 1 0 0 1 1-1h2a1 1 0 0 1 1 1zm14 0a3 3 0 0 0-3-3h-2a3 3 0 0 0-3 3 3 3 0 0 0 3 3h2a3 3 0 0 0 3-3zm-2 0a1 1 0 0 1-1 1h-2a1 1 0 0 1-1-1 1 1 0 0 1 1-1h2a1 1 0 0 1 1 1z" style="fill:#747474;fill-opacity:1;stroke:none;stroke-width:.1;stop-color:#000"/><path d="m25 2-1 2 4 4 2-1Zm0 28-1-2 4-4 2 1ZM7 30l1-2-4-4-2 1ZM2 13h2v6H2Zm11 15h6v2h-6Zm15-15h2v6h-2zM13 2h6v2h-6ZM7 2l1 2-4 4-2-1Zm0 0" style="fill:#000;fill-opacity:1;fill-rule:nonzero;stroke:none"/><path d="M3 6a3 3 0 0 0-3 3v2a3 3 0 0 0 3 3 3 3 0 0 0 3-3V9a3 3 0 0 0-3-3Zm0 2a1 1 0 0 1 1 1v2a1 1 0 0 1-1 1 1 1 0 0 1-1-1V9a1 1 0 0 1 1-1Zm0 10a3 3 0 0 0-3 3v2a3 3 0 0 0 3 3 3 3 0 0 0 3-3v-2a3 3 0 0 0-3-3Zm0 2a1 1 0 0 1 1 1v2a1 1 0 0 1-1 1 1 1 0 0 1-1-1v-2a1 1 0 0 1 1-1zM29 6a3 3 0 0 0-3 3v2a3 3 0 0 0 3 3 3 3 0 0 0 3-3V9a3 3 0 0 0-3-3Zm0 2a1 1 0 0 1 1 1v2a1 1 0 0 1-1 1 1 1 0 0 1-1-1V9a1 1 0 0 1 1-1zm0 10a3 3 0 0 0-3 3v2a3 3 0 0 0 3 3 3 3 0 0 0 3-3v-2a3 3 0 0 0-3-3zm0 2a1 1 0 0 1 1 1v2a1 1 0 0 1-1 1 1 1 0 0 1-1-1v-2a1 1 0 0 1 1-1zM14 3a3 3 0 0 0-3-3H9a3 3 0 0 0-3 3 3 3 0 0 0 3 3h2a3 3 0 0 0 3-3Zm-2 0a1 1 0 0 1-1 1H9a1 1 0 0 1-1-1 1 1 0 0 1 1-1h2a1 1 0 0 1 1 1zm14 0a3 3 0 0 0-3-3h-2a3 3 0 0 0-3 3 3 3 0 0 0 3 3h2a3 3 0 0 0 3-3Zm-2 0a1 1 0 0 1-1 1h-2a1 1 0 0 1-1-1 1 1 0 0 1 1-1h2a1 1 0 0 1 1 1zM14 29a3 3 0 0 0-3-3H9a3 3 0 0 0-3 3 3 3 0 0 0 3 3h2a3 3 0 0 0 3-3zm-2 0a1 1 0 0 1-1 1H9a1 1 0 0 1-1-1 1 1 0 0 1 1-1h2a1 1 0 0 1 1 1zm14 0a3 3 0 0 0-3-3h-2a3 3 0 0 0-3 3 3 3 0 0 0 3 3h2a3 3 0 0 0 3-3zm-2 0a1 1 0 0 1-1 1h-2a1 1 0 0 1-1-1 1 1 0 0 1 1-1h2a1 1 0 0 1 1 1z" style="fill:#747474;fill-opacity:1;stroke:none;stroke-width:.1;stop-color:#000"/><path d="m25 34-1 2 4 4 2-1Zm0 28-1-2 4-4 2 1ZM7 62l1-2-4-4-2 1ZM2 45h2v6H2Zm11 15h6v2h-6Zm15-15h2v6h-2zM13 34h6v2h-6Zm-6 0 1 2-4 4-2-1Zm0 0" style="fill:#000;fill-opacity:1;fill-rule:nonzero;stroke:none"/><path d="M3 38a3 3 0 0 0-3 3v2a3 3 0 0 0 3 3 3 3 0 0 0 3-3v-2a3 3 0 0 0-3-3Zm0 2a1 1 0 0 1 1 1v2a1 1 0 0 1-1 1 1 1 0 0 1-1-1v-2a1 1 0 0 1 1-1zm0 10a3 3 0 0 0-3 3v2a3 3 0 0 0 3 3 3 3 0 0 0 3-3v-2a3 3 0 0 0-3-3Zm0 2a1 1 0 0 1 1 1v2a1 1 0 0 1-1 1 1 1 0 0 1-1-1v-2a1 1 0 0 1 1-1zm26-14a3 3 0 0 0-3 3v2a3 3 0 0 0 3 3 3 3 0 0 0 3-3v-2a3 3 0 0 0-3-3zm0 2a1 1 0 0 1 1 1v2a1 1 0 0 1-1 1 1 1 0 0 1-1-1v-2a1 1 0 0 1 1-1zm0 10a3 3 0 0 0-3 3v2a3 3 0 0 0 3 3 3 3 0 0 0 3-3v-2a3 3 0 0 0-3-3zm0 2a1 1 0 0 1 1 1v2a1 1 0 0 1-1 1 1 1 0 0 1-1-1v-2a1 1 0 0 1 1-1zM14 35a3 3 0 0 0-3-3H9a3 3 0 0 0-3 3 3 3 0 0 0 3 3h2a3 3 0 0 0 3-3zm-2 0a1 1 0 0 1-1 1H9a1 1 0 0 1-1-1 1 1 0 0 1 1-1h2a1 1 0 0 1 1 1zm14 0a3 3 0 0 0-3-3h-2a3 3 0 0 0-3 3 3 3 0 0 0 3 3h2a3 3 0 0 0 3-3zm-2 0a1 1 0 0 1-1 1h-2a1 1 0 0 1-1-1 1 1 0 0 1 1-1h2a1 1 0 0 1 1 1zM14 61a3 3 0 0 0-3-3H9a3 3 0 0 0-3 3 3 3 0 0 0 3 3h2a3 3 0 0 0 3-3zm-2 0a1 1 0 0 1-1 1H9a1 1 0 0 1-1-1 1 1 0 0 1 1-1h2a1 1 0 0 1 1 1zm14 0a3 3 0 0 0-3-3h-2a3 3 0 0 0-3 3 3 3 0 0 0 3 3h2a3 3 0 0 0 3-3zm-2 0a1 1 0 0 1-1 1h-2a1 1 0 0 1-1-1 1 1 0 0 1 1-1h2a1 1 0 0 1 1 1z" style="fill:#747474;fill-opacity:1;stroke:none;stroke-width:.1;stop-color:#000"/><path d="m25 66-1 2 4 4 2-1Zm0 28-1-2 4-4 2 1ZM7 94l1-2-4-4-2 1ZM2 77h2v6H2Zm11 15h6v2h-6Zm15-15h2v6h-2zM13 66h6v2h-6Zm-6 0 1 2-4 4-2-1Zm0 0" style="fill:#000;fill-opacity:1;fill-rule:nonzero;stroke:none"/><path d="M3 70a3 3 0 0 0-3 3v2a3 3 0 0 0 3 3 3 3 0 0 0 3-3v-2a3 3 0 0 0-3-3Zm0 2a1 1 0 0 1 1 1v2a1 1 0 0 1-1 1 1 1 0 0 1-1-1v-2a1 1 0 0 1 1-1zm0 10a3 3 0 0 0-3 3v2a3 3 0 0 0 3 3 3 3 0 0 0 3-3v-2a3 3 0 0 0-3-3Zm0 2a1 1 0 0 1 1 1v2a1 1 0 0 1-1 1 1 1 0 0 1-1-1v-2a1 1 0 0 1 1-1zm26-14a3 3 0 0 0-3 3v2a3 3 0 0 0 3 3 3 3 0 0 0 3-3v-2a3 3 0 0 0-3-3zm0 2a1 1 0 0 1 1 1v2a1 1 0 0 1-1 1 1 1 0 0 1-1-1v-2a1 1 0 0 1 1-1zm0 10a3 3 0 0 0-3 3v2a3 3 0 0 0 3 3 3 3 0 0 0 3-3v-2a3 3 0 0 0-3-3zm0 2a1 1 0 0 1 1 1v2a1 1 0 0 1-1 1 1 1 0 0 1-1-1v-2a1 1 0 0 1 1-1zM14 67a3 3 0 0 0-3-3H9a3 3 0 0 0-3 3 3 3 0 0 0 3 3h2a3 3 0 0 0 3-3zm-2 0a1 1 0 0 1-1 1H9a1 1 0 0 1-1-1 1 1 0 0 1 1-1h2a1 1 0 0 1 1 1zm14 0a3 3 0 0 0-3-3h-2a3 3 0 0 0-3 3 3 3 0 0 0 3 3h2a3 3 0 0 0 3-3zm-2 0a1 1 0 0 1-1 1h-2a1 1 0 0 1-1-1 1 1 0 0 1 1-1h2a1 1 0 0 1 1 1zM14 93a3 3 0 0 0-3-3H9a3 3 0 0 0-3 3 3 3 0 0 0 3 3h2a3 3 0 0 0 3-3zm-2 0a1 1 0 0 1-1 1H9a1 1 0 0 1-1-1 1 1 0 0 1 1-1h2a1 1 0 0 1 1 1zm14 0a3 3 0 0 0-3-3h-2a3 3 0 0 0-3 3 3 3 0 0 0 3 3h2a3 3 0 0 0 3-3zm-2 0a1 1 0 0 1-1 1h-2a1 1 0 0 1-1-1 1 1 0 0 1 1-1h2a1 1 0 0 1 1 1z" style="fill:#747474;fill-opacity:1;stroke:none;stroke-width:.1;stop-color:#000"/></svg>