<svg xmlns="http://www.w3.org/2000/svg" width="32" height="128" viewBox="0 0 8.467 33.868"><path d="M2.117 2.117h1.058v1.058H2.117Zm1.587 0h1.058v1.058H3.704Zm1.588 0H6.35v1.058H5.292ZM2.117 3.704h1.058v1.058H2.117Zm1.587 0h1.058v1.058H3.704Zm1.588 0H6.35v1.058H5.292ZM2.117 5.292h1.058V6.35H2.117Zm1.587 0h1.058V6.35H3.704Zm1.588 0H6.35V6.35H5.292Zm-3.175 5.292h1.058v1.058H2.117Zm1.587 0h1.058v1.058H3.704Zm1.588 0H6.35v1.058H5.292Zm-3.175 1.587h1.058v1.058H2.117Zm1.587 0h1.058v1.058H3.704Zm1.588 0H6.35v1.058H5.292Zm-3.175 1.588h1.058v1.058H2.117Zm1.587 0h1.058v1.058H3.704Zm1.588 0H6.35v1.058H5.292Zm-3.175 5.292h1.058v1.058H2.117Zm1.587 0h1.058v1.058H3.704Zm1.588 0H6.35v1.058H5.292Zm-3.175 1.587h1.058v1.058H2.117Zm1.587 0h1.058v1.058H3.704Zm1.588 0H6.35v1.058H5.292Zm-3.175 1.588h1.058v1.058H2.117Zm1.587 0h1.058v1.058H3.704Zm1.588 0H6.35v1.058H5.292Zm-3.175 5.292h1.058v1.058H2.117Zm1.587 0h1.058v1.058H3.704Zm1.588 0H6.35v1.058H5.292Zm-3.175 1.587h1.058v1.058H2.117Zm1.587 0h1.058v1.058H3.704Zm1.588 0H6.35v1.058H5.292Zm-3.175 1.588h1.058v1.058H2.117Zm1.587 0h1.058v1.058H3.704Zm1.588 0H6.35v1.058H5.292Z" style="fill:#fff;stroke-width:0"/><g transform="translate(-24.688 14.329)"><g style="fill:#c2873e;fill-opacity:1;stroke:none" transform="matrix(0 1 1 0 24.687 -14.329)"><circle cx="4.233" cy="5.821" r=".265" style="fill:#c2873e;fill-opacity:1;stroke:none;stroke-width:0"/><circle cx="2.646" cy="2.646" r=".265" style="fill:#c2873e;fill-opacity:1;stroke:none;stroke-width:0"/><circle cx="4.233" cy="4.233" r=".265" style="fill:#c2873e;fill-opacity:1;stroke:none;stroke-width:0"/><circle cx="5.821" cy="2.646" r=".265" style="fill:#c2873e;fill-opacity:1;stroke:none;stroke-width:0"/><circle cx="5.821" cy="4.233" r=".265" style="fill:#c2873e;fill-opacity:1;stroke:none;stroke-width:0"/></g><circle cx="27.333" cy="-.041" r=".265" style="fill:#c2873e;fill-opacity:1;stroke:none;stroke-width:0"/><circle cx="28.92" cy="-3.216" r=".265" style="fill:#c2873e;fill-opacity:1;stroke:none;stroke-width:0"/><circle cx="28.92" cy="-.041" r=".265" style="fill:#c2873e;fill-opacity:1;stroke:none;stroke-width:0"/><circle cx="30.508" cy="-.041" r=".265" style="fill:#c2873e;fill-opacity:1;stroke:none;stroke-width:0"/><circle cx="30.508" cy="-1.629" r=".265" style="fill:#c2873e;fill-opacity:1;stroke:none;stroke-width:0"/><circle cx="28.921" cy="8.426" r=".265" style="fill:#c2873e;fill-opacity:1;stroke:none;stroke-width:0"/><circle cx="27.334" cy="5.251" r=".265" style="fill:#c2873e;fill-opacity:1;stroke:none;stroke-width:0"/><circle cx="28.921" cy="6.838" r=".265" style="fill:#c2873e;fill-opacity:1;stroke:none;stroke-width:0"/><circle cx="30.509" cy="5.251" r=".265" style="fill:#c2873e;fill-opacity:1;stroke:none;stroke-width:0"/><circle cx="30.509" cy="6.838" r=".265" style="fill:#c2873e;fill-opacity:1;stroke:none;stroke-width:0"/><g style="fill:#c2873e;fill-opacity:1;stroke:none" transform="matrix(-1 0 0 1 24.687 19.54)"><circle cx="-5.821" cy="-5.821" r=".265" style="fill:#c2873e;fill-opacity:1;stroke:none;stroke-width:0"/><circle cx="-2.646" cy="-4.233" r=".265" style="fill:#c2873e;fill-opacity:1;stroke:none;stroke-width:0"/><circle cx="-5.821" cy="-4.233" r=".265" style="fill:#c2873e;fill-opacity:1;stroke:none;stroke-width:0"/><circle cx="-5.821" cy="-2.646" r=".265" style="fill:#c2873e;fill-opacity:1;stroke:none;stroke-width:0"/><circle cx="-4.233" cy="-2.646" r=".265" style="fill:#c2873e;fill-opacity:1;stroke:none;stroke-width:0"/></g></g></svg>