<svg xmlns="http://www.w3.org/2000/svg" width="32" height="128"><path d="M14 8h4v4h-4Zm-6 6h4v4H8Zm6 0h4v4h-4Zm6 0h4v4h-4Zm-6 6h4v4h-4Zm0 20h4v4h-4Zm-6 6h4v4H8Zm6 0h4v4h-4Zm6 0h4v4h-4Zm-6 6h4v4h-4Zm0 20h4v4h-4Zm-6 6h4v4H8Zm6 0h4v4h-4Zm6 0h4v4h-4Zm-6 6h4v4h-4Zm0 20h4v4h-4Zm-6 6h4v4H8Zm6 0h4v4h-4Zm6 0h4v4h-4Zm-6 6h4v4h-4Zm0 0" style="stroke:none;fill-rule:nonzero;fill:#fff;fill-opacity:1"/><path d="M16 17a1 1 0 1 0 0-2 1 1 0 0 0 0 2Zm-6 0a1 1 0 0 0 1-1 1 1 0 1 0-2 0 1 1 0 0 0 1 1Zm7 25a1 1 0 0 1-1 1 1 1 0 1 1 0-2 1 1 0 0 1 1 1Zm0 6a1 1 0 1 1-2 0 1 1 0 0 1 2 0Zm0 32a1 1 0 1 1-2 0 1 1 0 0 1 2 0Zm6 0a1 1 0 1 1-2 0 1 1 0 0 1 2 0Zm-8 32a1 1 0 1 0 2 0 1 1 0 0 0-2 0Zm0 6a1 1 0 0 0 1 1 1 1 0 1 0 0-2 1 1 0 0 0-1 1Zm0 0" style="stroke:none;fill-rule:nonzero;fill:#c2873e;fill-opacity:1"/></svg>