<svg xmlns="http://www.w3.org/2000/svg" width="32" height="32"><path d="m25 2-1 2 4 4 2-1Zm0 28-1-2 4-4 2 1ZM7 30l1-2-4-4-2 1ZM2 13h2v6H2Zm11 15h6v2h-6Zm15-15h2v6h-2ZM13 2h6v2h-6ZM7 2l1 2-4 4-2-1Zm0 0" style="stroke:none;fill-rule:nonzero;fill:#000;fill-opacity:1"/><path d="M3 6a3 3 0 0 0-3 3v2a3 3 0 0 0 3 3 3 3 0 0 0 3-3V9a3 3 0 0 0-3-3Zm0 2a1 1 0 0 1 1 1v2a1 1 0 0 1-1 1 1 1 0 0 1-1-1V9a1 1 0 0 1 1-1Zm0 10a3 3 0 0 0-3 3v2a3 3 0 0 0 3 3 3 3 0 0 0 3-3v-2a3 3 0 0 0-3-3Zm0 2a1 1 0 0 1 1 1v2a1 1 0 0 1-1 1 1 1 0 0 1-1-1v-2a1 1 0 0 1 1-1zM29 6a3 3 0 0 0-3 3v2a3 3 0 0 0 3 3 3 3 0 0 0 3-3V9a3 3 0 0 0-3-3Zm0 2a1 1 0 0 1 1 1v2a1 1 0 0 1-1 1 1 1 0 0 1-1-1V9a1 1 0 0 1 1-1zm0 10a3 3 0 0 0-3 3v2a3 3 0 0 0 3 3 3 3 0 0 0 3-3v-2a3 3 0 0 0-3-3zm0 2a1 1 0 0 1 1 1v2a1 1 0 0 1-1 1 1 1 0 0 1-1-1v-2a1 1 0 0 1 1-1zM14 3a3 3 0 0 0-3-3H9a3 3 0 0 0-3 3 3 3 0 0 0 3 3h2a3 3 0 0 0 3-3Zm-2 0a1 1 0 0 1-1 1H9a1 1 0 0 1-1-1 1 1 0 0 1 1-1h2a1 1 0 0 1 1 1zm14 0a3 3 0 0 0-3-3h-2a3 3 0 0 0-3 3 3 3 0 0 0 3 3h2a3 3 0 0 0 3-3Zm-2 0a1 1 0 0 1-1 1h-2a1 1 0 0 1-1-1 1 1 0 0 1 1-1h2a1 1 0 0 1 1 1zM14 29a3 3 0 0 0-3-3H9a3 3 0 0 0-3 3 3 3 0 0 0 3 3h2a3 3 0 0 0 3-3zm-2 0a1 1 0 0 1-1 1H9a1 1 0 0 1-1-1 1 1 0 0 1 1-1h2a1 1 0 0 1 1 1zm14 0a3 3 0 0 0-3-3h-2a3 3 0 0 0-3 3 3 3 0 0 0 3 3h2a3 3 0 0 0 3-3zm-2 0a1 1 0 0 1-1 1h-2a1 1 0 0 1-1-1 1 1 0 0 1 1-1h2a1 1 0 0 1 1 1z" style="fill:#747474;fill-opacity:1;stroke:none;stroke-width:.1;stop-color:#000"/></svg>