<svg xmlns="http://www.w3.org/2000/svg" width="32" height="32"><defs><linearGradient id="a" x1="1.323" x2="7.144" y1="1.323" y2="7.144" gradientTransform="rotate(.042) scale(3.77938)" gradientUnits="userSpaceOnUse"><stop offset="0" style="stop-color:#fff;stop-opacity:0"/><stop offset="1" style="stop-color:#000;stop-opacity:1"/></linearGradient><linearGradient id="b" x1="1.588" x2="6.879" y1="1.588" y2="6.879" gradientTransform="rotate(.042) scale(3.77938)" gradientUnits="userSpaceOnUse"><stop offset="0" style="stop-color:#000;stop-opacity:1"/><stop offset="1" style="stop-color:#000;stop-opacity:0"/></linearGradient></defs><path d="M16 0C7.164 0 0 7.164 0 16c.004 8.84 7.164 16 16 16 8.84-.004 16-7.164 16-16-.004-8.84-7.164-16-16-16Zm0 1c8.285.004 15 6.719 15 15-.004 8.285-6.715 14.996-15 15C7.719 31 1 24.285.996 16 .996 7.715 7.715.996 16 .996Zm0 0" style="stroke:none;fill-rule:nonzero;fill:url(#a)"/><path d="M16 1C7.715 1 .996 7.715.996 16 1 24.285 7.72 31 16 31c8.285-.004 14.996-6.715 15-15C31 7.719 24.285 1 16 .996Zm0 1c7.734 0 14.004 6.27 14 14 0 7.734-6.266 14-14 14-7.73.004-14-6.266-14-14C1.996 8.27 8.27 1.996 16 2Zm0 0" style="stroke:none;fill-rule:nonzero;fill:url(#b)"/></svg>