<svg xmlns="http://www.w3.org/2000/svg" xmlns:xlink="http://www.w3.org/1999/xlink" width="32" height="32" viewBox="0 0 8.467 8.467"><defs><linearGradient id="b"><stop offset="0" style="stop-color:#000;stop-opacity:1"/><stop offset="1" style="stop-color:#000;stop-opacity:0"/></linearGradient><linearGradient id="a"><stop offset="0" style="stop-color:#fff;stop-opacity:0"/><stop offset="1" style="stop-color:#000;stop-opacity:1"/></linearGradient><linearGradient xlink:href="#a" id="c" x1="1.323" x2="7.144" y1="1.323" y2="7.144" gradientUnits="userSpaceOnUse"/><linearGradient xlink:href="#b" id="d" x1="1.588" x2="6.879" y1="1.588" y2="6.879" gradientUnits="userSpaceOnUse"/></defs><path d="M4.234 0A4.234 4.234 0 0 0 0 4.234a4.234 4.234 0 0 0 4.234 4.233 4.234 4.234 0 0 0 4.233-4.234A4.234 4.234 0 0 0 4.233 0zm0 .265a3.969 3.969 0 0 1 3.968 3.969 3.969 3.969 0 0 1-3.968 3.968 3.969 3.969 0 0 1-3.97-3.968 3.969 3.969 0 0 1 3.97-3.97z" style="fill:url(#c);fill-opacity:1;stroke-width:.0264594;stop-color:#000"/><path d="M4.234.265a3.969 3.969 0 0 0-3.97 3.969 3.969 3.969 0 0 0 3.97 3.968 3.969 3.969 0 0 0 3.968-3.968A3.969 3.969 0 0 0 4.234.264zm0 .264a3.704 3.704 0 0 1 3.704 3.705 3.704 3.704 0 0 1-3.704 3.704A3.704 3.704 0 0 1 .529 4.234 3.704 3.704 0 0 1 4.234.529z" style="fill:url(#d);fill-opacity:1;stroke-width:.0264594;stop-color:#000"/></svg>