<svg xmlns="http://www.w3.org/2000/svg" width="32" height="32"><defs><linearGradient id="a" x1="1.323" x2="7.144" y1="1.323" y2="7.144" gradientTransform="rotate(.042) scale(3.77938)" gradientUnits="userSpaceOnUse"><stop offset="0" style="stop-color:#fff;stop-opacity:0"/><stop offset="1" style="stop-color:#000;stop-opacity:1"/></linearGradient><linearGradient id="b" x1="1.588" x2="6.879" y1="1.588" y2="6.879" gradientTransform="rotate(.042) scale(3.77938)" gradientUnits="userSpaceOnUse"><stop offset="0" style="stop-color:#000;stop-opacity:1"/><stop offset="1" style="stop-color:#000;stop-opacity:0"/></linearGradient></defs><path d="M16 0C7.164 0 0 7.164 0 16c0 8.84 7.164 16 16 16 8.84 0 16-7.164 16-16 0-8.84-7.164-16-16-16Zm0 1c8.285 0 15 6.719 15 15 0 8.285-6.715 15-15 15-8.281 0-15-6.715-15-15S7.715 1 16 1Zm0 0" style="stroke:none;fill-rule:nonzero;fill:url(#a)"/><path d="M16 1C7.715 1 1 7.715 1 16s6.72 15 15 15c8.285 0 15-6.715 15-15 0-8.281-6.715-15-15-15Zm0 1c7.734 0 14 6.27 14 14 0 7.734-6.266 14-14 14-7.73 0-14-6.266-14-14C2 8.27 8.27 2 16 2Zm0 0" style="stroke:none;fill-rule:nonzero;fill:url(#b)"/></svg>