<svg xmlns="http://www.w3.org/2000/svg" width="32" height="32"><path d="M5 10c-2.207 0-4 2.688-4 6 0 3.313 1.79 6 4 6 1.43 0 2.75-1.145 3.46-3H6.32c-.367.645-.836 1-1.324 1C3.891 19.992 3 18.203 3 16c0-2.207.895-3.996 2-4 .488 0 .957.355 1.324 1h2.14C7.75 11.145 6.43 10 5 10Zm12 6v2h2.004a1.003 1.003 0 0 1 0 2A2.002 2.002 0 0 0 17 22v4h4.996v-2h-3v-1.055c0-.015.004-.03.008-.047v-.031l.008-.027c0-.02.004-.035.008-.055l.011-.05c.004-.012.008-.024.008-.032l.012-.027a.056.056 0 0 0 .008-.028l.003-.011.016-.028.012-.035c.004-.004.004-.008.008-.012l.02-.039s0-.003.003-.007l.008-.008a.27.27 0 0 1 .012-.031.274.274 0 0 0 .03-.04c.009-.011.02-.023.028-.039.008-.007.012-.015.02-.023l.02-.027a.104.104 0 0 0 .019-.024v-.004l.035-.035.02-.015c.003-.004.007-.008.011-.008l.031-.028c0-.004.004-.007.008-.011l.012-.008c.012-.008.02-.012.027-.02l.04-.027.019-.016.023-.011c.008-.008.016-.016.024-.02l.023-.008c.012-.008.024-.011.035-.02l.016-.007.027-.012.016-.012c.008 0 .016 0 .02-.003l.039-.008a.03.03 0 0 1 .02-.008l.026-.008a.288.288 0 0 1 .055-.015l.055-.012h.027a.763.763 0 0 1 .133-.012c1.656 0 2-1.344 2-3 0-1.66-1.344-3-3-3h-2.004Zm-8-2v4.496a3.504 3.504 0 0 0 5.426 2.926L15 22h1v-7.996h-2V18.5a1.501 1.501 0 0 1-3.004 0v-4.496Zm18-3.004c-1.063 0-2.082.633-2.832 1.758S22.996 15.406 22.996 17c0 3.313 1.793 6 4.004 5.996 2.207 0 4-2.683 4-5.996 0-3.313-1.79-6.004-4-6.004ZM27 13c1.105.004 2 1.793 2 4s-.898 4-2.004 4C25.895 20.988 25 19.203 25 17c0-2.207.895-3.996 2-4Zm0 0" style="stroke:none;fill-rule:nonzero;fill:#000;fill-opacity:1"/></svg>