<svg xmlns="http://www.w3.org/2000/svg" width="32" height="32"><path d="M6 10c-2.21 0-4 2.684-4 6 0 3.313 1.79 6 4 6 1.695 0 3.434-1.605 4-4H8c-.36 1.234-1.285 2-2 2-1.105 0-2-1.79-2-4s.895-4 2-4c.715 0 1.64.762 2 2h2c-.566-2.398-2.305-4-4-4Zm6 4v4c.055 2.227 1.824 4 4 4 .809 0 1.602-.254 2.27-.73L19 22h1v-8h-2v4a2 2 0 0 1-2 2c-1.105 0-2-.898-2-2v-4Zm0 0" style="stroke:none;fill-rule:nonzero;fill:#000;fill-opacity:1"/><path d="M25 10.191c-1.527.594-2.68 2.477-2.945 4.809h2c.136-1.04.476-1.93.941-2.465Zm2 0v2.344c.465.54.805 1.426.938 2.465h2c-.265-2.332-1.414-4.215-2.941-4.809ZM22.055 17c.265 2.332 1.418 4.215 2.945 4.809v-2.344c-.469-.535-.809-1.422-.945-2.465Zm5.883 0c-.137 1.04-.473 1.926-.938 2.46v2.349c1.527-.594 2.676-2.477 2.941-4.809Zm0 0" style="stroke:none;fill-rule:nonzero;fill:#000;fill-opacity:.333333"/></svg>