<svg xmlns="http://www.w3.org/2000/svg" width="32" height="32"><path d="M12 14v4c0 2.227 1.824 4 4 4 .809 0 1.602-.254 2.27-.73L19 22h1v-8h-2v4a2 2 0 0 1-2 2c-1 0-2-1-2-2v-4z" style="stroke:none;fill-rule:nonzero;fill:#000;fill-opacity:1"/><path d="M27 17c0 1-.483 2-1 2.558V22c1.558-.618 2.73-2.575 3-5zm-6 0c.265 2.425 1.418 4.382 3 5v-2.437c-.469-.556-.809-1.479-1-2.563Zm5-7v2.437C26.459 13 27 14 27 15h2c-.26-2.425-1.386-4.382-3-5Zm-2 0c-1.558.618-2.734 2.575-3 5h2c0-1 .526-2 1-2.563z" style="fill:#000;fill-opacity:.333333;fill-rule:nonzero;stroke:none;stroke-width:1"/><path d="M7.666 10C5.307 10 3 12.667 3 16s2.307 6 4.666 6C10.191 22 11 20.667 11 20l-2-1v.334c-.238.413-1 .666-1.334.666C6.193 20 5 18.21 5 16s1.193-4 2.666-4c.476 0 1 .254 1.334.666V13l2-1c0-.667-.667-2-3.334-2z" style="fill:#000;stroke-width:0;stop-color:#000"/></svg>