<?xml version="1.0" encoding="UTF-8" standalone="no"?>
<svg
   width="32"
   height="32"
   version="1.1"
   id="svg4"
   sodipodi:docname="copper.svg"
   inkscape:version="1.2.2 (b0a8486, 2022-12-01)"
   xmlns:inkscape="http://www.inkscape.org/namespaces/inkscape"
   xmlns:sodipodi="http://sodipodi.sourceforge.net/DTD/sodipodi-0.dtd"
   xmlns="http://www.w3.org/2000/svg"
   xmlns:svg="http://www.w3.org/2000/svg">
  <defs
     id="defs8" />
  <sodipodi:namedview
     id="namedview6"
     pagecolor="#505050"
     bordercolor="#ffffff"
     borderopacity="1"
     inkscape:showpageshadow="0"
     inkscape:pageopacity="0"
     inkscape:pagecheckerboard="1"
     inkscape:deskcolor="#505050"
     showgrid="true"
     inkscape:zoom="32.09375"
     inkscape:cx="7.9298929"
     inkscape:cy="16.077897"
     inkscape:window-width="2560"
     inkscape:window-height="1412"
     inkscape:window-x="0"
     inkscape:window-y="28"
     inkscape:window-maximized="0"
     inkscape:current-layer="svg4">
    <inkscape:grid
       type="xygrid"
       id="grid133"
       empspacing="4" />
  </sodipodi:namedview>
  <path
     id="path663"
     style="fill:#000000;stroke-width:0.103775;stop-color:#000000"
     d="m 3,16 c 0,4.970563 3.4624339,9 7,9 3.786836,0 5,-2 5,-3 l -3,-1 c -0.357332,0.618917 -1.285336,1.000133 -2,1 -2.209139,0 -4,-2.686292 -4,-6 0,-3.313708 1.790861,-6 4,-6 0.713966,5.65e-4 1.643017,0.381687 2,1 l 3,-1 C 15,9 14,7 10,7 6.4624339,7 3,11.029437 3,16 Z"
     sodipodi:nodetypes="sccccsccccs" />
  <path
     style="fill:#000000;fill-opacity:1;fill-rule:nonzero;stroke:none;stroke-width:1.5"
     d="M 17,13"
     id="path661" />
  <path
     style="fill:#000000;fill-opacity:1;fill-rule:nonzero;stroke:none;stroke-width:1.5"
     d="m 17,13 v 6 c 0.0825,3.3405 2.736,6 6,6 1.2135,0 2.998,-0.286 4,-1 l 1,1 h 1 V 13 h -3 v 6 c 0,1.656854 -1.343146,3 -3,3 -1.6575,0 -3,-1.347 -3,-3 v -6 z"
     id="path659"
     sodipodi:nodetypes="ccscccccssscc" />
</svg>
