<svg xmlns="http://www.w3.org/2000/svg" width="32" height="32"><path d="M6 10c-2.21 0-4 2.684-4 6 0 3.313 1.79 6 4 6 1.695 0 3.434-1.605 4-4H8c-.36 1.234-1.285 1.996-2 2-1.105 0-2-1.79-2-4s.895-4 2-4c.715 0 1.64.762 2 2h2c-.566-2.398-2.305-4-4-4Zm6 4v3.996h.008c.055 2.227 1.824 4 3.992 4.004.809 0 1.602-.254 2.27-.73L19 22h1v-8h-2.004v3.996A2.001 2.001 0 0 1 16 20c-1.105 0-2-.898-2-2.004V14Zm0 0" style="stroke:none;fill-rule:nonzero;fill:#000;fill-opacity:1"/><path d="M26 10c-1.953 0-3.617 2.113-3.945 5h2.004c.23-1.766 1.027-3 1.941-3 .91 0 1.71 1.234 1.938 3h2.003c-.324-2.887-1.992-5-3.941-5Zm-3.945 7c.328 2.887 1.992 5 3.945 5 1.95 0 3.617-2.113 3.941-5h-2.003c-.227 1.766-1.028 3-1.938 3-.914 0-1.71-1.234-1.941-3Zm0 0" style="stroke:none;fill-rule:nonzero;fill:#000;fill-opacity:.666667"/></svg>