<svg xmlns="http://www.w3.org/2000/svg" width="32" height="32"><path d="M5 10c-2.207 0-4 2.688-4 6 0 3.313 1.79 6 4 6 1.43 0 2.75-1.145 3.46-3H6.32c-.367.645-.836 1-1.324 1C3.891 20 3 18.203 3 16c0-2.207.895-4 2-4 .488 0 .957.355 1.324 1h2.14C7.75 11.145 6.43 10 5 10Zm12 6v2h2a1 1 0 0 1 0 2 2 2 0 0 0-2 2v4h5v-2h-3v-1.215l.011-.05v-.032l.012-.027a.056.056 0 0 0 0-.028v-.011l.016-.028.012-.035v-.012l.02-.039a.27.27 0 0 1 .012-.031.274.274 0 0 0 .03-.04c0-.011.02-.023.028 0 0 0 0-.015.02-.023l.02-.027a.104.104 0 0 0 .019-.024l.035-.035.02-.015.031-.028v-.011h.012c.012 0 0-.012.027-.02l.04-.027.019-.016.023-.011s0-.016.024-.02h.023c.012 0 0-.011.035-.02h.016v-.012l.016-.012h.059a.03.03 0 0 1 .02 0h.026a.288.288 0 0 1 .055-.015l.055-.012h.027a.763.763 0 0 1 .133-.012c1.656 0 2-1.344 2-3 0-1.66-1.344-3-3-3h-2Zm-8-2v4.496a3.504 3.504 0 0 0 5.426 2.926L15 22h1v-8h-2v4.5a1.501 1.501 0 0 1-3 0v-4.496Zm18-3c-1.063 0-2.082.633-2.832 1.758S23 15.406 23 17c0 3.313 1.793 6 4 6s4-2.683 4-6c0-3.313-1.79-6-4-6Zm0 2c1.105 0 2 1.793 2 4s-.898 4-2 4c-1.105-.012-2-1.797-2-4 0-2.207.895-4 2-4Zm0 0" style="stroke:none;fill-rule:nonzero;fill:#000;fill-opacity:1"/></svg>