<?xml version="1.0" encoding="UTF-8" standalone="no"?>
<svg
   width="32"
   height="32"
   version="1.1"
   id="svg2613"
   sodipodi:docname="copper2oxideTwoThirds.svg"
   inkscape:version="1.2.2 (b0a8486, 2022-12-01)"
   xmlns:inkscape="http://www.inkscape.org/namespaces/inkscape"
   xmlns:sodipodi="http://sodipodi.sourceforge.net/DTD/sodipodi-0.dtd"
   xmlns="http://www.w3.org/2000/svg"
   xmlns:svg="http://www.w3.org/2000/svg">
  <defs
     id="defs2617" />
  <sodipodi:namedview
     id="namedview2615"
     pagecolor="#505050"
     bordercolor="#ffffff"
     borderopacity="1"
     inkscape:showpageshadow="0"
     inkscape:pageopacity="0"
     inkscape:pagecheckerboard="1"
     inkscape:deskcolor="#505050"
     showgrid="true"
     inkscape:zoom="32.09375"
     inkscape:cx="7.369036"
     inkscape:cy="16.031159"
     inkscape:window-width="2560"
     inkscape:window-height="1301"
     inkscape:window-x="0"
     inkscape:window-y="25"
     inkscape:window-maximized="0"
     inkscape:current-layer="svg2613">
    <inkscape:grid
       type="xygrid"
       id="grid2736"
       empspacing="4" />
  </sodipodi:namedview>
  <path
     style="stroke:none;fill-rule:nonzero;fill:#000;fill-opacity:1"
     d="M 12,14"
     id="path2742" />
  <path
     style="stroke:none;fill-rule:nonzero;fill:#000;fill-opacity:1"
     d="m 12,14 v 4 c 0.055,2.227 1.824,4 4,4 0.809,0 1.602,-0.254 2.27,-0.73 L 19,22 h 1 v -8 h -2 v 4 a 2,2 0 0 1 -2,2 c -1.105,0 -2,-0.898 -2,-2 v -4 z"
     id="path2740" />
  <path
     style="fill:#000000;fill-opacity:0.666667;fill-rule:nonzero;stroke:none"
     d="M 21.121,17"
     id="path4016" />
  <path
     style="fill:#000000;fill-opacity:0.666667;fill-rule:nonzero;stroke:none;stroke-width:0.992103"
     d="m 21.117063,17 c 0.32284,2.887 1.968536,5 3.882937,5 1.919322,0 3.560098,-2.113 3.879,-5 h -1.968536 c -0.223428,1.766 -1.011827,3 -1.907511,3 -0.899621,0 -1.683099,-1.234 -1.910464,-3 z"
     id="path4014" />
  <path
     style="fill:#000000;fill-opacity:0.666667;fill-rule:nonzero;stroke:none;stroke-width:1.00746"
     d="m 25.007104,10 c -1.982237,0 -3.671149,2.113 -4.004059,5 h 2.029942 c 0.233443,-1.766 1.042374,-3 1.970058,-3 0.923623,0 1.7356,1.234 1.967013,3 H 29 c -0.328851,-2.887 -2.029942,-5 -4,-5 z"
     id="path2611" />
  <path
     id="path1476"
     style="fill:#000000;stroke-width:0.0691833;stop-color:#000000"
     d="M 7.666016,10 C 5.307351,10 3,12.66667 3,16 3,19.33333 5.307351,22 7.666016,22 10.190679,22 11,20.666666 11,20 L 9,19 v 0.333984 C 8.762,19.746651 8.142681,20 7.666016,20 6.192684,20 5,18.209331 5,16 5,13.790669 6.192684,12 7.666016,12 8.142015,12 8.762,12.254016 9,12.666016 V 13 l 2,-1 c 0,-0.666665 -0.667321,-2 -3.333984,-2 z" />
</svg>
