<?xml version="1.0" encoding="UTF-8" standalone="no"?>
<svg
   width="32"
   height="32"
   version="1.1"
   id="svg2857"
   sodipodi:docname="copper2oxide.svg"
   inkscape:version="1.2.2 (b0a8486, 2022-12-01)"
   xmlns:inkscape="http://www.inkscape.org/namespaces/inkscape"
   xmlns:sodipodi="http://sodipodi.sourceforge.net/DTD/sodipodi-0.dtd"
   xmlns="http://www.w3.org/2000/svg"
   xmlns:svg="http://www.w3.org/2000/svg">
  <defs
     id="defs2861" />
  <sodipodi:namedview
     id="namedview2859"
     pagecolor="#505050"
     bordercolor="#ffffff"
     borderopacity="1"
     inkscape:showpageshadow="0"
     inkscape:pageopacity="0"
     inkscape:pagecheckerboard="1"
     inkscape:deskcolor="#505050"
     showgrid="true"
     inkscape:zoom="32.09375"
     inkscape:cx="11.668939"
     inkscape:cy="15.984421"
     inkscape:window-width="2560"
     inkscape:window-height="1412"
     inkscape:window-x="0"
     inkscape:window-y="28"
     inkscape:window-maximized="0"
     inkscape:current-layer="svg2857">
    <inkscape:grid
       type="xygrid"
       id="grid2980"
       empspacing="4" />
  </sodipodi:namedview>
  <path
     id="path2986"
     style="fill:#000000;fill-opacity:1;fill-rule:nonzero;stroke:none"
     d="m 25,10 c -2.209998,0 -4,2.688003 -4,6 0,3.312997 1.790002,6 4,6 2.206998,0 4,-2.688003 4,-6 0,-3.312997 -1.789002,-6 -4,-6 z m 0,2 c 1.104999,0 2,1.790002 2,4 0,2.206998 -0.895001,4 -2,4 -1.109999,0 -2,-1.793002 -2,-4 0,-2.209998 0.895001,-4 2,-4 z" />
  <path
     style="stroke:none;fill-rule:nonzero;fill:#000;fill-opacity:1"
     d="M 26,12"
     id="path2990" />
  <path
     style="stroke:none;fill-rule:nonzero;fill:#000;fill-opacity:1"
     d="m 12,14 v 4 c 0.055,2.227 1.824,4 4,4 0.809,0 1.602,-0.254 2.27,-0.73 L 19,22 h 1 v -8 h -2 v 4 a 2,2 0 0 1 -2,2 c -1.105,0 -2,-0.898 -2,-2 v -4 z"
     id="path2984" />
  <path
     id="path1476"
     style="fill:#000000;stroke-width:0.0691833;stop-color:#000000"
     d="M 7.666016,10 C 5.307351,10 3,12.66667 3,16 3,19.33333 5.307351,22 7.666016,22 10.190679,22 11,20.666666 11,20 L 9,19 v 0.333984 C 8.762,19.746651 8.142681,20 7.666016,20 6.192684,20 5,18.209331 5,16 5,13.790669 6.192684,12 7.666016,12 8.142015,12 8.762,12.254016 9,12.666016 V 13 l 2,-1 c 0,-0.666665 -0.667321,-2 -3.333984,-2 z" />
</svg>
