<svg xmlns="http://www.w3.org/2000/svg" width="32" height="32"><path d="M12 14v4c0 2.227 1.824 4 4 4 .809 0 1.602-.254 2.27-.73L19 22h1v-8h-2v4a2 2 0 0 1-2 2c-1.105 0-2-.898-2-2v-4z" style="stroke:none;fill-rule:nonzero;fill:#000;fill-opacity:1"/><path d="M21 17c.328 3 2 5 4 5s3.615-2.113 4-5h-2c-.226 1.766-1 3-2 3-1 0-1.71-1.234-2-3z" style="fill:#000;fill-opacity:.666667;fill-rule:nonzero;stroke:none;stroke-width:1"/><path d="M25 10c-2 0-3.671 2.113-4 5h2c.233-1.766 1-3 2-3s1.736 1.234 2 3h2c-.329-2.887-2-5-4-5z" style="fill:#000;fill-opacity:.666667;fill-rule:nonzero;stroke:none;stroke-width:1"/><path d="M7.666 10C5.307 10 3 12.667 3 16s2.307 6 4.666 6C10.191 22 11 20.667 11 20l-2-1v.334c-.238.413-.857.666-1.334.666C6.193 20 5 18.21 5 16s1.193-4 2.666-4c.476 0 1 .254 1.334.666V13l2-1c0-.667-.667-2-3.334-2z" style="fill:#000;stroke-width:0;stop-color:#000"/></svg>