<svg xmlns="http://www.w3.org/2000/svg" width="32" height="32" viewBox="0 0 8.467 8.467"><path d="M11 10c-2.21 0-4 2.686-4 6s1.79 6 4 6c1.695 0 3.435-1.603 4-4h-2c-.357 1.237-1.286 1.999-2 2-1.105 0-2-1.79-2-4s.895-4 2-4c.714.001 1.643.763 2 2h2c-.565-2.397-2.305-4-4-4Z" style="fill:#000;fill-opacity:1;stroke:none;stroke-width:.999999" transform="translate(-1.323) scale(.26458)"/><path d="M4.498 3.704v1.058H4.5a1.058 1.086 0 0 0 1.056 1.059 1.058 1.086 0 0 0 .601-.193l.193.193h.265V3.704h-.53v1.058a.53.53 0 0 1-.529.53.53.53 0 0 1-.529-.53V3.704Z" style="fill:#000;fill-opacity:1;stroke:none;stroke-width:.309422" transform="translate(-1.323)"/><path d="M7.938 2.697a1.058 1.587 0 0 0-.779 1.272h.53a.53 1.058 0 0 1 .249-.652v-.62zm.529 0v.62a.53 1.058 0 0 1 .248.652h.53a1.058 1.587 0 0 0-.778-1.272zM7.159 4.498a1.058 1.587 0 0 0 .779 1.272v-.62a.53 1.058 0 0 1-.25-.652H7.16zm1.556 0a.53 1.058 0 0 1-.248.651v.621a1.058 1.587 0 0 0 .778-1.272h-.53z" style="fill:#000;fill-opacity:.33333334;stroke:none;stroke-width:.264583" transform="translate(-1.323)"/></svg>