<svg xmlns="http://www.w3.org/2000/svg" width="32" height="32"><path d="M12 14v4c.055 2.227 1.824 4 4 4 .809 0 1.602-.254 2.27-.73L19 22h1v-8h-2v4a2 2 0 0 1-2 2c-1.105 0-2-.898-2-2v-4z" style="stroke:none;fill-rule:nonzero;fill:#000;fill-opacity:1"/><path d="M26.957 17c-.14 1.081-.483 2-.957 2.558V22c1.558-.618 2.73-2.575 3-5z" style="fill:#000;fill-opacity:.333333;fill-rule:nonzero;stroke:none;stroke-width:1.02985"/><path d="M21 17c.265 2.425 1.418 4.382 2.945 5v-2.437c-.469-.556-.809-1.479-.945-2.563Z" style="fill:#000;fill-opacity:.333333;fill-rule:nonzero;stroke:none;stroke-width:1.01967"/><path d="M26.003 10v2.437C26.459 13 26.87 13.92 27 15h1.883c-.26-2.425-1.386-4.382-2.883-5Z" style="fill:#000;fill-opacity:.333333;fill-rule:nonzero;stroke:none;stroke-width:1.00957"/><path d="M24.004 10c-1.558.618-2.734 2.575-3.004 5h2c.139-1.081.526-2.007 1-2.563z" style="fill:#000;fill-opacity:.333333;fill-rule:nonzero;stroke:none;stroke-width:1.02984"/><path d="M7.666 10C5.307 10 3 12.667 3 16s2.307 6 4.666 6C10.191 22 11 20.667 11 20l-2-1v.334c-.238.413-.857.666-1.334.666C6.193 20 5 18.21 5 16s1.193-4 2.666-4c.476 0 1.096.254 1.334.666V13l2-1c0-.667-.667-2-3.334-2z" style="fill:#000;stroke-width:.0691833;stop-color:#000"/></svg>