<svg xmlns="http://www.w3.org/2000/svg" width="32" height="32"><path d="M25 10c-2.21 0-4 2.688-4 6 0 3.313 1.79 6 4 6 2.207 0 4-2.688 4-6 0-3.313-1.789-6-4-6zm0 2c1.105 0 2 1.79 2 4 0 2.207-.895 4-2 4-1.11 0-2-1.793-2-4 0-2.21.895-4 2-4z" style="fill:#000;fill-opacity:1;fill-rule:nonzero;stroke:none"/><path d="M12 14v4c.055 2.227 1.824 4 4 4 .809 0 1.602-.254 2.27-.73L19 22h1v-8h-2v4a2 2 0 0 1-2 2c-1.105 0-2-.898-2-2v-4z" style="stroke:none;fill-rule:nonzero;fill:#000;fill-opacity:1"/><path d="M7.666 10C5.307 10 3 12.667 3 16s2.307 6 4.666 6C10.191 22 11 20.667 11 20l-2-1v.334c-.238.413-.857.666-1.334.666C6.193 20 5 18.21 5 16s1.193-4 2.666-4c.476 0 1.096.254 1.334.666V13l2-1c0-.667-.667-2-3.334-2z" style="fill:#000;stroke-width:.0691833;stop-color:#000"/></svg>