<svg xmlns="http://www.w3.org/2000/svg" width="32" height="128"><path d="M0 0v2l2-2Zm7 0 2 2 2-2Zm14 0 2 2 2-2Zm9 0 2 2V0ZM9 2 2 9l7 7 7-7-7-7Zm14 0-7 7 7 7 7-7ZM0 7v4l2-2Zm32 0-2 2 2 2ZM9 16l-7 7 7 7 7-7 7 7 7-7-7-7-7 7Zm-9 5v4l2-2Zm32 0-2 2 2 2ZM0 30v4l2-2-2-2Zm9 0-2 2 2 2 2-2-2-2Zm14 0-2 2 2 2 2-2-2-2Zm9 0-2 2 2 2ZM9 34l-7 7 7 7 7-7Zm14 0-7 7 7 7 7-7ZM0 39v4l2-2Zm32 0-2 2 2 2ZM9 48l-7 7 7 7 7-7 7 7 7-7-7-7-7 7-7-7Zm-9 5v4l2-2Zm32 0-2 2 2 2ZM0 62v4l2-2-2-2Zm9 0-2 2 2 2 2-2-2-2Zm14 0-2 2 2 2 2-2-2-2Zm9 0-2 2 2 2ZM9 66l-7 7 7 7 7-7-7-7Zm14 0-7 7 7 7 7-7ZM0 71v4l2-2Zm32 0-2 2 2 2ZM9 80l-7 7 7 7 7-7 7 7 7-7-7-7-7 7Zm-9 5v4l2-2Zm32 0-2 2 2 2ZM0 94v4l2-2-2-2Zm9 0-2 2 2 2 2-2-2-2Zm14 0-2 2 2 2 2-2-2-2Zm9 0-2 2 2 2ZM9 98l-7 7 7 7 7-7-7-7Zm14 0-7 7 7 7 7-7Zm-23 5v4l2-2Zm32 0-2 2 2 2Zm-23 9-7 7 7 7 7-7 7 7 7-7-7-7-7 7Zm-9 5v4l2-2Zm32 0-2 2 2 2Zm-32 9v2h2l-2-2Zm9 0-2 2h4l-2-2Zm14 0-2 2h4l-2-2Zm9 0-2 2h2Zm0 0" style="stroke:none;fill-rule:nonzero;fill:#000;fill-opacity:1"/></svg>