<svg xmlns="http://www.w3.org/2000/svg" width="32" height="128"><path d="M0 0v2.004L2.004 0Zm7 0 2.004 2.004L10.996 0Zm14 0 2 2.004L25 0Zm8.992 0L32 2.004V0ZM9.004 2.004l-7 6.992L8.996 16l7-6.996-7-7Zm14 0-6.992 6.992L23.008 16 30 9ZM0 7v3.996l2.004-1.992Zm32 0-2.004 2.004L32 10.996ZM9.004 16l-7 6.996 7 7L16 23l6.996 6.992 7-6.992-7-7L16 22.996ZM0 21v4l2.004-2Zm32 0-2.004 2L32 25ZM0 29.992v4.012L2.004 32 0 29.996Zm8.996 0L7 32l2.004 2.004L11 32h-.004l-2-2.004Zm14.004 0L21.004 32H21l2 2.004L25 32l-2-2.004Zm9 0L29.996 32 32 34.004ZM9 34.008 2.008 41l6.988 7 7-7Zm14 0L16.008 41 23 48l6.992-7ZM0 39.004V43l2.004-1.992Zm32 0-2.004 2.004L32 43ZM9.004 48l-7 6.996 7 7L16 55l6.996 6.992 7-6.992-7-7L16 54.996 9 48ZM0 53v4l2.004-2Zm32 0-2.004 2L32 57ZM0 61.992v4.012L2.004 64 0 61.996Zm8.996 0L7 64l2.004 2.004L11 64h-.004l-2-2.004Zm14.004 0L21.004 64H21l2 2.004L25 64l-2-2.004Zm9 0L29.996 64 32 66.004ZM9 66.004l-6.992 6.992L8.996 80l7-7L9 66.008Zm14 0-6.992 6.992L23.004 80l6.992-7ZM0 71v3.996l2.004-1.992Zm32 0-2.004 2.004L32 74.996ZM9.004 80l-7 6.996 7 7L16 87l6.996 6.992 7-6.992-7-7L16 86.996ZM0 85v4l2.004-2Zm32 0-2.004 2L32 89ZM0 93.992v4.012L2.004 96 0 93.996Zm8.996 0L7 96l2.004 2.004L11 96h-.004l-2-2.004Zm14.004 0L21.004 96H21l2 2.004L25 96l-2-2.004Zm9 0L29.996 96 32 98.004ZM9 98.004l-6.992 6.992L8.996 112l7-7L9 98.008Zm14 0-6.992 6.992L23.004 112l6.992-7ZM0 103v3.996l2.004-1.992Zm32 0-2.004 2.004L32 106.996Zm-22.996 9-7 6.996 7 7L16 119l6.996 6.992 7-6.992-7-7L16 118.996ZM0 117v4l2.004-2Zm32 0-2.004 2L32 121Zm-32 8.992V128h2.004L0 125.996Zm8.996 0L7 128h3.996l-2-2.004Zm14.004 0L21.004 128H25l-2-2.004Zm9 0L29.996 128H32Zm0 0" style="stroke:none;fill-rule:nonzero;fill:#000;fill-opacity:1"/></svg>