<svg xmlns="http://www.w3.org/2000/svg" width="32" height="128"><path d="m8.996 4 5 5-5 5-5-5Zm14 0 5 5-5 5-5-5ZM9.004 18l5 4.996-5 5-5-5Zm13.992 0 5 4.996-5 5-5-5ZM9 36.004 14 41l-5 5-5-5 5-5Zm14 0L28 41l-5 5-5-5 5-5ZM9.004 50l5 4.996-5 5-5-5Zm13.992 0 5 4.996-5 5-5-5ZM9 68.004 14 73l-5 5-5-5 5-5Zm14 0L28 73l-5 5-5-5 5-5ZM9.004 82l5 4.996-5 5-5-5Zm13.992 0 5 4.996-5 5-5-5ZM9 100.004 14 105l-5 5-5-5 5-5Zm14 0L28 105l-5 5-5-5 5-5ZM9.004 114l5 4.996-5 5-5-5Zm13.992 0 5 4.996-5 5-5-5Zm0 0" style="stroke:none;fill-rule:nonzero;fill:#000;fill-opacity:1"/></svg>