<svg xmlns="http://www.w3.org/2000/svg" width="32" height="32"><path d="M9 7.996a1.003 1.003 0 1 1-2.002.002A1.003 1.003 0 0 1 9 7.996Zm8 0a1.003 1.003 0 1 1-2.006.002A1.003 1.003 0 0 1 17 7.996ZM25 16a1.002 1.002 0 1 1-2.004-.004A1.002 1.002 0 0 1 25 16ZM9 16a1.003 1.003 0 1 1-2.006-.006A1.003 1.003 0 0 1 9 16Zm8 8a1.002 1.002 0 1 1-2.004-.004A1.002 1.002 0 0 1 17 24Zm8 0a1.002 1.002 0 1 1-2.004-.004A1.002 1.002 0 0 1 25 24ZM13 12a1.002 1.002 0 1 1-2.004-.004A1.002 1.002 0 0 1 13 12Zm8 0a1.003 1.003 0 1 1-2.006-.006A1.003 1.003 0 0 1 21 12Zm-8 7.996a1.003 1.003 0 1 1-2.006.002A1.003 1.003 0 0 1 13 19.996Zm8 0a1.003 1.003 0 1 1-2.002.002A1.003 1.003 0 0 1 21 19.996ZM9 24a1.003 1.003 0 1 1-2.006-.006A1.003 1.003 0 0 1 9 24ZM25 7.996a1.003 1.003 0 1 1-2.006.002A1.003 1.003 0 0 1 25 7.996ZM17 16a1.002 1.002 0 1 1-2.004-.004A1.002 1.002 0 0 1 17 16Zm0 0" style="stroke:none;fill-rule:nonzero;fill:#000;fill-opacity:1"/></svg>