<svg xmlns="http://www.w3.org/2000/svg" width="32" height="32"><path d="M11 6a1 1 0 1 1-2 0 1 1 0 1 1 2 0Zm8 0a1 1 0 1 1-2 0 1 1 0 0 1 2 0Zm8 8a1 1 0 1 1-2 0 1 1 0 0 1 2 0Zm-16 0a1 1 0 1 1-2 0 1 1 0 1 1 2 0Zm8 8a1 1 0 0 1-1 1 1 1 0 1 1 0-2 1 1 0 0 1 1 1Zm8 0a1 1 0 0 1-1 1 1 1 0 1 1 0-2 1 1 0 0 1 1 1ZM15 10a1 1 0 0 1-1 1 1 1 0 1 1 0-2 1 1 0 0 1 1 1Zm8 0c0 .555-.445 1-1 1-.555 0-1-.445-1-1 0-.555.445-1 1-1 .555 0 1 .445 1 1Zm-8 8a1 1 0 1 1-2 0 1 1 0 0 1 2 0Zm8 0a1 1 0 1 1-2 0 1 1 0 1 1 2 0Zm-12 4c0 .555-.445 1-1 1-.555 0-1-.445-1-1 0-.555.445-1 1-1 .555 0 1 .445 1 1ZM27 6a1 1 0 1 1-2 0 1 1 0 0 1 2 0Zm-8 8a1 1 0 1 1-2 0 1 1 0 0 1 2 0Zm-4-8a1 1 0 1 1-2 0 1 1 0 0 1 2 0Zm-4 4c0 .555-.445 1-1 1-.555 0-1-.445-1-1 0-.555.445-1 1-1 .555 0 1 .445 1 1Zm8 0a1 1 0 0 1-1 1 1 1 0 1 1 0-2 1 1 0 0 1 1 1Zm4-4a1 1 0 1 1-2 0 1 1 0 1 1 2 0Zm4 4a1 1 0 0 1-1 1 1 1 0 1 1 0-2 1 1 0 0 1 1 1Zm-4 4a1 1 0 1 1-2 0 1 1 0 1 1 2 0Zm-8 0a1 1 0 1 1-2 0 1 1 0 0 1 2 0Zm-4 4a1 1 0 1 1-2 0 1 1 0 1 1 2 0Zm4 4a1 1 0 0 1-1 1 1 1 0 1 1 0-2 1 1 0 0 1 1 1Zm4-4a1 1 0 1 1-2 0 1 1 0 0 1 2 0Zm4 4c0 .555-.445 1-1 1-.555 0-1-.445-1-1 0-.555.445-1 1-1 .555 0 1 .445 1 1Zm4-4a1 1 0 1 1-2 0 1 1 0 0 1 2 0ZM7 6a1 1 0 1 1-2 0 1 1 0 0 1 2 0Zm0 4a1 1 0 0 1-1 1 1 1 0 1 1 0-2 1 1 0 0 1 1 1Zm0 4a1 1 0 1 1-2 0 1 1 0 0 1 2 0Zm0 4a1 1 0 1 1-2 0 1 1 0 0 1 2 0Zm0 4a1 1 0 0 1-1 1 1 1 0 1 1 0-2 1 1 0 0 1 1 1Zm0 4a1 1 0 1 1-2 0 1 1 0 0 1 2 0Zm4 0a1 1 0 1 1-2 0 1 1 0 1 1 2 0Zm4 0a1 1 0 1 1-2 0 1 1 0 0 1 2 0Zm4 0a1 1 0 1 1-2 0 1 1 0 0 1 2 0Zm4 0a1 1 0 1 1-2 0 1 1 0 1 1 2 0Zm4 0a1 1 0 1 1-2 0 1 1 0 0 1 2 0Zm0 0" style="stroke:none;fill-rule:nonzero;fill:#000;fill-opacity:1"/></svg>