<svg xmlns="http://www.w3.org/2000/svg" width="32" height="32"><path d="M11 6a1 1 0 1 1-2 0 1 1 0 1 1 2 0Zm8 0a1 1 0 1 1-2 0 1 1 0 0 1 2-0Zm8 8A1 1 0 1 1 25 14a1 1 0 0 1 2 0ZM11 14a1 1 0 1 1-2 0 1 1 0 1 1 2 0Zm8 8A1 1 0 0 1 18 23a1 1 0 1 1 0-2 1 1 0 0 1 1 1Zm8 0a1 1 0 0 1-1 1 1 1 0 1 1 0-2 1 1 0 0 1 1 1Zm-12-12a1 1 0 0 1-1 1 1 1 0 1 1 0-2 1 1 0 0 1 1 1ZM23 10c0 .555-.445 1-1 1-.555 0-1-.445-1-1 0-.555.445-1 1-1 .555 0 1 .445 1 1Zm-8 8a1 1 0 1 1-2 0 1 1 0 0 1 2-0Zm8 0a1 1 0 1 1-2 0 1 1 0 1 1 2 0ZM11 22c0 .555-.445 1-1 1-.555 0-1-.445-1-1 0-.555.445-1 1-1 .555 0 1 .445 1 1ZM27 6a1 1 0 1 1-2 0 1 1 0 0 1 2-0Zm-8 8a1 1 0 1 1-2-0 1 1 0 0 1 2 0Zm-4-8a1 1 0 1 1-2 0 1 1 0 0 1 2-0ZM11 10c0 .555-.445 1-1 1-.555 0-1-.445-1-1 0-.555.445-1 1-1 .555 0 1 .445 1 1Zm8 0A1 1 0 0 1 18 11a1 1 0 1 1 0-2 1 1 0 0 1 1 1ZM23 6a1 1 0 1 1-2 0 1 1 0 1 1 2 0ZM27 10a1 1 0 0 1-1 1 1 1 0 1 1 0-2 1 1 0 0 1 1 1ZM23 14a1 1 0 1 1-2 0 1 1 0 1 1 2 0Zm-8 0A1 1 0 1 1 13 14a1 1 0 0 1 2 0ZM11 18a1 1 0 1 1-2 0 1 1 0 1 1 2 0ZM15 22a1 1 0 0 1-1 1 1 1 0 1 1 0-2 1 1 0 0 1 1 1Zm4-4a1 1 0 1 1-2 0 1 1 0 0 1 2-0ZM23 22c0 .555-.445 1-1 1-.555 0-1-.445-1-1 0-.555.445-1 1-1 .555 0 1 .445 1 1Zm4-4a1 1 0 1 1-2 0 1 1 0 0 1 2-0Zm-20-12a1 1 0 1 1-2 0 1 1 0 0 1 2-0Zm0 4A1 1 0 0 1 6 11a1 1 0 1 1 0-2 1 1 0 0 1 1 1Zm0 4a1 1 0 1 1-2-0A1 1 0 0 1 7 14Zm0 4a1 1 0 1 1-2 0 1 1 0 0 1 2-0Zm0 4A1 1 0 0 1 6 23a1 1 0 1 1 0-2 1 1 0 0 1 1 1Zm0 4a1 1 0 1 1-2-0A1 1 0 0 1 7 26ZM11 26a1 1 0 1 1-2 0 1 1 0 1 1 2 0Zm4 0A1 1 0 1 1 13 26a1 1 0 0 1 2 0Zm4 0a1 1 0 1 1-2-0 1 1 0 0 1 2 0ZM23 26a1 1 0 1 1-2 0 1 1 0 1 1 2 0Zm4 0A1 1 0 1 1 25 26a1 1 0 0 1 2 0Zm0 0" style="stroke:none;fill-rule:nonzero;fill:#000;fill-opacity:1"/></svg>