<svg xmlns="http://www.w3.org/2000/svg" width="32" height="32"><path d="M11 5.996a1 1 0 1 1-2 0 1 1 0 1 1 2 0Zm8.004 0a1.003 1.003 0 1 1-2.002.002 1.003 1.003 0 0 1 2.002-.002Zm8 8.004A1.002 1.002 0 1 1 25 13.996a1.002 1.002 0 0 1 2.004.004ZM11 14a1 1 0 1 1-2 0 1 1 0 1 1 2 0Zm8.004 8A1 1 0 0 1 18 23a1 1 0 1 1 0-2 1 1 0 0 1 1.004 1Zm8 0a1 1 0 0 1-1 1 1 1 0 1 1 0-2 1 1 0 0 1 1 1Zm-12-12a1 1 0 0 1-1 1 1 1 0 1 1 0-2 1 1 0 0 1 1 1ZM23 10c0 .555-.445 1-1 1-.555 0-1-.445-1-1 0-.555.445-1 1-1 .555 0 1 .445 1 1Zm-7.996 7.996a1.003 1.003 0 1 1-2.006.002 1.003 1.003 0 0 1 2.006-.002Zm7.996 0a1 1 0 1 1-2 0 1 1 0 1 1 2 0ZM11 22c0 .555-.445 1-1 1-.555 0-1-.445-1-1 0-.555.445-1 1-1 .555 0 1 .445 1 1ZM27.004 5.996a1.003 1.003 0 1 1-2.006.002 1.003 1.003 0 0 1 2.006-.002Zm-8 8.004a1.003 1.003 0 1 1-2.006-.006 1.003 1.003 0 0 1 2.006.006Zm-4-8.004a1.003 1.003 0 1 1-2.006.002 1.003 1.003 0 0 1 2.006-.002ZM11 10c0 .555-.445 1-1 1-.555 0-1-.445-1-1 0-.555.445-1 1-1 .555 0 1 .445 1 1Zm8.004 0A1 1 0 0 1 18 11a1 1 0 1 1 0-2 1 1 0 0 1 1.004 1ZM23 5.996a1 1 0 1 1-2 0 1 1 0 1 1 2 0ZM27.004 10a1 1 0 0 1-1 1 1 1 0 1 1 0-2 1 1 0 0 1 1 1ZM23 14a1 1 0 1 1-2 0 1 1 0 1 1 2 0Zm-7.996 0A1.002 1.002 0 1 1 13 13.996a1.002 1.002 0 0 1 2.004.004ZM11 17.996a1 1 0 1 1-2 0 1 1 0 1 1 2 0ZM15.004 22a1 1 0 0 1-1 1 1 1 0 1 1 0-2 1 1 0 0 1 1 1Zm4-4.004a1.003 1.003 0 1 1-2.002.002 1.003 1.003 0 0 1 2.002-.002ZM23 22c0 .555-.445 1-1 1-.555 0-1-.445-1-1 0-.555.445-1 1-1 .555 0 1 .445 1 1Zm4.004-4.004a1.003 1.003 0 1 1-2.006.002 1.003 1.003 0 0 1 2.006-.002Zm-20-12a1.003 1.003 0 1 1-2.002.002 1.003 1.003 0 0 1 2.002-.002Zm0 4.004A1 1 0 0 1 6 11a1 1 0 1 1 0-2 1 1 0 0 1 1.004 1Zm0 4a1.003 1.003 0 1 1-2.006-.006A1.003 1.003 0 0 1 7.004 14Zm0 3.996a1.003 1.003 0 1 1-2.002.002 1.003 1.003 0 0 1 2.002-.002Zm0 4.004A1 1 0 0 1 6 23a1 1 0 1 1 0-2 1 1 0 0 1 1.004 1Zm0 4a1.003 1.003 0 1 1-2.006-.006A1.003 1.003 0 0 1 7.004 26ZM11 26a1 1 0 1 1-2 0 1 1 0 1 1 2 0Zm4.004 0A1.002 1.002 0 1 1 13 25.996a1.002 1.002 0 0 1 2.004.004Zm4 0a1.003 1.003 0 1 1-2.006-.006 1.003 1.003 0 0 1 2.006.006ZM23 26a1 1 0 1 1-2 0 1 1 0 1 1 2 0Zm4.004 0A1.002 1.002 0 1 1 25 25.996a1.002 1.002 0 0 1 2.004.004Zm0 0" style="stroke:none;fill-rule:nonzero;fill:#000;fill-opacity:1"/></svg>