<svg xmlns="http://www.w3.org/2000/svg" width="32" height="32"><path d="M0 0v2.004l1.156 1.152A7.002 7.002 0 0 0 0 7v18a7.002 7.002 0 0 0 1.156 3.844L0 30v2h2.004l1.152-1.156A7.002 7.002 0 0 0 7 32h18.18v-.008a6.993 6.993 0 0 0 3.664-1.148L30 32h2v-2.004l-1.16-1.156A6.993 6.993 0 0 0 32 25V7a7.01 7.01 0 0 0-1.152-3.848L32 2.004V0h-2.004l-1.148 1.152A6.997 6.997 0 0 0 25.184 0H7.004a6.995 6.995 0 0 0-3.852 1.156L2.004 0Zm9 4h13.996a5 5 0 0 1 5 5v13.996a5 5 0 0 1-5 5H9a5 5 0 0 1-5-5V9a5 5 0 0 1 5-5Zm0 0" style="stroke:none;fill-rule:nonzero;fill:#000;fill-opacity:1"/></svg>