<svg xmlns="http://www.w3.org/2000/svg" width="32" height="32"><defs><linearGradient id="a" x1="16" x2="16" y1="30" y2="22" gradientTransform="rotate(.115)" gradientUnits="userSpaceOnUse"><stop offset="0" style="stop-color:#ff0;stop-opacity:1"/><stop offset=".602" style="stop-color:red;stop-opacity:1"/><stop offset="1" style="stop-color:#ff0;stop-opacity:0"/></linearGradient></defs><path d="M8 20c-2.21 0-4 1.79-4 4v8h24v-8a4 4 0 0 0-4-4ZM8 4a4 4 0 0 0-2.832 1.168A4 4 0 0 0 4 8v8h24V8a4 4 0 0 0-4-4Zm0 0" style="stroke:none;fill-rule:nonzero;fill:#000;fill-opacity:1"/><path d="M8 22a2 2 0 0 0-2 2v8h20v-8c0-1.105-.898-2-2-2H8Zm0 0" style="stroke:none;fill-rule:nonzero;fill:url(#a)"/></svg>