<svg xmlns="http://www.w3.org/2000/svg" width="32" height="128"><path d="M22 17a1 1 0 0 0 1-1 1 1 0 1 0-2 0 1 1 0 0 0 1 1Zm-12-6c.555 0 1-.445 1-1 0-.555-.445-1-1-1-.555 0-1 .445-1 1 0 .555.445 1 1 1Zm6 6a1.002 1.002 0 1 0-.004-2.004A1.002 1.002 0 0 0 16 17Zm-6 6c.555 0 1-.445 1-1 0-.555-.445-1-1-1-.555 0-1 .445-1 1 0 .555.445 1 1 1Zm6 0a1 1 0 1 0 0-2 1 1 0 1 0 0 2Zm-5 31c0 .555-.445 1-1 1-.555 0-1-.445-1-1 0-.555.445-1 1-1 .555 0 1 .445 1 1Zm6-12a1 1 0 0 1-1 1 1 1 0 1 1 0-2 1 1 0 0 1 1 1Zm0 12a1 1 0 0 1-1 1 1 1 0 1 1 0-2 1 1 0 0 1 1 1Zm6 0c0 .555-.445 1-1 1-.555 0-1-.445-1-1 0-.555.445-1 1-1 .555 0 1 .445 1 1Zm0-6a1 1 0 1 1-2 0 1 1 0 1 1 2 0Zm-5.996 38A1 1 0 0 1 16 87a1 1 0 1 1 0-2 1 1 0 0 1 1.004 1Zm-6-12c0 .555-.445 1-1 1-.555 0-1-.445-1-1 0-.555.445-1 1-1 .555 0 1 .445 1 1Zm6 6a1.003 1.003 0 1 1-2.006-.006 1.003 1.003 0 0 1 2.006.006Zm6-6c0 .555-.445 1-1 1-.555 0-1-.445-1-1 0-.555.445-1 1-1 .555 0 1 .445 1 1Zm0 6a1 1 0 1 1-2 0 1 1 0 1 1 2 0ZM21 106c0 .555.445 1 1 1 .555 0 1-.445 1-1 0-.555-.445-1-1-1-.555 0-1 .445-1 1Zm-12 6a1 1 0 1 0 2 0 1 1 0 1 0-2 0Zm12 0a1 1 0 1 0 2 0 1 1 0 1 0-2 0Zm0 6c0 .555.445 1 1 1 .555 0 1-.445 1-1 0-.555-.445-1-1-1-.555 0-1 .445-1 1Zm-6.004 0A1 1 0 0 0 16 119a1 1 0 1 0 0-2 1 1 0 0 0-1.004 1Zm0 0" style="stroke:none;fill-rule:nonzero;fill:#000;fill-opacity:1"/></svg>