<svg xmlns="http://www.w3.org/2000/svg" width="32" height="128" viewBox="0 0 8.467 33.868"><g transform="matrix(0 1 1 0 0 0)"><circle cx="4.233" cy="5.821" r=".265" style="fill:#000;stroke-width:0"/><circle cx="2.646" cy="2.646" r=".265" style="fill:#000;stroke-width:0"/><circle cx="4.233" cy="4.233" r=".265" style="fill:#000;stroke-width:0"/><circle cx="5.821" cy="2.646" r=".265" style="fill:#000;stroke-width:0"/><circle cx="5.821" cy="4.233" r=".265" style="fill:#000;stroke-width:0"/></g><circle cx="2.646" cy="14.288" r=".265" style="fill:#000;stroke-width:0"/><circle cx="4.233" cy="11.113" r=".265" style="fill:#000;stroke-width:0"/><circle cx="4.233" cy="14.288" r=".265" style="fill:#000;stroke-width:0"/><circle cx="5.821" cy="14.288" r=".265" style="fill:#000;stroke-width:0"/><circle cx="5.821" cy="12.7" r=".265" style="fill:#000;stroke-width:0"/><circle cx="4.234" cy="22.755" r=".265" style="fill:#000;stroke-width:0"/><circle cx="2.647" cy="19.58" r=".265" style="fill:#000;stroke-width:0"/><circle cx="4.234" cy="21.167" r=".265" style="fill:#000;stroke-width:0"/><circle cx="5.822" cy="19.58" r=".265" style="fill:#000;stroke-width:0"/><circle cx="5.822" cy="21.167" r=".265" style="fill:#000;stroke-width:0"/><g transform="matrix(-1 0 0 1 0 33.868)"><circle cx="-5.821" cy="-5.821" r=".265" style="fill:#000;stroke-width:0"/><circle cx="-2.646" cy="-4.233" r=".265" style="fill:#000;stroke-width:0"/><circle cx="-5.821" cy="-4.233" r=".265" style="fill:#000;stroke-width:0"/><circle cx="-5.821" cy="-2.646" r=".265" style="fill:#000;stroke-width:0"/><circle cx="-4.233" cy="-2.646" r=".265" style="fill:#000;stroke-width:0"/></g></svg>