<svg xmlns="http://www.w3.org/2000/svg" xmlns:xlink="http://www.w3.org/1999/xlink" width="32" height="32"><defs><linearGradient id="b" color-interpolation="linearRGB"><stop offset="0" style="stop-color:#000;stop-opacity:1"/><stop offset=".5" style="stop-color:#000;stop-opacity:1"/><stop offset="1" style="stop-color:#000;stop-opacity:0"/></linearGradient><linearGradient id="a"><stop offset="0" style="stop-color:#000;stop-opacity:1"/><stop offset="1" style="stop-color:#000;stop-opacity:0"/></linearGradient><linearGradient xlink:href="#a" id="c" x1="24" x2="28" y1="16" y2="16" gradientUnits="userSpaceOnUse"/><linearGradient xlink:href="#a" id="d" x1="24" x2="28" y1="16" y2="16" gradientTransform="translate(-32)" gradientUnits="userSpaceOnUse"/><linearGradient xlink:href="#a" id="e" x1="24" x2="28" y1="16" y2="16" gradientTransform="translate(-32 -32)" gradientUnits="userSpaceOnUse"/><linearGradient xlink:href="#a" id="f" x1="24" x2="28" y1="16" y2="16" gradientTransform="translate(0 -32)" gradientUnits="userSpaceOnUse"/><radialGradient xlink:href="#b" id="g" cx="12" cy="12" r="8" fx="12" fy="12" gradientUnits="userSpaceOnUse"/><radialGradient xlink:href="#b" id="h" cx="12" cy="12" r="8" fx="12" fy="12" gradientTransform="matrix(-1 0 0 1 32 0)" gradientUnits="userSpaceOnUse"/><radialGradient xlink:href="#b" id="i" cx="12" cy="12" r="8" fx="12" fy="12" gradientTransform="rotate(180 16 16)" gradientUnits="userSpaceOnUse"/><radialGradient xlink:href="#b" id="j" cx="12" cy="12" r="8" fx="12" fy="12" gradientTransform="matrix(1 0 0 -1 0 32)" gradientUnits="userSpaceOnUse"/></defs><path d="M24 12h4v8h-4z" style="fill:url(#c);stroke-width:.1;stop-color:#000;fill-opacity:1"/><path d="M-8 12h4v8h-4z" style="fill:url(#d);fill-opacity:1;stroke-width:.1;stop-color:#000" transform="scale(-1 1)"/><path d="M-8-20h4v8h-4z" style="fill:url(#e);fill-opacity:1;stroke-width:.1;stop-color:#000" transform="matrix(0 -1 -1 0 0 0)"/><path d="M24-20h4v8h-4z" style="fill:url(#f);fill-opacity:1;stroke-width:.1;stop-color:#000" transform="rotate(90)"/><path d="M12 4a8 8 0 0 0-8 8h8V4z" style="fill:url(#g);stroke-width:.1;stop-color:#000;fill-opacity:1"/><path d="M20 4a8 8 0 0 1 8 8h-8z" style="fill:url(#h);fill-opacity:1;stroke-width:.1;stop-color:#000"/><path d="M20 28a8 8 0 0 0 8-8h-8z" style="fill:url(#i);fill-opacity:1;stroke-width:.1;stop-color:#000"/><path d="M12 28a8 8 0 0 1-8-8h8z" style="fill:url(#j);fill-opacity:1;stroke-width:.1;stop-color:#000"/><path d="M12 8v4H8v8h4v4h8v-4h4v-8h-4V8h-8z" style="fill:#000;stroke-width:.1;stop-color:#000"/></svg>