<?xml version="1.0" encoding="UTF-8" standalone="no"?>
<svg
   width="32"
   height="32"
   version="1.1"
   id="svg934"
   sodipodi:docname="gold.svg"
   inkscape:version="1.2.2 (b0a8486, 2022-12-01)"
   xmlns:inkscape="http://www.inkscape.org/namespaces/inkscape"
   xmlns:sodipodi="http://sodipodi.sourceforge.net/DTD/sodipodi-0.dtd"
   xmlns="http://www.w3.org/2000/svg"
   xmlns:svg="http://www.w3.org/2000/svg">
  <defs
     id="defs938" />
  <sodipodi:namedview
     id="namedview936"
     pagecolor="#505050"
     bordercolor="#ffffff"
     borderopacity="1"
     inkscape:showpageshadow="0"
     inkscape:pageopacity="0"
     inkscape:pagecheckerboard="1"
     inkscape:deskcolor="#505050"
     showgrid="true"
     inkscape:zoom="32.09375"
     inkscape:cx="6.496592"
     inkscape:cy="15.984421"
     inkscape:window-width="2560"
     inkscape:window-height="1440"
     inkscape:window-x="0"
     inkscape:window-y="0"
     inkscape:window-maximized="0"
     inkscape:current-layer="svg934">
    <inkscape:grid
       type="xygrid"
       id="grid1057"
       empspacing="4" />
  </sodipodi:namedview>
  <path
     d="m 17,13 v 6 c 0,3.34 2.736,6 6,6 1.214,0 3,-0.286 4,-1 l 1,1 h 1 V 13 h -3 v 6 c 0,3.999998 -6,3.999998 -6,0 V 13 Z M 9,7 C 5.748,7 3,9.666 3,13 v 12 h 3 v -6 h 6 v 6 h 3 V 13 C 15,9.66 12.258,7 9,7 Z m 0,3 c 1.656854,0 3,1.343146 3,3 v 3 H 6 v -3 c 0,-1.656854 1.3431458,-3 3,-3 z"
     style="fill:#000000;fill-opacity:1;fill-rule:nonzero;stroke:none;stroke-width:1.5"
     id="path932"
     sodipodi:nodetypes="csscccccssccssccccccssssccss" />
</svg>
