<?xml version="1.0" encoding="UTF-8" standalone="no"?>
<svg
   width="32"
   height="32"
   version="1.1"
   id="svg2719"
   sodipodi:docname="gold.svg"
   inkscape:version="1.2.2 (b0a8486, 2022-12-01)"
   xmlns:inkscape="http://www.inkscape.org/namespaces/inkscape"
   xmlns:sodipodi="http://sodipodi.sourceforge.net/DTD/sodipodi-0.dtd"
   xmlns="http://www.w3.org/2000/svg"
   xmlns:svg="http://www.w3.org/2000/svg">
  <defs
     id="defs2723" />
  <sodipodi:namedview
     id="namedview2721"
     pagecolor="#505050"
     bordercolor="#ffffff"
     borderopacity="1"
     inkscape:showpageshadow="0"
     inkscape:pageopacity="0"
     inkscape:pagecheckerboard="1"
     inkscape:deskcolor="#505050"
     showgrid="true"
     inkscape:zoom="32.09375"
     inkscape:cx="8.3037975"
     inkscape:cy="15.984421"
     inkscape:window-width="2560"
     inkscape:window-height="1440"
     inkscape:window-x="0"
     inkscape:window-y="0"
     inkscape:window-maximized="0"
     inkscape:current-layer="svg2719">
    <inkscape:grid
       type="xygrid"
       id="grid2842"
       empspacing="4" />
  </sodipodi:namedview>
  <path
     style="fill:#000000;fill-opacity:1;fill-rule:nonzero;stroke:none;stroke-width:1.5"
     d="M 17.5,13"
     id="path2850" />
  <path
     style="fill:#000000;fill-opacity:1;fill-rule:nonzero;stroke:none;stroke-width:1.5"
     d="m 17,13 v 6 c 0.0825,3.3405 2.736,6 6,6 1.2135,0 2.998,-0.286 4,-1 l 1,1 h 1 V 13 h -3 v 6 c 0,1.656854 -1.343146,3 -3,3 -1.6575,0 -3,-1.347 -3,-3 v -6 z"
     id="path2848"
     sodipodi:nodetypes="ccscccccssscc" />
  <path
     id="path2846"
     style="fill:#000000;fill-opacity:1;fill-rule:nonzero;stroke:none;stroke-width:1.5"
     d="M 9,7 C 5.7480033,7 3.0929999,9.6655033 3,13 v 12 h 3 v -7.5 h 6 V 25 h 3 V 13 C 14.9175,9.6595033 12.257997,7 9,7 Z m 0,3 a 3,3 0 0 1 3,3 v 1.5 H 6 V 13 a 3,3 0 0 1 3,-3 z" />
</svg>
