<svg xmlns="http://www.w3.org/2000/svg" width="32" height="128"><path d="M8 8h4v4H8Zm6 0h4v4h-4Zm6 0h4v4h-4ZM8 14h4v4H8Zm6 0h4v4h-4Zm6 0h4v4h-4ZM8 20h4v4H8Zm6 0h4v4h-4Zm6 0h4v4h-4ZM8 40h4v4H8Zm6 0h4v4h-4Zm6 0h4v4h-4ZM8 46h4v4H8Zm6 0h4v4h-4Zm6 0h4v4h-4ZM8 52h4v4H8Zm6 0h4v4h-4Zm6 0h4v4h-4ZM8 72h4v4H8Zm6 0h4v4h-4Zm6 0h4v4h-4ZM8 78h4v4H8Zm6 0h4v4h-4Zm6 0h4v4h-4ZM8 84h4v4H8Zm6 0h4v4h-4Zm6 0h4v4h-4ZM8 104h4v4H8Zm6 0h4v4h-4Zm6 0h4v4h-4Zm-12 6h4v4H8Zm6 0h4v4h-4Zm6 0h4v4h-4Zm-12 6h4v4H8Zm6 0h4v4h-4Zm6 0h4v4h-4Zm0 0" style="stroke:none;fill-rule:nonzero;fill:#000;fill-opacity:1"/></svg>