<?xml version="1.0" encoding="UTF-8" standalone="no"?>
<svg
   width="32"
   height="32"
   version="1.1"
   id="svg3040"
   sodipodi:docname="iron.svg"
   inkscape:version="1.2.2 (b0a8486, 2022-12-01)"
   xmlns:inkscape="http://www.inkscape.org/namespaces/inkscape"
   xmlns:sodipodi="http://sodipodi.sourceforge.net/DTD/sodipodi-0.dtd"
   xmlns="http://www.w3.org/2000/svg"
   xmlns:svg="http://www.w3.org/2000/svg">
  <defs
     id="defs3044" />
  <sodipodi:namedview
     id="namedview3042"
     pagecolor="#505050"
     bordercolor="#ffffff"
     borderopacity="1"
     inkscape:showpageshadow="0"
     inkscape:pageopacity="0"
     inkscape:pagecheckerboard="1"
     inkscape:deskcolor="#505050"
     showgrid="true"
     inkscape:zoom="32.09375"
     inkscape:cx="11.855891"
     inkscape:cy="15.984421"
     inkscape:window-width="2560"
     inkscape:window-height="1412"
     inkscape:window-x="0"
     inkscape:window-y="28"
     inkscape:window-maximized="0"
     inkscape:current-layer="svg3040">
    <inkscape:grid
       type="xygrid"
       id="grid3163"
       empspacing="4" />
  </sodipodi:namedview>
  <path
     d="M 4.0166926,25 V 7 H 16.016693 v 3 H 7.0166926 v 3 h 6.0000004 v 3 H 7.0166926 v 9 z M 22.016693,10 c -3.3105,0 -6,3.351 -6,7.5 0,4.143 2.6955,7.5 6,7.5 h 3 l 1.5,-3 h -4.5 c -1.272,0 -2.397,-1.2075 -2.8245,-3 h 8.6955 a 9.765,9.765 0 0 0 0,-1.5 c 0,-4.143 -2.6895,-7.5 -6,-7.5 z m 0,3 c 1.272,0 2.397,1.2 2.8245,3 h -5.6445 c 0.4275,-1.7925 1.5,-3 2.8245,-3 z m 0,0"
     style="fill:#000000;fill-opacity:1;fill-rule:nonzero;stroke:none;stroke-width:1.5"
     id="path3038" />
</svg>
