<svg xmlns="http://www.w3.org/2000/svg" width="32" height="32" viewBox="0 0 8.467 8.467"><path d="M.529 3.969h1.058v.529H.529zm3.44-3.44h.529v1.058h-.529zm2.91 3.44h1.058v.529H6.879z" style="fill:#000;stroke:none;stroke-width:0"/><path d="m6.085 2.117.265.264.794-.793-.265-.265-.794.794m-3.704 0-.264.264-.794-.793.265-.265.793.794" style="fill:#000;stroke:none;stroke-width:.264583px;stroke-linecap:butt;stroke-linejoin:miter;stroke-opacity:1"/><path d="M3.969-7.937h.529v1.058h-.529z" style="fill:#000;stroke:none;stroke-width:0" transform="scale(1 -1)"/><path d="m6.085 6.35.265-.265.794.794-.265.265-.794-.794m-3.704 0-.264-.265-.794.794.265.265.793-.794" style="fill:#000;stroke:none;stroke-width:.264583px;stroke-linecap:butt;stroke-linejoin:miter;stroke-opacity:1"/><circle cx="4.233" cy="4.233" r="2.117" style="fill:#000;stroke:none;stroke-width:0"/></svg>