<svg xmlns="http://www.w3.org/2000/svg" width="32" height="32"><path d="M6 0v2.004h2V0H5.996Zm2 2.004V8H2v4h6v3h4v-3h3V8h-3V2H8Zm4 0h2.004V0H12Zm-9.996 9.992H0V14h2.004Zm0-4V5.992H0v2.004ZM18 0v2.004h2V0h-2.004Zm2 2.004V8h-3v4h3v3h4v-3h6V8h-6V2h-4Zm4 0h2.004V0H24ZM30 8h2V5.996h-2.004V8Zm0 4v2.004h2V12h-2.004ZM8 17v3H2v4h6v6h4v-6h3v-4h-3v-3Zm4 13v2h2.004v-2.004H12Zm-4 0H5.996v2H8v-2.004Zm-6-6H0v2.004h2.004V24Zm0-4v-2.004H0V20h2.004Zm18-3v3h-3v4h3v6h4v-6h6v-4h-6v-3Zm10 3h2v-2.004h-2.004V20Zm0 4v2.004h2V24h-2.004Zm-6 6v2h2.004v-2.004H24Zm-4 0h-2.004v2H20v-2.004Zm0 0" style="stroke:none;fill-rule:nonzero;fill:#000;fill-opacity:1"/></svg>