<svg xmlns="http://www.w3.org/2000/svg" width="32" height="32"><path d="M14 8a5.998 5.998 0 1 1-11.996.004A5.998 5.998 0 0 1 14 8Zm15.996 0A5.998 5.998 0 1 1 18 8.004 5.998 5.998 0 0 1 29.996 8ZM14 24a5.998 5.998 0 1 1-11.996-.004A5.998 5.998 0 0 1 14 24Zm15.996 0A5.998 5.998 0 1 1 18 23.996 5.998 5.998 0 0 1 29.996 24Zm0 0" style="stroke:none;fill-rule:nonzero;fill:#000;fill-opacity:1"/><path d="M21.996 16A5.998 5.998 0 1 1 10 15.996 5.998 5.998 0 0 1 21.996 16Zm0 0" style="stroke:none;fill-rule:nonzero;fill:#000;fill-opacity:1"/></svg>