<svg xmlns="http://www.w3.org/2000/svg" width="32" height="32" viewBox="0 0 8.467 8.467"><path d="M1.588 0v.53h.529V0h-.53zM6.35 0v.53h.53V0h-.53zM2.117.53v1.586H.53v.53l2.116.001V.53h-.53zm3.703 0v2.117l2.117-.001v-.53H6.35V.53h-.53zM0 1.588v.529h.53v-.53H0zm7.938 0v.529h.529v-.53h-.53zM3.704 3.704v1.058h1.058V3.704H3.704zM.53 5.82v.53h1.587v1.587h.529V5.82H.53zm7.407 0-2.117.001v2.116h.53V6.35h1.587v-.53zM0 6.35v.53h.53v-.53H0zm7.938 0v.53h.529v-.53h-.53zm-6.35 1.588v.529h.529v-.53h-.53zm4.762 0v.529h.53v-.53h-.53z" style="fill:#000;fill-opacity:1;stroke:none;stroke-width:.124725"/></svg>