<svg width="32" height="32" viewBox="0 0 8.467 8.467" xmlns="http://www.w3.org/2000/svg"><path style="fill:#000;fill-opacity:1;stroke:none;stroke-width:.119246" d="M1.588 0v.53h.529V0h-.53zm.529.53v1.587H.529v1.058h1.588v.794h1.058v-.794h.794V2.117h-.794V.529H2.117zm1.058 0h.53V0h-.53v.53zM.53 3.174H0v.53h.53v-.53zm0-1.058v-.53H0v.53h.53zM4.763 0v.53h.529V0h-.53zm.529.53v1.587h-.794v1.058h.794v.794H6.35v-.794h1.588V2.117H6.35V.529H5.292zm1.058 0h.53V0h-.53v.53zm1.588 1.587h.529v-.53h-.53v.53zm0 1.058v.53h.529v-.53h-.53zM2.117 4.498v.794H.529V6.35h1.588v1.588h1.058V6.35h.794V5.292h-.794v-.794H2.117zm1.058 3.44v.529h.53v-.53h-.53zm-1.058 0h-.53v.529h.53v-.53zM.529 6.35H0v.53h.53v-.53zm0-1.058v-.53H0v.53h.53zm4.763-.794v.794h-.794V6.35h.794v1.588H6.35V6.35h1.588V5.292H6.35v-.794H5.292zm2.646.794h.529v-.53h-.53v.53zm0 1.058v.53h.529v-.53h-.53zM6.35 7.938v.529h.53v-.53h-.53zm-1.058 0h-.53v.529h.53v-.53z"/></svg>