<svg xmlns="http://www.w3.org/2000/svg" width="32" height="32"><path d="M6 0v2h2V0H6Zm2 2v6H2v4h6v3h4v-3h3V8h-3V2H8Zm4 0h2V0h-2ZM2 12H0v2h2Zm0-4V6H0v2Zm16-8v2h2V0h-2Zm2 2v6h-3v4h3v3h4v-3h6V8h-6V2h-4Zm4 0h2V0h-2Zm6 6h2V6h-2v2Zm0 4v2h2v-2h-2ZM8 17v3H2v4h6v6h4v-6h3v-4h-3v-3Zm4 13v2h2v-2h-2Zm-4 0H6v2h2v-2Zm-6-6H0v2h2v-2Zm0-4v-2H0v2h2Zm18-3v3h-3v4h3v6h4v-6h6v-4h-6v-3Zm10 3h2v-2h-2v2Zm0 4v2h2v-2h-2Zm-6 6v2h2v-2h-2Zm-4 0h-2v2h2v-2Zm0 0" style="stroke:none;fill-rule:nonzero;fill:#000;fill-opacity:1"/></svg>