<svg xmlns="http://www.w3.org/2000/svg" width="32" height="128"><path d="m30 14-0-12H2V12H0l3 3 3-3H4V4h24V14L29 13ZM2 18 2 30h28v-10H32l-3-3-3 3h2v8H4v-10L3 19ZM30 46l-0-12H2V44H0l3 3 3-3H4v-8h24V46L29 45ZM2 50 2 62h28v-10H32l-3-3-3 3h2V60H4V50L3 51ZM30 78l-0-12H2V76H0l3 3 3-3H4v-8h24V78L29 77ZM2 82 2 94h28v-10H32l-3-3-3 3h2v8H4v-10L3 83ZM30 110l-0-12H2V108H0l3 3 3-3H4v-8h24V110L29 109Zm-28 4 0 12h28v-10H32l-3-3-3 3h2v8H4v-10L3 115.012Zm0 0" style="stroke:none;fill-rule:nonzero;fill:#fff;fill-opacity:1"/></svg>