<svg xmlns="http://www.w3.org/2000/svg" width="32" height="128"><path d="m30 14-.004-11.992H2.004V12H0l3 3 3-3H4V4.004h23.996V14L29 13ZM2 18.004 2.004 30h27.992v-9.992H32l-3-3-3 3h2v7.996H4.004v-10L3 19.008ZM30 46l-.004-11.992H2.004V44H0l3 3 3-3H4v-7.996h23.996V46L29 45ZM2 50.004 2.004 62h27.992v-9.996H32l-3-3-3 3h2V60H4.004V50L3 51.004ZM30 78l-.004-11.992H2.004V76H0l3 3 3-3H4v-7.996h23.996V78L29 77ZM2 82.004 2.004 94h27.992v-9.992H32l-3-3-3 3h2v7.996H4.004v-10L3 83.008ZM30 110l-.004-11.992H2.004V108H0l3 3 3-3H4v-7.996h23.996V110L29 109Zm-28 4.004.004 12h27.992v-9.992H32l-3-3-3 3h2v7.996H4.004v-10L3 115.012Zm0 0" style="stroke:none;fill-rule:nonzero;fill:#fff;fill-opacity:1"/></svg>