<svg xmlns="http://www.w3.org/2000/svg" width="32" height="32" viewBox="0 0 8.467 8.467"><path d="M3.175 4.763 1.852 6.086.834 5.068A1.852 1.852 0 0 0 .53 6.085a1.852 1.852 0 0 0 1.852 1.852 1.852 1.852 0 0 0 1.017-.305L2.381 6.615l1.323-1.323-.529-.53zm2.91 3.175a.53.53 0 0 0-.529.529h1.059a.53.53 0 0 0-.53-.53zM2.381.53A.53.53 0 0 1 1.852 0H2.91a.53.53 0 0 1-.529.53ZM.53 2.381a.53.53 0 0 1-.53.53v-1.06a.53.53 0 0 1 .53.53Zm7.407 3.704a.53.53 0 0 0 .53.53V5.556a.53.53 0 0 0-.53.53ZM0 7.938a.53.53 0 0 1 .53.529H0ZM8.467.53a.53.53 0 0 1-.53-.53h.53zm-2.381 0A1.852 1.852 0 0 0 5.07.833l1.017 1.018-1.323 1.323.529.53L6.615 2.38l1.018 1.017a1.852 1.852 0 0 0 .305-1.017A1.852 1.852 0 0 0 6.086.529z" style="fill:#000;stroke-width:0"/></svg>