<svg xmlns="http://www.w3.org/2000/svg" width="32" height="32"><path d="M12 14 7 9l-3.848 3.852a7.016 7.016 0 0 1-1.148-3.848 6.995 6.995 0 0 1 10.84-5.848L9 7l5 5ZM22.996 2A2.003 2.003 0 0 1 21 0h4a2.003 2.003 0 0 1-2.004 2.004ZM9 29.996C7.895 30 7 30.895 7 32h3.996c0-1.105-.894-2-1.996-2.004ZM2.004 23c0-1.105-.899-2-2.004-2v4.004A2.003 2.003 0 0 0 2.004 23ZM29.996 9.004C29.996 7.894 30.895 7 32 7v4a2.002 2.002 0 0 1-2.004-2ZM0 2c1.105 0 2-.895 2.004-2H0Zm32 27.996A2.006 2.006 0 0 0 29.996 32H32ZM23 30c-1.363 0-2.7-.402-3.844-1.152L23 25l-5-5 2-2.004L25 23l3.848-3.84A6.998 6.998 0 0 1 23 30.004Zm0 0" style="stroke:none;fill-rule:nonzero;fill:#000;fill-opacity:1"/></svg>