<svg xmlns="http://www.w3.org/2000/svg" width="32" height="32" viewBox="0 0 8.467 8.467"><path d="M3.175 3.704 1.852 2.381.834 3.4A1.852 1.852 0 0 1 .53 2.382 1.852 1.852 0 0 1 2.381.53a1.852 1.852 0 0 1 1.017.305L2.381 1.852l1.323 1.323ZM6.085.529A.53.53 0 0 1 5.556 0h1.059a.53.53 0 0 1-.53.53ZM2.381 7.937a.53.53 0 0 0-.529.53H2.91a.53.53 0 0 0-.529-.53ZM.53 6.086a.53.53 0 0 0-.53-.53v1.06a.53.53 0 0 0 .53-.53Zm7.407-3.704a.53.53 0 0 1 .53-.53v1.059a.53.53 0 0 1-.53-.53ZM0 .529A.53.53 0 0 0 .53 0H0Zm8.467 7.408a.53.53 0 0 0-.53.53h.53zm-2.381.001a1.852 1.852 0 0 1-1.017-.305l1.017-1.018-1.323-1.323.529-.53 1.323 1.324L7.633 5.07a1.852 1.852 0 0 1 .305 1.017 1.852 1.852 0 0 1-1.852 1.852Z" style="fill:#000;stroke-width:0"/></svg>