<svg xmlns="http://www.w3.org/2000/svg" width="32" height="32"><path d="m12 18-5 5-3.848-3.848a6.998 6.998 0 0 0 9.695 9.691L9 25l5-5-2-2.004Zm10.996 12A2.003 2.003 0 0 0 21 32h4a2.003 2.003 0 0 0-2.004-2.004ZM9 2.004A2.005 2.005 0 0 1 7 0h3.996c0 1.105-.894 2-1.996 2.004ZM2.004 9c0 1.105-.899 2-2.004 2V6.996c1.105 0 2.004.895 2.004 2.004Zm27.992 13.996c0 1.11.899 2.004 2.004 2.004v-4a2.002 2.002 0 0 0-2.004 2ZM0 30c1.105 0 2 .895 2.004 2H0ZM32 2.004A2.006 2.006 0 0 1 29.996 0H32Zm-9 0a7.02 7.02 0 0 0-3.84 1.144l3.844 3.848-5 5 2 2.004L25 8.996l3.848 3.844A6.995 6.995 0 0 0 23 2Zm0 0" style="stroke:none;fill-rule:nonzero;fill:#000;fill-opacity:1"/></svg>