<svg xmlns="http://www.w3.org/2000/svg" width="32" height="32"><path d="m12 18-5 5-3.848-3.848a7 7 0 0 0 9.695 9.691L9 25l5-5-2-2Zm11 12A2 2 0 0 0 21 32h4a2 2 0 0 0-2-2ZM9 2A2 2 0 0 1 7 0h4c0 1.105-.894 2-2 2ZM2 9c0 1.105-.899 2-2 2V7c1.105 0 2 .895 2 2Zm28 14c0 1.11.899 2 2 2v-4a2 2 0 0 0-2 2ZM0 30c1.105 0 2 .895 2 2H0ZM32 2A2 2 0 0 1 30 0H32Zm-9 0a7 7 0 0 0-3.84 1.144l3.844 3.848-5 5 2 2L25 9l3.848 3.844A7 7 0 0 0 23 2Zm0 0" style="stroke:none;fill-rule:nonzero;fill:#000;fill-opacity:1"/></svg>