<svg xmlns="http://www.w3.org/2000/svg" width="32" height="32"><path d="M12 14 7 9l-3.848 3.852a7 7 0 0 1-1.148-3.848 7 7 0 0 1 10.84-5.848L9 7l5 5ZM23 2a2 2 0 0 1-2-2h4a2 2 0 0 1-2 2ZM9 30a2 2 0 0 0-2 2h4c0-1.105-.894-2-2-2Zm-7-7c0-1.105-.899-2-2-2v4a2 2 0 0 0 2-2ZM30 9c0-1.106.895-2 2-2v4a2 2 0 0 1-2-2ZM0 2a2 2 0 0 0 2-2H0Zm32 28a2 2 0 0 0-2 2h2Zm-9 0c-1.363 0-2.7-.402-3.844-1.152L23 25l-5-5 2-2 5 5 3.848-3.84A7 7 0 0 1 23 30Zm0 0" style="stroke:none;fill-rule:nonzero;fill:#000;fill-opacity:1"/></svg>