<svg xmlns="http://www.w3.org/2000/svg" width="32" height="32"><path d="M7 10c-2.21 0-4 1.566-4 3.5 0 1.922 1.77 3.48 3.957 3.5H7c1.086.016 1.957.68 1.957 1.5 0 .828-.895 1.5-2 1.5-.844-.004-1.594-.402-1.875-1H3c.285 1.723 1.969 3 3.957 3 2.211 0 4-1.566 4-3.5 0-1.922-1.766-3.48-3.957-3.5h-.043C5.871 14.984 5 14.316 5 13.5c0-.828.895-1.5 2-1.5.844.004 1.676.402 1.957 1h2c-.281-1.723-1.969-3-3.957-3Zm5 5h2v7h-2Zm2.004-3a1.003 1.003 0 1 1-2.006-.006 1.003 1.003 0 0 1 2.006.006ZM19 10c-2.207.004-3.996 2.688-3.996 6 0 3.313 1.789 6 4 6 2.207 0 4-2.688 3.996-6 0-3.313-1.79-6-3.996-6Zm0 2c1.105 0 2.004 1.79 2.004 4 0 2.207-.899 4-2.004 4-1.11 0-2.004-1.793-2.004-4 0-2.21.899-4 2.004-4Zm5 2v2h2.004c.375-.031.738.152.937.473.2.324.2.73 0 1.05a.994.994 0 0 1-.937.473A3.007 3.007 0 0 0 22.996 21v3H29v-2.004h-4V21c0-.555.445-1 1-1a3 3 0 0 0 0-6Zm0 0" style="stroke:none;fill-rule:nonzero;fill:#000;fill-opacity:1"/></svg>