<?xml version="1.0" encoding="UTF-8" standalone="no"?>
<svg
   width="32"
   height="32"
   version="1.1"
   id="svg3212"
   sodipodi:docname="quartz.svg"
   inkscape:version="1.2.2 (b0a8486, 2022-12-01)"
   xmlns:inkscape="http://www.inkscape.org/namespaces/inkscape"
   xmlns:sodipodi="http://sodipodi.sourceforge.net/DTD/sodipodi-0.dtd"
   xmlns="http://www.w3.org/2000/svg"
   xmlns:svg="http://www.w3.org/2000/svg">
  <defs
     id="defs3216" />
  <sodipodi:namedview
     id="namedview3214"
     pagecolor="#505050"
     bordercolor="#ffffff"
     borderopacity="1"
     inkscape:showpageshadow="0"
     inkscape:pageopacity="0"
     inkscape:pagecheckerboard="1"
     inkscape:deskcolor="#505050"
     showgrid="true"
     inkscape:zoom="32.09375"
     inkscape:cx="11.855891"
     inkscape:cy="15.984421"
     inkscape:window-width="2560"
     inkscape:window-height="1412"
     inkscape:window-x="0"
     inkscape:window-y="28"
     inkscape:window-maximized="0"
     inkscape:current-layer="svg3212">
    <inkscape:grid
       type="xygrid"
       id="grid6876"
       empspacing="4" />
  </sodipodi:namedview>
  <path
     d="m 7,10 c -2.21,0 -4,1.566 -4,3.5 0,2 1.77,3.48 4,3.5 1,0 2,0.68 2,1.5 C 9,19.328 8.105,20 7,20 6.156,20 5.406,19.598 5.125,19 H 3 c 0.285,1.723 2,3 4,3 2.211,0 4,-1.566 4,-3.5 C 11,16.5 9.234,15.02 7,15 5.871,15 5,14.316 5,13.5 5,12.672 5.895,12 7,12 c 0.844,0 1.676,0.402 2,1 h 2 C 10.719,11.277 9,10 7,10 Z m 5,4 h 2 v 8 h -2 z m 2,-2 c 0,1.333333 -2,1.333333 -2,0 0,-1.333333 2,-1.333333 2,0 z m 5,-2 c -2.207,0 -4,2.688 -4,6 0,3.313 1.789,6 4,6 2.207,0 4,-2.688 4,-6 0,-3.313 -1.79,-6 -4,-6 z m 0,2 c 1.105,0 2,1.79 2,4 0,2.207 -0.899,4 -2,4 -1.11,0 -2,-1.793 -2,-4 0,-2.21 0.899,-4 2,-4 z m 5,2 v 2 h 2 c 0.375,0 0.738,0.152 1,0.5 0.2,0.324 0.2,0.73 0,1 -0.200328,0.354843 -0.595929,0.552643 -1,0.5 -1.656854,0 -3,1.343146 -3,3 v 3 h 6 v -2 h -4 v -1 c 0,-0.555 0.445,-1 1,-1 3.999998,0 3.999998,-6 0,-6 z"
     style="fill:#000000;fill-opacity:1;fill-rule:nonzero;stroke:none"
     id="path3210"
     sodipodi:nodetypes="sscssccsscssccscccccsssssssssssssccscccsccccsssc" />
</svg>
