<svg xmlns="http://www.w3.org/2000/svg" width="32" height="32"><path d="M7 10c-2.21 0-4 1.566-4 3.5 0 2 1.77 3.48 4 3.5 1 0 2 .68 2 1.5 0 .828-.895 1.5-2 1.5-.844 0-1.594-.402-1.875-1H3c.285 1.723 2 3 4 3 2.211 0 4-1.566 4-3.5 0-2-1.766-3.48-4-3.5-1.129 0-2-.684-2-1.5 0-.828.895-1.5 2-1.5.844 0 1.676.402 2 1h2c-.281-1.723-2-3-4-3Zm5 5h2v7h-2Zm2-3a1 1 0 1 1-2 0 1 1 0 0 1 2 0Zm5-2c-2.207 0-4 2.688-4 6 0 3.313 1.789 6 4 6 2.207 0 4-2.688 4-6 0-3.313-1.79-6-4-6Zm0 2c1.105 0 2 1.79 2 4 0 2.207-.899 4-2 4-1.11 0-2-1.793-2-4 0-2.21.899-4 2-4Zm5 2v2h2c.375 0 .738.152 1 .5.2.324.2.73 0 1a1 1 0 0 1-1 .5 3 3 0 0 0-3 3v3h6v-2h-4v-1c0-.555.445-1 1-1a3 3 0 0 0 0-6Zm0 0" style="stroke:none;fill-rule:nonzero;fill:#000;fill-opacity:1"/></svg>