<svg xmlns="http://www.w3.org/2000/svg" width="32" height="32"><path d="M12 4a8 8 0 0 0-8 8v8a8 8 0 0 0 8 8h8a8 8 0 0 0 8-8v-8a8 8 0 0 0-8-8Zm0 2h8c3.313 0 6 2.688 6 6v8c0 3.313-2.688 6-6 6h-8c-3.313 0-6-2.688-6-6v-8c0-3.313 2.688-6 6-6Zm0 0" style="stroke:none;fill-rule:nonzero;fill:#000;fill-opacity:1"/><path d="M14 8c-3.313 0-6 2.688-6 6v4c0 3.313 2.688 6 6 6h4c3.313 0 6-2.688 6-6v-4c0-3.313-2.688-6-6-6Zm0 2h4a4 4 0 0 1 4 4v4c0 2.207-1.793 4-4 4h-4a4 4 0 0 1-4-4v-4c0-2.21 1.79-4 4-4Zm0 0" style="stroke:none;fill-rule:nonzero;fill:#000;fill-opacity:1"/></svg>