<svg xmlns="http://www.w3.org/2000/svg" width="32" height="32"><path d="M10.996 2.004a8.994 8.994 0 0 0-8.992 8.992V21a8.993 8.993 0 0 0 8.992 9H21a8.992 8.992 0 0 0 9-9V11a8.992 8.992 0 0 0-9-9H11ZM12 4h7.996a8 8 0 0 1 8 8v7.996a8 8 0 0 1-8 8H12a8 8 0 0 1-8-8V12a8 8 0 0 1 8-8Zm0 2c-3.313 0-6 2.688-6 6v7.996a6.001 6.001 0 0 0 6 6.008h7.996a6.001 6.001 0 0 0 4.25-1.762 5.997 5.997 0 0 0 1.758-4.25V12a6.008 6.008 0 0 0-1.762-4.246A6.017 6.017 0 0 0 19.992 6Zm2.004 2H18c3.313 0 6 2.688 6 6v4c0 3.313-2.688 6-6 6h-4c-3.313 0-6-2.688-6-6v-4c0-3.313 2.688-6 6-6Zm0 2a4.002 4.002 0 0 0-4.008 4v4a4.002 4.002 0 0 0 4.008 4H18a4.002 4.002 0 0 0 3.996-4v-4c0-2.21-1.789-4-4-4H14Zm.992 2.004H17a3.002 3.002 0 0 1 3 2.992V17a3 3 0 0 1-3 3h-2.004A2.997 2.997 0 0 1 12 17v-2.004A3 3 0 0 1 14.996 12ZM16 14c-1.102 0-2 .895-2 2a1.999 1.999 0 1 0 2-1.996Zm0 0" style="stroke:none;fill-rule:nonzero;fill:#000;fill-opacity:1"/></svg>