<svg xmlns="http://www.w3.org/2000/svg" width="32" height="32"><path d="M15 12a3 3 0 0 0-3 3v2a3 3 0 0 0 3 3h2a3 3 0 0 0 3-3v-2.004A2.997 2.997 0 0 0 17 12h-2.004Zm1 2.004A1.999 1.999 0 1 1 14 16c0-1.105.898-2 2-2ZM14 8c-3.313 0-6 2.688-6 6v3.996A6 6 0 0 0 14 24h3.996A6.005 6.005 0 0 0 24 17.996V14a6 6 0 0 0-6.004-6Zm0 2h3.996A4.002 4.002 0 0 1 22 14v3.996a4.006 4.006 0 0 1-1.172 2.832A4.006 4.006 0 0 1 17.996 22H14c-2.21 0-4-1.793-4-4.004V14c0-2.21 1.79-4 4-4Zm-2-6a8 8 0 0 0-8 8v8a7.997 7.997 0 0 0 8 7.996h8A7.994 7.994 0 0 0 27.996 20v-8c0-4.418-3.578-8-7.996-8Zm0 2h8c3.313 0 6 2.688 6 6v8c0 3.313-2.688 6-6 6h-8a6 6 0 0 1-6.004-6v-8A6.005 6.005 0 0 1 12 5.996Zm0 0" style="stroke:none;fill-rule:nonzero;fill:#000;fill-opacity:1"/></svg>