<svg xmlns="http://www.w3.org/2000/svg" width="32" height="32"><path d="M11 2a9 9 0 0 0-9 9v10a9 9 0 0 0 9 9h10a9 9 0 0 0 9-9V11a9 9 0 0 0-9-9H11Zm1 2h8a8 8 0 0 1 8 8v8a8 8 0 0 1-8 8h-8a8 8 0 0 1-8-8v-8a8 8 0 0 1 8-8Zm0 2c-3.313 0-6 2.688-6 6v8a6 6 0 0 0 6 6h8a6 6 0 0 0 4.25-1.762 6 6 0 0 0 1.758-4.25V12a6 6 0 0 0-1.762-4.246A6.017 6.017 0 0 0 20 6Zm2 2h4c3.313 0 6 2.688 6 6v4c0 3.313-2.688 6-6 6h-4c-3.313 0-6-2.688-6-6v-4c0-3.313 2.688-6 6-6Zm0 2a4 4 0 0 0-4 4v4a4 4 0 0 0 4 4h4a4 4 0 0 0 4-4v-4c0-2.21-1.789-4-4-4h-4Zm1 2h2a3 3 0 0 1 3 3v2a3 3 0 0 1-3 3h-2a3 3 0 0 1-3-3v-2a3 3 0 0 1 3-3Zm1 2c-1.102 0-2 .895-2 2a2 2 0 1 0 2-2Zm0 0" style="stroke:none;fill-rule:nonzero;fill:#000;fill-opacity:1"/></svg>