<svg xmlns="http://www.w3.org/2000/svg" width="32" height="32"><path d="M15 12a3 3 0 0 0-3 3v2a3 3 0 0 0 3 3h2a3 3 0 0 0 3-3v-2a3 3 0 0 0-3-3h-2Zm1 2a2 2 0 1 1-2 2c0-1.105.898-2 2-2Zm-2-6c-3.313 0-6 2.688-6 6v4a6 6 0 0 0 6 6h4a6 6 0 0 0 6-6v-4a6 6 0 0 0-6-6Zm0 2h4a4 4 0 0 1 4 4v4a4 4 0 0 1-1.172 2.832A4 4 0 0 1 18 22h-4a4 4 0 0 1-4-4v-4c0-2.21 1.79-4 4-4Zm-2-6a8 8 0 0 0-8 8v8a8 8 0 0 0 8 8h8a8 8 0 0 0 8-8v-8c0-4.418-3.578-8-8-8Zm0 2h8c3.313 0 6 2.688 6 6v8c0 3.313-2.688 6-6 6h-8a6 6 0 0 1-6-6v-8a6 6 0 0 1 6-6Zm0 0" style="stroke:none;fill-rule:nonzero;fill:#000;fill-opacity:1"/></svg>