<svg xmlns="http://www.w3.org/2000/svg" width="32" height="32"><path d="M12.004 4A7.997 7.997 0 0 0 4 12.004v5.992a8.003 8.003 0 0 0 8.004 8.008h5.992A6.005 6.005 0 0 0 24 20v-2h-2.004v2.004a4.002 4.002 0 0 1-4 3.996h-5.992A6.005 6.005 0 0 1 6 17.996v-5.992A6.005 6.005 0 0 1 12.004 6h7.988a6.01 6.01 0 0 1 4.25 1.754 6.008 6.008 0 0 1 1.762 4.25v9.992a6.03 6.03 0 0 1-1.758 4.254 6.01 6.01 0 0 1-4.254 1.754H16v2.004h3.996a7.995 7.995 0 0 0 8-8.012v-9.992a7.996 7.996 0 0 0-8-8.004ZM14 8.004A6 6 0 0 0 8 14v2a6 6 0 0 0 6 5.996h3a3 3 0 0 0 2.996-3v-1h-2A2 2 0 0 1 16 20v-.008h-2c-2.21 0-4-1.789-4-3.996v-2c0-2.21 1.79-4 4-4h4C20.21 10 22 11.79 21.996 14v4H24v-4c0-3.313-2.688-6-6-6h-4Zm.996 4A3 3 0 0 0 12 15v1a2 2 0 0 0 4 0h-2a2 2 0 0 1 2-2v-1.996Zm1.004 0V14c1.105 0 2 .898 2 2v2h2v-3a3 3 0 0 0-2.996-2.996Zm0 0" style="stroke:none;fill-rule:nonzero;fill:#000;fill-opacity:1"/></svg>