<svg xmlns="http://www.w3.org/2000/svg" width="32" height="32"><path d="M12 4a8 8 0 0 0-8 8v6a8 8 0 0 0 8 8h6a6 6 0 0 0 6-6v-2h-2v2a4 4 0 0 1-4 4h-6a6 6 0 0 1-6-6v-6a6 6 0 0 1 6-6h7.988a6.01 6.01 0 0 1 4.25 1.754A6 6 0 0 1 26 12v10a6 6 0 0 1-1.758 4.254A6.01 6.01 0 0 1 19.988 28H16v2h4a8 8 0 0 0 8-8.012V12a8 8 0 0 0-8-8Zm2 4a6 6 0 0 0-6 6v2a6 6 0 0 0 6 6h3a3 3 0 0 0 3-3v-1h-2a2 2 0 0 1-2 2h-2c-2.21 0-4-1.789-4-4v-2c0-2.21 1.79-4 4-4h4c2.21 0 4 1.79 4 4v4h2v-4c0-3.313-2.688-6-6-6h-4Zm1 4a3 3 0 0 0-3 3v1a2 2 0 0 0 4 0h-2a2 2 0 0 1 2-2v-2Zm1 0v2c1.105 0 2 .898 2 2v2h2v-3a3 3 0 0 0-3-3Zm0 0" style="stroke:none;fill-rule:nonzero;fill:#000;fill-opacity:1"/></svg>