<svg xmlns="http://www.w3.org/2000/svg" xmlns:xlink="http://www.w3.org/1999/xlink" width="32" height="32"><defs><linearGradient id="a"><stop offset=".3333" style="stop-color:#000;stop-opacity:1"/><stop offset="1" style="stop-color:#000;stop-opacity:0"/></linearGradient><linearGradient id="c"><stop offset=".3333" style="stop-color:#000;stop-opacity:1"/><stop offset="1" style="stop-color:#000;stop-opacity:0"/></linearGradient><linearGradient id="b"><stop offset=".6667" style="stop-color:#000;stop-opacity:1"/><stop offset="1" style="stop-color:#000;stop-opacity:0"/></linearGradient><linearGradient xlink:href="#a" id="g" x1="16" x2="16" y1="16" y2="22" gradientUnits="userSpaceOnUse"/><radialGradient xlink:href="#b" id="d" cx="16" cy="16" r="12" fx="16" fy="16" gradientUnits="userSpaceOnUse"/><radialGradient xlink:href="#c" id="e" cx="10" cy="16" r="6" fx="10" fy="16" gradientUnits="userSpaceOnUse"/><radialGradient xlink:href="#c" id="f" cx="10" cy="16" r="6" fx="10" fy="16" gradientTransform="matrix(-1 0 0 1 32 0)" gradientUnits="userSpaceOnUse"/></defs><path d="M16 4A12 12 0 0 0 4 16h24A12 12 0 0 0 16 4z" style="fill:url(#d);stroke-width:.1;stop-color:#000;fill-opacity:1"/><path d="M4 16a6 6 0 0 0 6 6v-6H4z" style="fill:url(#e);stroke-width:.1;stop-color:#000;fill-opacity:1"/><path d="M28 16a6 6 0 0 1-6 6v-6z" style="fill:url(#f);fill-opacity:1;stroke-width:.1;stop-color:#000"/><path d="M10 16h12v6H10z" style="fill:url(#g);stroke-width:.122474;stop-color:#000;fill-opacity:1"/><path d="M14 16h4v12h-4z" style="fill:#000;stroke-width:.109545;stop-color:#000"/></svg>