<svg xmlns="http://www.w3.org/2000/svg" width="32" height="32"><path d="m11 4 4 4v6l-3-3V8h-1v2L9 8 8 9l2 2H8v1h3l3 3H8l-4-4v2l2 2H4v2h2l-2 2v2l4-4h6l-3 3H8v1h2l-2 2 1 1 2-2v2h1v-3l3-3v6l-4 4h2l2-2v2h2v-2l2 2h2l-4-4v-6l3 3v3h1v-2l2 2 1-1-2-2h2v-1h-3l-3-3h6l4 4v-2l-2-2h2v-2h-2l2-2v-2l-4 4h-6l3-3h3v-1h-2l2-2-1-1-2 2V8h-1v3l-3 3V8l4-4h-2l-2 2V4h-2v2l-2-2ZM0 24v8h8v-1H2l4-4-1-1-4 4v-6Zm32 0v8h-8v-1h6l-4-4 1-1 4 4v-6ZM0 8V0h8v1H2l4 4-1 1-4-4v6Zm32 0V0h-8v1h6l-4 4 1 1 4-4v6Zm0 0" style="stroke:none;fill-rule:nonzero;fill:#000;fill-opacity:1"/></svg>