<svg xmlns="http://www.w3.org/2000/svg" width="32" height="32"><path d="M0 0v2h2V0Zm2 1 1 1h6V0H8v1H2Zm7 1v6l1 1h1V8h1v1h3V8l-4-4h2l2 2V4h1V2H9Zm7 0h7V0h-7Zm7 0v6l1 1h6V3l-3 3-1-1 3-3h-6Zm6 0h1v1l1-1h-1V0h-6v1h6Zm2 0v6h1V2h-1Zm-7 7h-1v1Zm-1 1-1 1h1Zm0 1v1h1v-1Zm0 1h-2l-3 3h5Zm0 3v1h5v-1h-2l2-2v-2l-4 4Zm5 1v1h-2l2 2v2l-4-4h-1v3h1v1h-1v1l1 1h6v-7Zm-4 7h-1v1Zm-1 1-1-1h-1v1h-1v-1h-3v1l4 4h-2l-2-2v2h-1v2h7Zm-7 4v-5h-1v1l-4 4h2l2-2v2h1Zm-1-5v-5l-3 3v2Zm-3 0h-1v1h1Zm-1 0v-1l-1 1h1Zm-1 0H9v1l1-1Zm-1 1-1-1H2v6l3-3 1 1-3 3h6v-6Zm-6 6H2v-1l-1 1h1v1l1-1Zm-1 1v1h6v-1Zm-1-1v-6H0v6Zm1-7v-7H0v7Zm0-7h2v-1h2l-2-2v-2l4 4h1v-3H8v-1h1v-1L8 9H2v7Zm0-7V3L1 2v6H0v1h2Zm0-6 3 3 1-1-3-3H2Zm6 6h1V8Zm1 0v1l1 1H9v1h2l3 3H9v1h7V9h-1v5l-3-3V9h-1v1l-1-1H9Zm7 0h1V8l4-4h-2l-2 2V4h-1Zm1 0v5l3-3V9h-3Zm3 0h1V8h-1Zm1 0v1l1-1Zm1 0h1V8Zm-6 7v7h1v-5l3 3v2h1v-1l1 1h1v-1l-1-1h1v-1h-2l-3-3h5v-1Zm-7 0H4v1h2l-2 2v2l4-4h1Zm0 1v3h2l3-3H9Zm0 3H8v1h1Zm0 1v1l1-1H9Zm0 1-1 1h1ZM30 9v7h2V9h-2Zm0 14v6l1 1v-6h1v-1h-2Zm1 7h-1v-1l-3-3-1 1 3 3h1v2h2v-2Zm-1 1-1-1h-6v2h1v-1ZM9 30v2h7v-2H9Zm0 0" style="stroke:none;fill-rule:nonzero;fill:#000;fill-opacity:1"/></svg>