<svg xmlns="http://www.w3.org/2000/svg" width="32" height="32"><path d="m10.996 4 4.008 4v6l-3-3.004V8h-1.008v2L9 7.996 8 9l2 2H7.996v1h3L14 15H8l-4-4.004V13l2 2H4v2h2l-2 2.004V21l4-4h6l-3.004 3H8v1h2l-2.004 2L9 24l2-2.004V24h1v-3l3-3v6l-4.004 3.996H13L15 26v2h2v-2l2.004 2H21l-4-4v-6l3 3v3h1v-2.004L23 24l1-1.004L21.996 21H24v-1h-3l-3-3h6l3.996 4v-2L26 16.996h2v-1.992h-2L28 13v-2.004l-4 4.008h-6l3-3h3v-1.008h-2.004L24 9l-1.004-1L21 10V7.996h-1v3L17 14V8l4-4h-2l-2.004 2V4h-1.992v2L13 4ZM0 24v8h8v-1H2l3.996-4L5 26l-4 4v-6Zm32 0v8h-8v-1h5.996l-3.992-4 1-1 4 4v-6ZM0 8V0h8v1H2l3.996 4L5 6 1 2v6Zm32 0V0h-8v1h5.996l-3.992 4 1 1L31 2v6Zm0 0" style="stroke:none;fill-rule:nonzero;fill:#000;fill-opacity:1"/></svg>