<svg xmlns="http://www.w3.org/2000/svg" width="32" height="32"><path d="M0 0v2.004h2V0Zm2.004 1 .988 1.004h6.004V0h-1v1H2Zm6.992 1.004V8l1 1.004h1v-1h1.008v1h3v-1L10.996 4H13l2.004 2.004v-2H16V2H9Zm7.004 0h6.996V0H16Zm6.996 0v6l1.004 1h5.996v-6L27.004 6l-1-1L29 2h-6.004Zm6.004 0h.996v1.004L31 2.004h-1V0h-6v1h5.996Zm2 0v6h1V2h-1ZM24 9h-1.004v.996Zm-1.004.996-1 1h1Zm0 1v1.008H24v-1.008Zm0 1.008H21l-3 3h4.996Zm0 3V16h5.008v-.996h-2l2-2.004v-2.004L24 15.004ZM28 16v.996h-2L28 19v2l-4-4h-1.004v3H24v1h-1.004v1l1.004.996h5.996V16Zm-4 6.996h-1.004v1L23 24Zm-1.004 1-.996-1h-1V24h-1v-1.004h-3V24l4 4.004h-1.996L17 26v2h-1v1.996h6.996ZM16 28.004v-5.008h-1V24l-4.004 3.996H13l2-2V28h1ZM15 23v-5l-3 3v2Zm-3 0h-1v1.004h1Zm-1 0v-1.004l-1 1h1Zm-1 0H8.996v1.004l1-1.004Zm-1 1.004-1.004-1H8 2.004v6.004l3-3.004.996 1L3.004 30h6v-6Zm-6 5.992h-.996v-.992l-1 .996h1v1l1-1.004ZM2 31v1h6v-1Zm-1-1v-6H0v6Zm1.004-7.004V16H0v6.996Zm0-6.996h2v-1h2l-2-2v-2.004l4 4.004h1v-3H8v-1h1.004V9.996l-1-.996H2v7Zm0-7V2.996L1 2.004v6H0v1h2.004Zm0-6.004 3 3.004L6 5 2.996 2h-.992Zm6 6.004h1V7.996Zm1 0v.996l1 1.004H8.996v1h2l3 3h-5v1h7V9h-.992v5l-3-3.004v-2h-1.008V10l-1-1H9ZM16 9h1.004V8l4-4.004H19L17 6V4h-1Zm1.004 0v5l3-3.004v-2h-3Zm3 0h1V7.996h-1Zm1 0v1l1-1Zm1 0H23V8ZM16 16v6.996h1V18l3 3v2h1v-1.004l1 1h.996V22l-1-1h1v-1H21l-3-3h4.996v-1Zm-7 0H4v1h2l-2 2.004V21l4-4h1Zm0 1v3h1.996L14 17H8.996Zm0 3H8v1h1Zm0 1v1.004L10 21H8.996Zm0 1.004-1 .992h1ZM30 8.996v7h2V9h-2.004Zm0 13.996v6l1 1V24h1v-1.004h-2.004Zm1.004 7H30v-1l-2.996-2.996-1 1 2.996 3h.996v2H32v-2.004Zm-1.008 1.004-.996-1h-6.004v2H24v-1Zm-21-.996v2h7v-2.004H9Zm0 0" style="stroke:none;fill-rule:nonzero;fill:#000;fill-opacity:1"/></svg>