<svg xmlns="http://www.w3.org/2000/svg" width="32" height="32"><defs><linearGradient id="a" x1="4.233" x2="4.233" y1="4.498" y2=".794" gradientTransform="rotate(.042) scale(3.77938)" gradientUnits="userSpaceOnUse"><stop offset="0" style="stop-color:#fff;stop-opacity:1"/><stop offset=".254" style="stop-color:#0ff;stop-opacity:1"/><stop offset=".746" style="stop-color:#007f7f;stop-opacity:1"/><stop offset="1" style="stop-color:#007f7f;stop-opacity:0"/></linearGradient></defs><path d="M16 3c0 3.813-.438 7.29-1.121 8.973C14.329 10.855 14 8.993 14 7v6c-1.105-.004-2-1.793-2-4v4a4 4 0 0 0 8 0v-2.004A2 2 0 0 1 17.996 13V5c.004 2.77-.355 5.34-.945 6.805C16.402 10.059 16 6.675 16 2.996Zm0 0" style="stroke:none;fill-rule:nonzero;fill:url(#a)"/><path d="M5.996 12h4v2h-4ZM22 12h4v2h-4Zm0 0" style="stroke:none;fill-rule:nonzero;fill:#0ff;fill-opacity:1"/><path d="M10.996 8 12 7 8 3 7 4l3.996 4M21 8l-1-1 4-4 1 1-4 4" style="stroke:none;fill-rule:nonzero;fill:#0ff;fill-opacity:.501961"/></svg>