<svg xmlns="http://www.w3.org/2000/svg" width="32" height="32"><path d="M9 4a5 5 0 1 0 0 10A5 5 0 0 0 9 4ZM7 6c.55 0 1 .45 1 1a1.002 1.002 0 1 1-1-1.004Zm3.996 0c.555 0 1 .45 1.004 1 0 .55-.45 1-1.004 1A.999.999 0 0 1 10 7c0-.55.445-1 .996-1.004ZM9 9a1.999 1.999 0 1 1 0 4c-1.105 0-2-.898-2-2.004C7 9.895 7.898 9 9.004 9Zm13.996 8.996a5 5 0 1 0 0 10 5 5 0 0 0 0-10ZM21 20c.55 0 .996.445 1 1a1.002 1.002 0 1 1-1-1.004Zm3.996 0c.55 0 1 .445 1.004 1 0 .55-.45 1-1.004 1a1.001 1.001 0 0 1 0-2.004Zm-2 2.996a2.003 2.003 0 1 1 0 4.008A2.004 2.004 0 0 1 23 22.996Zm0 0" style="stroke:none;fill-rule:nonzero;fill:#000;fill-opacity:1"/></svg>