<svg xmlns="http://www.w3.org/2000/svg" width="32" height="32"><path d="M0 0v5.996L2.004 4V2.004H4L6 0Zm4 2.004L2 4v4l6-6H4Zm4 0h4L14.004 0H9.996Zm4 0-9.996 9.992V16L16 2h-4Zm4 0h3.992L21.996 0H18Zm3.996 0L2 19.992V24L24.004 2.004h-4.012Zm4.008 0h3.992l2-2.004h-3.992L24 2.004Zm3.992 0L2 27.992v2.004h1.996L29.996 4V2.004h-2.004ZM30 4.008v3.988l2-2V2.004l-2.004 2.004Zm0 3.988L7.996 30h4L30 12Zm0 4.008V16l2-2.004v-3.992l-2.004 2.004ZM30 16 16 30h4.004L30 20Zm0 4.004v3.992l2-2V18l-2.004 2.004Zm2 1.992-.004 4.008L30 27.996V30h-2.004l-2 2H32ZM26 32h-4.004l-.004.004h4V32Zm-4 0 2.004-2.004h-4.008l-2 2.004Zm2.004-2.004h3.992l2.004-2V24l-6 6Zm-8.004 0h-4.004l-1.996 2H6L7.996 30h-4L2 31.996 0 32h14ZM2 27.992v-3.984l-2 1.996v3.992l2.004-2.004Zm0-7.996V16l-2 2.004v3.992l2.004-2.004ZM2 12V8l-2 2v4l2.004-2Zm0 0" style="stroke:none;fill-rule:nonzero;fill:#000;fill-opacity:1"/></svg>