<svg width="32" height="32" viewBox="0 0 8.467 8.467" xmlns="http://www.w3.org/2000/svg"><path style="fill:#000;stroke-width:0;stop-color:#000" d="M0 0v1.587l.53-.529V.53h.528L1.588 0H0zm1.058.53-.529.528v1.059L2.117.529H1.058zm1.059 0h1.058l.53-.53h-1.06l-.528.53zm1.058 0L.53 3.174v1.059L4.234.529H3.175zm1.059 0H5.29L5.82 0H4.763l-.53.53zm1.057 0L.529 5.29v1.06L6.351.53H5.29zm1.06 0h1.057L7.937 0H6.88l-.53.53zm1.057 0L.529 7.407v.53h.528l6.88-6.879V.53h-.53zm.53.53v1.056l.529-.529V.53l-.53.53zm0 1.056L2.116 7.938h1.058l4.764-4.763V2.116zm0 1.06v1.057l.529-.53V2.647l-.53.53zm0 1.057L4.233 7.938h1.06l2.645-2.646V4.233zm0 1.06v1.056l.529-.529V4.763l-.53.53zm.529.527-.001 1.06-.528.528v.53h-.53l-.53.529h1.589V5.82zM6.879 8.467H5.82l-.001.001h1.058v-.001zm-1.058 0 .53-.53H5.291l-.529.53h1.058zm.53-.53h1.057l.53-.529V6.35L6.35 7.938zm-2.118 0H3.174l-.528.529H1.588l.528-.528H1.057l-.528.528L0 8.467h3.704l.529-.53zm-3.704-.53V6.352L0 6.88v1.057l.53-.53zm0-2.116V4.233L0 4.764V5.82l.53-.53zm0-2.116V2.117L0 2.646v1.058l.53-.529z"/></svg>