<svg xmlns="http://www.w3.org/2000/svg" width="32" height="32"><path d="M0 0v6L2 4V2H4L6 0Zm4 2L2 4v4l6-6H4Zm4 0h4L14 0H10Zm4 0-10 10V16L16 2h-4Zm4 0h4L22 0H18Zm4 0L2 20V24L24 2h-4Zm4 0h4l2-2h-4L24 2Zm4 0L2 28v2h2L30 4V2h-2ZM30 4v4l2-2V2l-2 2Zm0 4L8 30h4L30 12Zm0 4V16l2-2v-4l-2 2ZM30 16 16 30h4L30 20Zm0 4v4l2-2V18l-2 2Zm2 2-0 4L30 28V30h-2l-2 2H32ZM26 32h-4l-0 0h4V32Zm-4 0 2-2h-4l-2 2Zm2-2h4l2-2V24l-6 6Zm-8 0h-4l-2 2H6L8 30h-4L2 32 0 32h14ZM2 28v-4l-2 2v4l2-2Zm0-8V16l-2 2v4l2-2ZM2 12V8l-2 2v4l2-2Zm0 0" style="stroke:none;fill-rule:nonzero;fill:#000;fill-opacity:1"/></svg>