<svg xmlns="http://www.w3.org/2000/svg" width="32" height="32"><path d="M0 0v6l2-2V2h2l2-2Zm4 2L2 4v4l6-6H4Zm4 0h4l2-2h-4Zm4 0L2 12v4L16 2h-4Zm4 0h4l2-2h-4Zm4 0L2 20v4L24 2h-4Zm4 0h4l2-2h-4l-2 2Zm4 0L2 28v2h2L30 4V2h-2Zm2 2v4l2-2V2l-2 2Zm0 4L8 30h4l18-18Zm0 4v4l2-2v-4l-2 2Zm0 4L16 30h4l10-10Zm0 4v4l2-2v-4l-2 2Zm2 2v4l-2 2v2h-2l-2 2h6Zm-6 10h-4 4Zm-4 0 2-2h-4l-2 2Zm2-2h4l2-2v-4l-6 6Zm-8 0h-4l-2 2H6l2-2H4l-2 2H0h14ZM2 28v-4l-2 2v4l2-2Zm0-8v-4l-2 2v4l2-2Zm0-8V8l-2 2v4l2-2Zm0 0" style="stroke:none;fill-rule:nonzero;fill:#000;fill-opacity:1"/></svg>