<svg xmlns="http://www.w3.org/2000/svg" width="32" height="32"><path d="M25 21.996V18h-.008m-13.996-8C8.79 10 7 11.566 7 13.5c0 1.918 1.77 3.477 3.96 3.5h.036c1.09.016 1.965.68 1.965 1.5 0 .828-.899 1.5-2.004 1.5-.844-.004-1.594-.402-1.875-1H7.004c.277 1.723 1.965 3 3.957 3 2.207 0 3.996-1.57 3.996-3.5 0-1.918-1.766-3.48-3.96-3.5h-.036C9.87 14.98 9 14.32 9 13.5c0-.832.895-1.5 2-1.5.844 0 1.676.402 1.96 1h1.997c-.281-1.723-1.969-3-3.96-3Zm0 0" style="stroke:none;fill-rule:nonzero;fill:#000;fill-opacity:1"/><path d="M24.996 21.996V18h-.008c-.054-2.223-1.828-3.996-3.992-3.996-.812 0-1.601.254-2.27.726l-.73-.726h-1v8H19v-4.008a1.999 1.999 0 1 1 3.996 0v4Zm0 0" style="stroke:none;fill-rule:nonzero;fill:#000;fill-opacity:1"/></svg>