<svg xmlns="http://www.w3.org/2000/svg" width="32" height="32"><path d="M5 12a3 3 0 0 0-3 3v2a3 3 0 0 0 3 3h1.5A1.5 1.5 0 0 0 8 18.5v-3A1.5 1.5 0 0 0 6.5 14h-1A1.5 1.5 0 0 0 4 15.5V17a1 1 0 0 0 1 1 1 1 0 0 0 1-1 1 1 0 0 0-1-1 1 1 0 0 1 2 0v2a1 1 0 0 1-1 1H5a2 2 0 0 1-2-2v-2a2 2 0 0 1 2-2h2a2 2 0 0 1 2 2v4h1v-4a3 3 0 0 0-3-3H5zM2 7a3 3 0 0 0 3 3h2a3 3 0 0 0 3-3V5.5A1.5 1.5 0 0 0 8.5 4h-3A1.5 1.5 0 0 0 4 5.5v1A1.5 1.5 0 0 0 5.5 8H7a1 1 0 0 0 1-1 1 1 0 0 0-1-1 1 1 0 0 0-1 1 1 1 0 0 1 0-2h2a1 1 0 0 1 1 1v1a2 2 0 0 1-2 2H5a2 2 0 0 1-2-2V5a2 2 0 0 1 2-2h4V2H5a3 3 0 0 0-3 3Zm3 23a3 3 0 0 1-3-3v-2a3 3 0 0 1 3-3h1.5A1.5 1.5 0 0 1 8 23.5v3A1.5 1.5 0 0 1 6.5 28h-1A1.5 1.5 0 0 1 4 26.5V25a1 1 0 0 1 1-1 1 1 0 0 1 1 1 1 1 0 0 1-1 1 1 1 0 0 0 2 0v-2a1 1 0 0 0-1-1H5a2 2 0 0 0-2 2v2a2 2 0 0 0 2 2h2a2 2 0 0 0 2-2v-4h1v4a3 3 0 0 1-3 3zM30 5a3 3 0 0 0-3-3h-2a3 3 0 0 0-3 3v1.5A1.5 1.5 0 0 0 23.5 8h3A1.5 1.5 0 0 0 28 6.5v-1A1.5 1.5 0 0 0 26.5 4H25a1 1 0 0 0-1 1 1 1 0 0 0 1 1 1 1 0 0 0 1-1 1 1 0 0 1 0 2h-2a1 1 0 0 1-1-1V5a2 2 0 0 1 2-2h2a2 2 0 0 1 2 2v2a2 2 0 0 1-2 2h-4v1h4a3 3 0 0 0 3-3zM15 2a3 3 0 0 0-3 3v2a3 3 0 0 0 3 3h1.5A1.5 1.5 0 0 0 18 8.5v-3A1.5 1.5 0 0 0 16.5 4h-1A1.5 1.5 0 0 0 14 5.5V7a1 1 0 0 0 1 1 1 1 0 0 0 1-1 1 1 0 0 0-1-1 1 1 0 0 1 2 0v2a1 1 0 0 1-1 1h-1a2 2 0 0 1-2-2V5a2 2 0 0 1 2-2h2a2 2 0 0 1 2 2v4h1V5a3 3 0 0 0-3-3Zm12 28a3 3 0 0 0 3-3v-2a3 3 0 0 0-3-3h-1.5a1.5 1.5 0 0 0-1.5 1.5v3a1.5 1.5 0 0 0 1.5 1.5h1a1.5 1.5 0 0 0 1.5-1.5V25a1 1 0 0 0-1-1 1 1 0 0 0-1 1 1 1 0 0 0 1 1 1 1 0 0 1-2 0v-2a1 1 0 0 1 1-1h1a2 2 0 0 1 2 2v2a2 2 0 0 1-2 2h-2a2 2 0 0 1-2-2v-4h-1v4a3 3 0 0 0 3 3zm-10-8a3 3 0 0 1 3 3v2a3 3 0 0 1-3 3h-1.5a1.5 1.5 0 0 1-1.5-1.5v-3a1.5 1.5 0 0 1 1.5-1.5h1a1.5 1.5 0 0 1 1.5 1.5V27a1 1 0 0 1-1 1 1 1 0 0 1-1-1 1 1 0 0 1 1-1 1 1 0 0 0-2 0v2a1 1 0 0 0 1 1h1a2 2 0 0 0 2-2v-2a2 2 0 0 0-2-2h-2a2 2 0 0 0-2 2v4h-1v-4a3 3 0 0 1 3-3zm5-7a3 3 0 0 1 3-3h2a3 3 0 0 1 3 3v1.5a1.5 1.5 0 0 1-1.5 1.5h-3a1.5 1.5 0 0 1-1.5-1.5v-1a1.5 1.5 0 0 1 1.5-1.5H27a1 1 0 0 1 1 1 1 1 0 0 1-1 1 1 1 0 0 1-1-1 1 1 0 0 0 0 2h2a1 1 0 0 0 1-1v-1a2 2 0 0 0-2-2h-2a2 2 0 0 0-2 2v2a2 2 0 0 0 2 2h4v1h-4a3 3 0 0 1-3-3zm-2 2a3 3 0 0 1-3 3h-2a3 3 0 0 1-3-3v-1.5a1.5 1.5 0 0 1 1.5-1.5h3a1.5 1.5 0 0 1 1.5 1.5v1a1.5 1.5 0 0 1-1.5 1.5H15a1 1 0 0 1-1-1 1 1 0 0 1 1-1 1 1 0 0 1 1 1 1 1 0 0 0 0-2h-2a1 1 0 0 0-1 1v1a2 2 0 0 0 2 2h2a2 2 0 0 0 2-2v-2a2 2 0 0 0-2-2h-4v-1h4a3 3 0 0 1 3 3z" style="fill:#000;fill-opacity:1;fill-rule:nonzero;stroke:none;stroke-width:.5"/></svg>