<svg xmlns="http://www.w3.org/2000/svg" width="32" height="32"><defs><radialGradient id="a" cx="2.381" cy="1.852" r=".529" fx="2.381" fy="1.852" gradientTransform="rotate(.042) scale(3.77938)" gradientUnits="userSpaceOnUse"><stop offset="0" style="stop-color:#ffff6b;stop-opacity:1"/><stop offset="1" style="stop-color:#ff8931;stop-opacity:1"/></radialGradient><radialGradient id="b" cx="2.381" cy="1.852" r=".529" fx="2.381" fy="1.852" gradientTransform="translate(12 8) scale(3.77938)" gradientUnits="userSpaceOnUse"><stop offset="0" style="stop-color:#ffff6b;stop-opacity:1"/><stop offset="1" style="stop-color:#ff8931;stop-opacity:1"/></radialGradient><radialGradient id="c" cx="2.381" cy="1.852" r=".529" fx="2.381" fy="1.852" gradientTransform="translate(0 16) scale(3.77938)" gradientUnits="userSpaceOnUse"><stop offset="0" style="stop-color:#ffff6b;stop-opacity:1"/><stop offset="1" style="stop-color:#ff8931;stop-opacity:1"/></radialGradient></defs><path d="M12 8a2 2 0 1 1-2-2c1.105 0 2 .898 2 2Zm0 0" style="stroke:none;fill-rule:nonzero;fill:url(#a)"/><path d="M24 16a2 2 0 1 1-2-2c1.105 0 2 .894 2 2Zm0 0" style="stroke:none;fill-rule:nonzero;fill:url(#b)"/><path d="M12 24c0 1.102-.895 2-2 2s-2-.898-2-2a2 2 0 1 1 4 0Zm0 0" style="stroke:none;fill-rule:nonzero;fill:url(#c)"/></svg>