<svg xmlns="http://www.w3.org/2000/svg" width="32" height="32"><path d="M10.82 14.176a4.008 4.008 0 0 0-2.644 2.644A2.001 2.001 0 0 0 12 16a2.011 2.011 0 0 0-1.18-1.824Zm10.36 0a4.01 4.01 0 0 1 2.64 2.644A1.993 1.993 0 0 1 22 18a2.002 2.002 0 0 1-2.004-2c.004-.79.465-1.5 1.184-1.824Zm0 0" style="stroke:none;fill-rule:nonzero;fill:#000;fill-opacity:.996078"/><path d="M17.996 22A1.998 1.998 0 1 1 14 22a1.999 1.999 0 1 1 3.996 0Zm0 0" style="stroke:none;fill-rule:nonzero;fill:#000;fill-opacity:1"/></svg>