<svg xmlns="http://www.w3.org/2000/svg" width="32" height="32"><path d="M11.996 5.996A5.998 5.998 0 1 1 0 6a5.998 5.998 0 0 1 11.996-.004Zm0 0" style="stroke:none;fill-rule:nonzero;fill:#000;fill-opacity:1"/><path d="M4 10.996h3.996v21H4ZM24 13h3.996v19H24Zm-10 4h3.996v15H14Zm0 0" style="stroke:none;fill-rule:nonzero;fill:#000;fill-opacity:1"/><path d="M19.996 14A3.996 3.996 0 0 1 16 17.996 3.998 3.998 0 1 1 19.996 14Zm12-6A5.998 5.998 0 1 1 20 8.004 5.998 5.998 0 0 1 31.996 8Zm0 0" style="stroke:none;fill-rule:nonzero;fill:#000;fill-opacity:1"/></svg>