<svg xmlns="http://www.w3.org/2000/svg" width="32" height="32"><path d="M9.996 16a3.997 3.997 0 0 1-4 3.996A3.996 3.996 0 0 1 2 16a3.998 3.998 0 1 1 7.996 0Zm0 0" style="stroke:none;fill-rule:nonzero;fill:#000;fill-opacity:1"/><path d="M4 17.996h3.996v14H4ZM24 19h3.996v13H24Zm-10-2h3.996v15H14Zm0 0" style="stroke:none;fill-rule:nonzero;fill:#000;fill-opacity:1"/><path d="M19.996 14A3.996 3.996 0 0 1 16 17.996 3.998 3.998 0 1 1 19.996 14Zm10 4a3.998 3.998 0 1 1-7.997.005A3.998 3.998 0 0 1 29.996 18Zm0 0" style="stroke:none;fill-rule:nonzero;fill:#000;fill-opacity:1"/></svg>