<svg xmlns="http://www.w3.org/2000/svg" width="32" height="32"><path d="M10 6a4 4 0 1 1-8 0 4 4 0 0 1 8-0Zm0 0" style="stroke:none;fill-rule:nonzero;fill:#000;fill-opacity:1"/><path d="M5 8h2v24H5Zm10 7h2v17h-2Zm0 0" style="stroke:none;fill-rule:nonzero;fill:#000;fill-opacity:1"/><path d="M18 14A2 2 0 0 1 16 16a2 2 0 1 1 2-2Zm12-6A4 4 0 1 1 22 8 4 4 0 0 1 30 8Zm0 0" style="stroke:none;fill-rule:nonzero;fill:#000;fill-opacity:1"/><path d="M25 11h2v21h-2Zm0 0" style="stroke:none;fill-rule:nonzero;fill:#000;fill-opacity:1"/></svg>