<svg xmlns="http://www.w3.org/2000/svg" width="32" height="32"><path d="M9.996 24a3.997 3.997 0 0 1-4 3.996A3.996 3.996 0 0 1 2 24a3.998 3.998 0 1 1 7.996 0Zm0 0" style="stroke:none;fill-rule:nonzero;fill:#000;fill-opacity:1"/><path d="M4 24h3.996v8H4Zm20 0h3.996v8H24Zm-10 3.996h3.996v4H14Zm0 0" style="stroke:none;fill-rule:nonzero;fill:#000;fill-opacity:1"/><path d="M19.996 26A3.996 3.996 0 0 1 16 29.996 3.998 3.998 0 1 1 19.996 26Zm10-4A4 4 0 0 1 26 26a4 4 0 0 1 0-8 4 4 0 0 1 3.996 4Zm0 0" style="stroke:none;fill-rule:nonzero;fill:#000;fill-opacity:1"/></svg>