<svg xmlns="http://www.w3.org/2000/svg" width="32" height="32"><path d="M9.996 5.996a3.998 3.998 0 1 1-7.995.005 3.998 3.998 0 0 1 7.995-.005Zm0 0" style="stroke:none;fill-rule:nonzero;fill:#000;fill-opacity:1"/><path d="M5 8h2v24H5Zm10 7h2v17h-2Zm0 0" style="stroke:none;fill-rule:nonzero;fill:#000;fill-opacity:1"/><path d="M17.996 14A2 2 0 0 1 16 16a1.999 1.999 0 1 1 1.996-2Zm12-6A3.998 3.998 0 1 1 22 8.005 3.998 3.998 0 0 1 29.996 8Zm0 0" style="stroke:none;fill-rule:nonzero;fill:#000;fill-opacity:1"/><path d="M25 10.996h2v21h-2Zm0 0" style="stroke:none;fill-rule:nonzero;fill:#000;fill-opacity:1"/></svg>