<svg xmlns="http://www.w3.org/2000/svg" width="32" height="32"><path d="M10.996 0C10.996 3.773 19 4.23 19 8c0 3.77-8 4.23-8 8 0 3.77 8 4.23 8 8 0 3.77-8 4.227-8 8h2c0-3.773 8-4.234 8-8 0-3.773-8-4.23-8-8 0-3.77 8-4.23 8-8 0-3.77-8-4.23-8-8ZM22 0c0 3.773 7.996 4.23 7.996 8 0 3.77-7.996 4.23-7.996 8 0 3.77 7.996 4.23 7.996 8 0 3.77-7.996 4.227-7.996 8h2.004c0-3.773 7.992-4.234 7.992-8 0-3.773-7.996-4.23-7.996-8 0-3.77 7.996-4.23 7.996-8C31.996 4.23 24 3.77 24 0ZM0 0c0 3.773 7.996 4.23 7.996 8C7.996 11.77 0 12.23 0 16c0 3.77 7.996 4.23 7.996 8C7.996 27.77 0 28.227 0 32h2c0-3.773 7.996-4.234 7.996-8C9.996 20.227 2 19.77 2 16c0-3.77 7.996-4.23 7.996-8C9.996 4.23 2 3.77 2 0Zm0 0" style="stroke:none;fill-rule:nonzero;fill:#000;fill-opacity:1"/></svg>