<svg xmlns="http://www.w3.org/2000/svg" width="32" height="32"><path d="M2.004 0c0 3.41 6.535 4.113 7.785 7H9a1 1 0 1 0 0 2h.793C8.539 11.89 2 12.59 2 16s6.54 4.11 7.793 7H9c-.55.004-.996.45-1 1a1 1 0 0 0 1 1h.793C8.531 27.887 2 28.59 2 31.996h6c0-3.77 8-4.23 8-7.996 0-3.41-6.535-4.113-7.793-7h.797c.547-.004.996-.45.996-1s-.45-1-1-1h-.797C9.465 12.113 16 11.41 16 8c0-3.77-8-4.23-8-8H2ZM16 0c0 3.41 6.535 4.113 7.793 7H23c-.55 0-1 .45-1 1s.45 1 1 1h.793C22.535 11.89 16 12.59 16 16s6.54 4.11 7.793 7H23c-.55 0-1 .45-1 1s.45 1 1 1h.79C22.53 27.887 16 28.59 16 31.996h5.996c0-3.77 8-4.23 8-7.996 0-3.41-6.539-4.113-7.793-7h.793c.55-.004.996-.45 1-1 0-.55-.445-.996-1-1h-.793c1.254-2.887 7.793-3.59 7.793-7 .004-3.77-8-4.23-8-8Zm0 0" style="stroke:none;fill-rule:nonzero;fill:#000;fill-opacity:1"/></svg>