<svg xmlns="http://www.w3.org/2000/svg" width="32" height="32"><path d="m2 25 4 4v3l-4-4Zm10 0 4 4v3l-4-4Zm10 0 4 4v3l-4-4Zm8-3-4 4v3l4-4Zm-10 0-4 4v3l4-4Zm-10 0-4 4v3l4-4Zm-8-3 4 4v3l-4-4Zm10 0 4 4v3l-4-4Zm10 0 4 4v3l-4-4Zm8-3-4 4v3l4-4Zm-10 0-4 4v3l4-4Zm-10 0-4 4v3l4-4Zm-8-3 4 4v3l-4-4Zm10 0 4 4v3l-4-4Zm10 0 4 4v3l-4-4Zm8-3-4 4v3l4-4Zm-10 0-4 4v3l4-4Zm-10 0-4 4v3l4-4ZM2 7l3.988 4v3L2 10Zm10 0 4 4v3l-4-4Zm10 0 4 4v3l-4-4Zm0 0" style="stroke:none;fill-rule:nonzero;fill:#000;fill-opacity:1"/></svg>