<svg xmlns="http://www.w3.org/2000/svg" width="32" height="32"><path d="M16 5c-4.418.004-8 3.582-8 8a8.005 8.005 0 0 0 8 8c4.414 0 7.996-3.582 8-8a8 8 0 0 0-8-8Zm0 2.004A5.999 5.999 0 1 1 16 19c-3.313 0-6-2.688-6-6 0-3.313 2.684-6 6-6Zm0 0" style="stroke:none;fill-rule:nonzero;fill:#000;fill-opacity:1"/><path d="M14.004 10.996a1.003 1.003 0 1 1-2.002.002 1.003 1.003 0 0 1 2.002-.002Zm5.996 0a1.003 1.003 0 1 1-2.006.002A1.003 1.003 0 0 1 20 10.996ZM17.996 15A1.998 1.998 0 1 1 14 15a1.999 1.999 0 1 1 3.996 0ZM14 19v8.996c1.105 0 2 .899 2 2.004 0-1.105.895-2 2-2.004v-8.992h-4Zm0 0" style="stroke:none;fill-rule:nonzero;fill:#000;fill-opacity:1"/></svg>