<svg xmlns="http://www.w3.org/2000/svg" width="32" height="32"><path d="M16 5c-4.418 0-8 3.582-8 8a8 8 0 0 0 8 8c4.414 0 8-3.582 8-8a8 8 0 0 0-8-8Zm0 2A6 6 0 1 1 16 19c-3.313 0-6-2.688-6-6 0-3.313 2.684-6 6-6Zm0 0" style="stroke:none;fill-rule:nonzero;fill:#000;fill-opacity:1"/><path d="M14 11a1 1 0 1 1-2 0 1 1 0 0 1 2 0Zm6 0a1 1 0 1 1-2 0A1 1 0 0 1 20 11ZM18 15a2 2 0 1 1-4 0 2 2 0 1 1 4 0Zm-4 4v9c1.105 0 2 .899 2 2 0-1.105.895-2 2-2v-9h-4Zm0 0" style="stroke:none;fill-rule:nonzero;fill:#000;fill-opacity:1"/></svg>