<svg xmlns="http://www.w3.org/2000/svg" width="32" height="32"><path d="M0 0v10c2.21 0 4 2.688 4 6 0 3.313-1.79 6-4 6v10h2v-6.32c3.531-1.14 6-5.121 6-9.68 0-4.559-2.469-8.543-6-9.684V0Zm32 0v10c-2.21-.004-4.004 2.684-4.004 6 0 1.59.422 3.117 1.172 4.242C29.922 21.372 30.938 22 32 22v10h-2.004v-6.32C26.465 24.54 24 20.559 24 16c0-4.563 2.469-8.543 6-9.68V0ZM8 30a2 2 0 0 0-2 2h4a2 2 0 0 0-2-2Zm8-.004c-1.105.004-2 .899-2 2.004h4a2.002 2.002 0 0 0-2-2.004Zm8 0A2.006 2.006 0 0 0 21.996 32h4.008A2.006 2.006 0 0 0 24 29.996ZM8 2.004A2.006 2.006 0 0 1 5.996 0H10a2.006 2.006 0 0 1-2.004 2.004Zm8 0A2.005 2.005 0 0 1 14 0h4a2.002 2.002 0 0 1-2 2.004Zm8 0A2.006 2.006 0 0 1 21.996 0h4.008A2.006 2.006 0 0 1 24 2.004Zm0 0" style="stroke:none;fill-rule:nonzero;fill:#000;fill-opacity:1"/></svg>